<?xml version="1.0" encoding="UTF-8"?>
<svg id="Layer_1" xmlns="http://www.w3.org/2000/svg" version="1.1" viewBox="0 0 446.42 203.43">
  <!-- Generator: Adobe Illustrator 30.1.0, SVG Export Plug-In . SVG Version: 2.1.1 Build 136)  -->
  <defs>
    <filter id="shadow" x="-20%" y="-20%" width="140%" height="140%">
      <feDropShadow dx="1" dy="1" stdDeviation="2" flood-color="#000000" flood-opacity="0.75"/>
    </filter>
    <style>
      .st0, .st1 {
        fill: none;
      }

      .st2 {
        <!-- fill: #2f6b85; -->
        fill: #ffffff;
        filter: url(#shadow);
      }

      .st1 {
        <!-- stroke: #2f6b85;  -->
        stroke: #ffffff;
        filter: url(#shadow);
        stroke-linecap: round;
        stroke-linejoin: round;
        stroke-width: 2px;
      }
    </style>
  </defs>
  <g>
    <path class="st2" d="M6.93,180.59h3.19v6.01l5.63-6.01h4.17l-6.44,6.73,7,7.75h-4.46l-5.89-6.87v6.87h-3.19v-14.48Z"/>
    <path class="st2" d="M30.6,193.35c-.49.63-1.11,1.11-1.86,1.45-.75.34-1.53.51-2.33.51s-1.48-.12-2.16-.37c-.68-.25-1.26-.6-1.76-1.05-.5-.46-.89-1.01-1.18-1.65-.29-.64-.43-1.36-.43-2.15s.14-1.51.43-2.15c.29-.64.68-1.19,1.18-1.65.5-.46,1.08-.81,1.76-1.05.68-.25,1.39-.37,2.16-.37.71,0,1.35.12,1.93.37.58.25,1.07.6,1.47,1.05.4.46.71,1.01.93,1.65.22.64.33,1.36.33,2.15v.96h-7.12c.12.59.39,1.05.8,1.4s.91.52,1.51.52c.5,0,.93-.11,1.28-.34s.65-.52.91-.87l2.15,1.58ZM28,188.98c.01-.52-.16-.96-.51-1.33-.35-.37-.81-.55-1.37-.55-.34,0-.64.06-.9.16-.26.11-.48.25-.66.42-.18.17-.33.37-.43.59-.1.23-.16.46-.17.71h4.05Z"/>
    <path class="st2" d="M32.93,185.13h2.95v1.35h.04c.1-.19.23-.38.41-.57s.39-.36.63-.51c.25-.15.53-.27.84-.37s.65-.14,1.02-.14c.78,0,1.4.12,1.88.36s.85.57,1.12.99c.27.42.45.92.54,1.49.1.57.14,1.19.14,1.86v5.48h-3.07v-4.87c0-.29-.01-.58-.03-.89s-.08-.59-.18-.85c-.1-.26-.26-.47-.47-.63s-.51-.25-.91-.25-.72.07-.96.21c-.25.14-.43.33-.56.57-.13.24-.21.51-.26.81-.04.3-.06.61-.06.94v4.95h-3.07v-9.94Z"/>
    <path class="st2" d="M51.45,187.59h-2.7v3.31c0,.27.01.52.04.75.03.23.09.42.18.58.1.16.24.29.44.38s.46.13.79.13c.16,0,.38-.02.64-.05.27-.03.47-.11.6-.24v2.56c-.34.12-.7.21-1.06.25s-.73.06-1.08.06c-.52,0-1-.05-1.43-.16-.44-.11-.82-.28-1.15-.52-.33-.24-.58-.55-.77-.93-.18-.38-.28-.85-.28-1.39v-4.73h-1.96v-2.46h1.96v-2.95h3.07v2.95h2.7v2.46Z"/>
    <path class="st2" d="M62.58,195.07h-2.95v-1.35h-.04c-.11.19-.25.38-.42.57s-.38.36-.62.51-.53.27-.84.37c-.31.1-.65.14-1.02.14-.78,0-1.41-.12-1.89-.36s-.86-.57-1.13-.99c-.27-.42-.44-.92-.53-1.49-.09-.57-.13-1.19-.13-1.86v-5.48h3.07v4.87c0,.29.01.58.03.89.02.31.08.59.18.85.1.26.26.47.47.63.21.16.51.25.91.25s.72-.07.96-.21c.25-.14.43-.33.56-.57s.21-.51.26-.81c.04-.3.06-.61.06-.94v-4.95h3.07v9.94Z"/>
    <path class="st2" d="M71.48,188.34c-.15-.22-.36-.4-.63-.54-.27-.14-.57-.21-.88-.21-.78,0-1.38.23-1.81.7s-.64,1.07-.64,1.82.22,1.36.64,1.82,1.03.7,1.81.7c.34,0,.63-.08.88-.23.25-.15.46-.33.63-.53l2.03,2.13c-.48.49-1.04.84-1.69,1.03-.65.2-1.27.3-1.85.3-.76,0-1.48-.12-2.16-.37-.68-.25-1.26-.6-1.76-1.05-.5-.46-.89-1.01-1.18-1.65-.29-.64-.43-1.36-.43-2.15s.14-1.51.43-2.15c.29-.64.68-1.19,1.18-1.65.5-.46,1.08-.81,1.76-1.05.68-.25,1.39-.37,2.16-.37.59,0,1.2.1,1.85.3.65.2,1.21.54,1.69,1.03l-2.03,2.13Z"/>
    <path class="st2" d="M74.61,179.61h3.07v9.45l3.4-3.93h3.76l-3.95,4.48,4.05,5.46h-3.87l-3.36-5.03h-.04v5.03h-3.07v-15.47Z"/>
    <path class="st2" d="M91.71,196.69c-.2.53-.4,1-.59,1.41-.19.41-.43.75-.73,1.03s-.66.49-1.11.63c-.45.14-1.04.21-1.78.21-.79,0-1.55-.12-2.29-.37l.41-2.52c.46.21.94.31,1.43.31.34,0,.62-.04.84-.11.22-.08.4-.18.54-.33.14-.14.26-.32.36-.52.1-.2.2-.44.31-.72l.23-.57-4.36-10.02h3.31l2.56,6.57h.04l2.19-6.57h3.15l-4.5,11.56Z"/>
    <path class="st2" d="M103.8,180.59h4.79c1.16,0,2.26.13,3.3.39,1.04.26,1.95.68,2.73,1.26.78.58,1.39,1.33,1.85,2.26.46.93.69,2.05.69,3.38,0,1.17-.22,2.21-.66,3.1s-1.04,1.64-1.79,2.25c-.75.61-1.62,1.07-2.6,1.38-.98.31-2.01.47-3.09.47h-5.22v-14.48ZM106.99,192.13h1.66c.74,0,1.42-.08,2.06-.23.63-.15,1.18-.4,1.65-.75s.83-.8,1.09-1.37c.27-.57.4-1.26.4-2.08,0-.71-.13-1.33-.4-1.85-.27-.53-.62-.96-1.07-1.3-.45-.34-.98-.6-1.59-.77-.61-.17-1.24-.26-1.91-.26h-1.88v8.59Z"/>
    <path class="st2" d="M118.73,182c0-.49.17-.91.52-1.26s.77-.52,1.26-.52.91.17,1.26.52.52.77.52,1.26-.17.91-.52,1.26-.77.52-1.26.52-.91-.17-1.26-.52-.52-.77-.52-1.26ZM118.98,185.13h3.07v9.94h-3.07v-9.94Z"/>
    <path class="st2" d="M123.21,185.13h3.31l2.52,6.75h.04l2.33-6.75h3.09l-3.93,9.94h-3.25l-4.11-9.94Z"/>
    <path class="st2" d="M135.43,182c0-.49.17-.91.52-1.26s.77-.52,1.26-.52.91.17,1.26.52.52.77.52,1.26-.17.91-.52,1.26-.77.52-1.26.52-.91-.17-1.26-.52-.52-.77-.52-1.26ZM135.67,185.13h3.07v9.94h-3.07v-9.94Z"/>
    <path class="st2" d="M146.57,188.06c-.45-.56-1.04-.84-1.78-.84-.26,0-.51.06-.76.18-.25.12-.37.33-.37.63,0,.25.13.43.38.54.25.12.57.22.96.31.39.09.8.18,1.25.29.44.1.86.26,1.25.48.39.22.71.52.96.89.25.37.38.88.38,1.5s-.14,1.17-.42,1.59c-.28.42-.64.75-1.07,1-.44.25-.93.43-1.47.53s-1.08.15-1.62.15c-.7,0-1.4-.1-2.11-.3-.71-.2-1.31-.55-1.8-1.05l1.86-2.07c.29.36.6.62.95.81.35.18.75.28,1.22.28.35,0,.68-.05.96-.15.29-.1.43-.29.43-.56s-.13-.45-.38-.58c-.25-.13-.57-.24-.96-.33s-.8-.18-1.25-.29c-.44-.1-.86-.26-1.25-.46s-.71-.49-.96-.87c-.25-.38-.38-.88-.38-1.5,0-.59.12-1.09.36-1.51s.55-.77.94-1.04.84-.47,1.34-.6c.5-.13,1.02-.19,1.53-.19.65,0,1.32.1,1.98.29.67.19,1.23.53,1.7,1.02l-1.88,1.86Z"/>
    <path class="st2" d="M150.22,182c0-.49.17-.91.52-1.26s.77-.52,1.26-.52.91.17,1.26.52.52.77.52,1.26-.17.91-.52,1.26-.77.52-1.26.52-.91-.17-1.26-.52-.52-.77-.52-1.26ZM150.46,185.13h3.07v9.94h-3.07v-9.94Z"/>
    <path class="st2" d="M155.37,190.1c0-.79.14-1.51.43-2.15.29-.64.68-1.19,1.18-1.65.5-.46,1.08-.81,1.76-1.05.67-.25,1.39-.37,2.16-.37s1.48.12,2.16.37c.68.25,1.26.6,1.76,1.05.5.46.89,1.01,1.18,1.65.29.64.43,1.36.43,2.15s-.14,1.51-.43,2.15c-.29.64-.68,1.19-1.18,1.65s-1.08.81-1.76,1.05c-.67.25-1.39.37-2.16.37s-1.48-.12-2.16-.37c-.68-.25-1.26-.6-1.76-1.05-.5-.46-.89-1.01-1.18-1.65-.29-.64-.43-1.36-.43-2.15ZM158.44,190.1c0,.75.21,1.36.64,1.82.43.46,1.03.7,1.81.7s1.38-.23,1.81-.7c.43-.46.64-1.07.64-1.82s-.21-1.36-.64-1.82c-.43-.46-1.03-.7-1.81-.7s-1.38.23-1.81.7c-.43.46-.64,1.07-.64,1.82Z"/>
    <path class="st2" d="M168.22,185.13h2.95v1.35h.04c.1-.19.23-.38.41-.57s.39-.36.63-.51c.25-.15.53-.27.84-.37s.65-.14,1.02-.14c.78,0,1.4.12,1.88.36s.85.57,1.12.99c.27.42.45.92.54,1.49.1.57.14,1.19.14,1.86v5.48h-3.07v-4.87c0-.29-.01-.58-.03-.89s-.08-.59-.18-.85c-.1-.26-.26-.47-.47-.63s-.51-.25-.91-.25-.72.07-.96.21c-.25.14-.43.33-.56.57-.13.24-.21.51-.26.81-.04.3-.06.61-.06.94v4.95h-3.07v-9.94Z"/>
    <path class="st2" d="M185.65,190.1c0-.79.14-1.51.43-2.15.29-.64.68-1.19,1.18-1.65.5-.46,1.08-.81,1.76-1.05.67-.25,1.39-.37,2.16-.37s1.48.12,2.16.37c.68.25,1.26.6,1.76,1.05.5.46.89,1.01,1.18,1.65.29.64.43,1.36.43,2.15s-.14,1.51-.43,2.15c-.29.64-.68,1.19-1.18,1.65s-1.08.81-1.76,1.05c-.67.25-1.39.37-2.16.37s-1.48-.12-2.16-.37c-.68-.25-1.26-.6-1.76-1.05-.5-.46-.89-1.01-1.18-1.65-.29-.64-.43-1.36-.43-2.15ZM188.72,190.1c0,.75.21,1.36.64,1.82.43.46,1.03.7,1.81.7s1.38-.23,1.81-.7c.43-.46.64-1.07.64-1.82s-.21-1.36-.64-1.82c-.43-.46-1.03-.7-1.81-.7s-1.38.23-1.81.7c-.43.46-.64,1.07-.64,1.82Z"/>
    <path class="st2" d="M199.56,187.59h-2.03v-2.46h2.03v-1.76c0-.55.05-1.06.14-1.54.1-.48.28-.91.55-1.28.27-.37.66-.66,1.18-.87.51-.21,1.18-.32,2.02-.32.31,0,.62.01.92.04.3.03.59.08.88.14l-.14,2.6c-.18-.07-.34-.12-.49-.15-.15-.03-.32-.05-.51-.05-.49,0-.86.11-1.1.32-.25.21-.37.64-.37,1.3v1.57h2.27v2.46h-2.27v7.49h-3.07v-7.49Z"/>
    <path class="st2" d="M225.62,194.05c-.94.49-1.92.85-2.95,1.06s-2.07.33-3.13.33c-1.13,0-2.18-.18-3.13-.53-.96-.35-1.78-.86-2.48-1.52s-1.24-1.46-1.63-2.4c-.39-.94-.58-1.99-.58-3.15s.19-2.21.58-3.15.93-1.74,1.63-2.4c.7-.66,1.52-1.17,2.48-1.52.95-.35,2-.53,3.13-.53s2.23.14,3.2.42,1.83.76,2.57,1.44l-2.25,2.45c-.44-.45-.93-.79-1.47-1.02-.55-.23-1.23-.35-2.05-.35-.68,0-1.3.12-1.85.35-.55.23-1.03.56-1.42.97-.4.42-.7.91-.91,1.48s-.32,1.19-.32,1.86.11,1.31.32,1.87c.21.57.51,1.06.91,1.47.4.42.87.74,1.42.97.55.23,1.17.35,1.85.35s1.3-.08,1.8-.23.91-.32,1.21-.48v-2.35h-2.6v-2.95h5.67v7.57Z"/>
    <path class="st2" d="M237.45,193.35c-.49.63-1.11,1.11-1.86,1.45-.75.34-1.53.51-2.33.51s-1.48-.12-2.16-.37c-.68-.25-1.26-.6-1.76-1.05-.5-.46-.89-1.01-1.18-1.65-.29-.64-.43-1.36-.43-2.15s.14-1.51.43-2.15c.29-.64.68-1.19,1.18-1.65.5-.46,1.08-.81,1.76-1.05.68-.25,1.39-.37,2.16-.37.71,0,1.35.12,1.93.37.58.25,1.07.6,1.47,1.05.4.46.71,1.01.93,1.65.22.64.33,1.36.33,2.15v.96h-7.12c.12.59.39,1.05.8,1.4s.91.52,1.51.52c.5,0,.93-.11,1.28-.34s.65-.52.91-.87l2.15,1.58ZM234.85,188.98c.01-.52-.16-.96-.51-1.33-.36-.37-.81-.55-1.37-.55-.34,0-.64.06-.9.16-.26.11-.48.25-.66.42-.18.17-.33.37-.43.59-.1.23-.16.46-.17.71h4.05Z"/>
    <path class="st2" d="M239.41,190.1c0-.79.14-1.51.43-2.15.29-.64.68-1.19,1.18-1.65.5-.46,1.08-.81,1.76-1.05.67-.25,1.39-.37,2.16-.37s1.48.12,2.16.37c.68.25,1.26.6,1.76,1.05.5.46.89,1.01,1.18,1.65.29.64.43,1.36.43,2.15s-.14,1.51-.43,2.15c-.29.64-.68,1.19-1.18,1.65s-1.08.81-1.76,1.05c-.67.25-1.39.37-2.16.37s-1.48-.12-2.16-.37c-.67-.25-1.26-.6-1.76-1.05-.5-.46-.89-1.01-1.18-1.65-.29-.64-.43-1.36-.43-2.15ZM242.48,190.1c0,.75.21,1.36.64,1.82s1.03.7,1.81.7,1.38-.23,1.81-.7c.43-.46.65-1.07.65-1.82s-.21-1.36-.65-1.82c-.43-.46-1.03-.7-1.81-.7s-1.38.23-1.81.7-.64,1.07-.64,1.82Z"/>
    <path class="st2" d="M262.69,194.23c0,1.88-.47,3.31-1.42,4.29-.95.97-2.39,1.46-4.33,1.46-.89,0-1.76-.1-2.62-.3-.86-.2-1.65-.58-2.37-1.16l1.7-2.54c.48.4.98.71,1.5.94.52.23,1.1.35,1.73.35.94,0,1.63-.23,2.08-.69s.67-1.04.67-1.75v-.96h-.04c-.36.48-.8.82-1.32,1.01s-1.02.3-1.48.3c-.74,0-1.4-.13-2-.38-.6-.25-1.12-.61-1.55-1.06-.43-.46-.76-1-.99-1.63s-.35-1.32-.35-2.07c0-.65.11-1.3.32-1.92.21-.63.51-1.18.9-1.66.39-.48.86-.86,1.42-1.16.56-.29,1.19-.44,1.9-.44.44,0,.84.05,1.2.14.36.1.69.22.97.37.29.15.53.32.74.5.21.18.37.36.49.54h.04v-1.31h2.82v9.1ZM254.96,190.04c0,.33.06.64.18.93.12.29.3.55.52.78s.48.41.78.54c.29.14.62.2.97.2s.66-.07.96-.2c.3-.14.56-.32.79-.54.23-.23.4-.48.52-.78.12-.29.18-.6.18-.93s-.06-.64-.18-.93c-.12-.29-.3-.55-.52-.78-.22-.23-.49-.41-.79-.54-.3-.14-.62-.2-.96-.2s-.68.07-.97.2c-.29.14-.55.32-.78.54-.23.22-.4.48-.52.78-.12.29-.18.6-.18.93Z"/>
    <path class="st2" d="M265.14,185.13h3.07v1.6h.04c.33-.61.72-1.07,1.17-1.38.45-.31,1.02-.46,1.7-.46.18,0,.35,0,.53.02.18.01.34.04.49.08v2.8c-.22-.07-.43-.12-.64-.15-.21-.03-.43-.05-.67-.05-.59,0-1.05.08-1.39.25s-.6.39-.79.69c-.18.29-.3.64-.36,1.05-.06.41-.08.86-.08,1.35v4.15h-3.07v-9.94Z"/>
    <path class="st2" d="M279.71,193.83h-.04c-.34.53-.8.91-1.36,1.15-.57.23-1.16.35-1.79.35-.46,0-.91-.06-1.34-.19s-.81-.32-1.13-.58c-.33-.26-.59-.58-.78-.96-.19-.38-.29-.82-.29-1.33,0-.57.11-1.06.32-1.45.21-.4.5-.72.86-.98.36-.26.77-.46,1.24-.6.46-.14.94-.25,1.44-.32s1-.11,1.49-.12c.5-.01.96-.02,1.38-.02,0-.55-.19-.98-.58-1.3s-.85-.48-1.38-.48c-.5,0-.96.11-1.38.32-.42.21-.79.5-1.11.87l-1.64-1.68c.57-.53,1.24-.93,2.01-1.2s1.55-.4,2.37-.4c.9,0,1.64.11,2.22.34.58.23,1.04.56,1.39.99.35.44.59.97.73,1.61.14.63.21,1.37.21,2.2v5.05h-2.82v-1.25ZM278.95,190.72c-.23,0-.52,0-.87.03-.35.02-.68.08-1,.17s-.59.24-.82.43-.34.46-.34.8c0,.37.16.64.47.82.31.18.64.27.98.27.3,0,.59-.04.87-.12s.53-.2.75-.35c.22-.15.39-.34.52-.57s.19-.5.19-.82v-.65h-.76Z"/>
    <path class="st2" d="M284.74,185.13h2.82v1.31h.04c.12-.18.28-.36.48-.54.2-.18.43-.35.7-.5.27-.15.56-.27.87-.37s.65-.14,1-.14c.74,0,1.4.13,2.01.38.6.25,1.11.61,1.54,1.06s.76,1,.99,1.63c.23.63.35,1.32.35,2.07,0,.7-.11,1.36-.32,1.99-.21.63-.51,1.2-.9,1.69-.39.49-.86.88-1.42,1.18-.56.29-1.19.44-1.9.44-.64,0-1.24-.1-1.79-.3-.55-.2-1.01-.54-1.36-1.01h-.04v5.73h-3.07v-14.61ZM287.57,190.1c0,.75.22,1.36.65,1.82s1.03.7,1.81.7,1.38-.23,1.81-.7.64-1.07.64-1.82-.21-1.36-.64-1.82-1.03-.7-1.81-.7-1.38.23-1.81.7-.65,1.07-.65,1.82Z"/>
    <path class="st2" d="M300.41,179.61v6.87h.04c.07-.19.18-.38.35-.57.16-.19.36-.36.59-.51.23-.15.5-.27.82-.37s.65-.14,1.02-.14c.78,0,1.4.12,1.88.36.48.24.85.57,1.11.99s.45.92.54,1.49c.1.57.14,1.19.14,1.86v5.48h-3.07v-4.87c0-.29-.01-.58-.03-.89-.02-.31-.08-.59-.18-.85-.1-.26-.26-.47-.47-.63-.21-.16-.52-.25-.91-.25s-.72.07-.96.21-.43.33-.56.57-.21.51-.26.81-.06.61-.06.94v4.95h-3.07v-15.47h3.07Z"/>
    <path class="st2" d="M308.88,182c0-.49.17-.91.52-1.26s.77-.52,1.26-.52.91.17,1.26.52.52.77.52,1.26-.17.91-.52,1.26-.77.52-1.26.52-.91-.17-1.26-.52-.52-.77-.52-1.26ZM309.13,185.13h3.07v9.94h-3.07v-9.94Z"/>
    <path class="st2" d="M321.14,188.34c-.15-.22-.36-.4-.63-.54-.27-.14-.57-.21-.88-.21-.78,0-1.38.23-1.81.7s-.65,1.07-.65,1.82.22,1.36.65,1.82,1.03.7,1.81.7c.34,0,.63-.08.88-.23.25-.15.46-.33.63-.53l2.03,2.13c-.48.49-1.04.84-1.69,1.03s-1.26.3-1.85.3c-.76,0-1.48-.12-2.16-.37-.68-.25-1.26-.6-1.76-1.05s-.89-1.01-1.18-1.65c-.29-.64-.43-1.36-.43-2.15s.14-1.51.43-2.15c.29-.64.68-1.19,1.18-1.65.5-.46,1.08-.81,1.76-1.05.67-.25,1.39-.37,2.16-.37.59,0,1.2.1,1.85.3s1.21.54,1.69,1.03l-2.03,2.13Z"/>
    <path class="st2" d="M330.67,180.59h3.19v14.48h-3.19v-14.48Z"/>
    <path class="st2" d="M336.38,185.13h2.95v1.35h.04c.1-.19.23-.38.41-.57.18-.19.39-.36.63-.51.25-.15.52-.27.84-.37s.65-.14,1.02-.14c.78,0,1.4.12,1.88.36.48.24.85.57,1.12.99s.45.92.54,1.49c.1.57.14,1.19.14,1.86v5.48h-3.07v-4.87c0-.29-.01-.58-.03-.89-.02-.31-.08-.59-.18-.85-.1-.26-.26-.47-.47-.63-.21-.16-.51-.25-.91-.25s-.72.07-.96.21c-.25.14-.43.33-.56.57-.13.24-.21.51-.26.81-.04.3-.06.61-.06.94v4.95h-3.07v-9.94Z"/>
    <path class="st2" d="M349.18,187.59h-2.03v-2.46h2.03v-1.76c0-.55.05-1.06.14-1.54.1-.48.28-.91.55-1.28.27-.37.67-.66,1.18-.87.51-.21,1.18-.32,2.02-.32.31,0,.62.01.92.04.3.03.59.08.88.14l-.14,2.6c-.18-.07-.34-.12-.49-.15s-.32-.05-.51-.05c-.49,0-.86.11-1.11.32-.25.21-.37.64-.37,1.3v1.57h2.27v2.46h-2.27v7.49h-3.07v-7.49Z"/>
    <path class="st2" d="M355.32,190.1c0-.79.14-1.51.43-2.15.29-.64.68-1.19,1.18-1.65.5-.46,1.08-.81,1.76-1.05.67-.25,1.39-.37,2.16-.37s1.48.12,2.16.37c.68.25,1.26.6,1.76,1.05.5.46.89,1.01,1.18,1.65.29.64.43,1.36.43,2.15s-.14,1.51-.43,2.15c-.29.64-.68,1.19-1.18,1.65-.5.46-1.08.81-1.76,1.05-.67.25-1.39.37-2.16.37s-1.48-.12-2.16-.37c-.68-.25-1.26-.6-1.76-1.05s-.89-1.01-1.18-1.65c-.29-.64-.43-1.36-.43-2.15ZM358.39,190.1c0,.75.21,1.36.64,1.82s1.03.7,1.81.7,1.38-.23,1.81-.7.64-1.07.64-1.82-.21-1.36-.64-1.82-1.03-.7-1.81-.7-1.38.23-1.81.7-.64,1.07-.64,1.82Z"/>
    <path class="st2" d="M368.17,185.13h3.07v1.6h.04c.33-.61.72-1.07,1.17-1.38.45-.31,1.02-.46,1.7-.46.18,0,.35,0,.53.02.18.01.34.04.49.08v2.8c-.22-.07-.43-.12-.65-.15-.21-.03-.43-.05-.66-.05-.59,0-1.05.08-1.39.25-.34.16-.6.39-.79.69-.18.29-.3.64-.36,1.05s-.08.86-.08,1.35v4.15h-3.07v-9.94Z"/>
    <path class="st2" d="M376.86,185.13h2.95v1.35h.04c.1-.19.23-.38.41-.57.18-.19.39-.36.63-.51.25-.15.52-.27.84-.37.31-.1.65-.14,1.02-.14.7,0,1.31.14,1.85.43.54.29.94.74,1.22,1.35.35-.64.78-1.1,1.29-1.37s1.13-.41,1.86-.41c.67,0,1.23.11,1.69.34.46.23.82.53,1.08.92.27.39.46.85.57,1.37.12.53.17,1.09.17,1.69v5.87h-3.07v-5.79c0-.46-.1-.86-.3-1.2-.2-.33-.55-.5-1.05-.5-.35,0-.65.06-.89.17s-.43.28-.57.48c-.14.2-.25.44-.31.72-.06.27-.09.56-.09.86v5.26h-3.07v-5.26c0-.18,0-.4-.02-.65-.01-.26-.06-.5-.14-.74-.08-.23-.21-.43-.4-.59s-.45-.25-.81-.25c-.4,0-.72.07-.96.21s-.43.33-.56.57c-.13.24-.21.51-.26.81s-.06.61-.06.94v4.95h-3.07v-9.94Z"/>
    <path class="st2" d="M400.9,193.83h-.04c-.34.53-.79.91-1.36,1.15-.57.23-1.16.35-1.79.35-.46,0-.91-.06-1.34-.19-.43-.13-.81-.32-1.14-.58-.33-.26-.59-.58-.78-.96-.19-.38-.29-.82-.29-1.33,0-.57.11-1.06.32-1.45.21-.4.5-.72.86-.98.36-.26.77-.46,1.24-.6.46-.14.94-.25,1.44-.32s1-.11,1.49-.12c.5-.01.96-.02,1.38-.02,0-.55-.19-.98-.58-1.3s-.85-.48-1.38-.48c-.5,0-.96.11-1.38.32-.42.21-.79.5-1.11.87l-1.64-1.68c.57-.53,1.24-.93,2-1.2s1.56-.4,2.37-.4c.9,0,1.64.11,2.22.34.58.23,1.04.56,1.39.99.35.44.59.97.73,1.61.14.63.2,1.37.2,2.2v5.05h-2.82v-1.25ZM400.14,190.72c-.23,0-.52,0-.87.03-.35.02-.68.08-1,.17-.32.1-.59.24-.82.43-.23.19-.34.46-.34.8,0,.37.16.64.47.82.31.18.64.27.98.27.3,0,.59-.04.87-.12.28-.08.53-.2.75-.35.22-.15.39-.34.52-.57.13-.23.19-.5.19-.82v-.65h-.76Z"/>
    <path class="st2" d="M412.42,187.59h-2.7v3.31c0,.27.01.52.04.75s.09.42.18.58c.1.16.24.29.44.38.2.09.46.13.79.13.16,0,.38-.02.64-.05s.47-.11.6-.24v2.56c-.34.12-.7.21-1.06.25-.37.04-.73.06-1.08.06-.52,0-1-.05-1.43-.16s-.82-.28-1.15-.52c-.33-.24-.58-.55-.77-.93-.18-.38-.28-.85-.28-1.39v-4.73h-1.96v-2.46h1.96v-2.95h3.07v2.95h2.7v2.46Z"/>
    <path class="st2" d="M413.77,182c0-.49.17-.91.52-1.26s.77-.52,1.26-.52.91.17,1.26.52.52.77.52,1.26-.17.91-.52,1.26-.77.52-1.26.52-.91-.17-1.26-.52-.52-.77-.52-1.26ZM414.01,185.13h3.07v9.94h-3.07v-9.94Z"/>
    <path class="st2" d="M418.92,190.1c0-.79.14-1.51.43-2.15.29-.64.68-1.19,1.18-1.65.5-.46,1.08-.81,1.76-1.05.67-.25,1.39-.37,2.16-.37s1.48.12,2.16.37c.68.25,1.26.6,1.76,1.05.5.46.89,1.01,1.18,1.65.29.64.43,1.36.43,2.15s-.14,1.51-.43,2.15c-.29.64-.68,1.19-1.18,1.65-.5.46-1.08.81-1.76,1.05-.67.25-1.39.37-2.16.37s-1.48-.12-2.16-.37c-.68-.25-1.26-.6-1.76-1.05s-.89-1.01-1.18-1.65c-.29-.64-.43-1.36-.43-2.15ZM421.99,190.1c0,.75.21,1.36.64,1.82s1.03.7,1.81.7,1.38-.23,1.81-.7.64-1.07.64-1.82-.21-1.36-.64-1.82-1.03-.7-1.81-.7-1.38.23-1.81.7-.64,1.07-.64,1.82Z"/>
    <path class="st2" d="M431.77,185.13h2.95v1.35h.04c.1-.19.23-.38.41-.57.18-.19.39-.36.63-.51.25-.15.52-.27.84-.37.31-.1.65-.14,1.02-.14.78,0,1.4.12,1.88.36.48.24.85.57,1.11.99s.45.92.54,1.49c.1.57.14,1.19.14,1.86v5.48h-3.07v-4.87c0-.29-.01-.58-.03-.89-.02-.31-.08-.59-.18-.85-.1-.26-.26-.47-.47-.63-.21-.16-.52-.25-.91-.25s-.72.07-.96.21-.43.33-.56.57c-.13.24-.21.51-.26.81s-.06.61-.06.94v4.95h-3.07v-9.94Z"/>
  </g>
  <g>
    <g>
      <path class="st2" d="M113.9,124.27h4.58v14.1l5.07-5.86h5.62l-5.89,6.68,6.04,8.15h-5.77l-5-7.51h-.06v7.51h-4.58v-23.07Z"/>
      <path class="st2" d="M139.41,149.75c-.31.79-.6,1.49-.88,2.1-.29.61-.65,1.12-1.08,1.54-.44.42-.99.73-1.66.95-.67.21-1.56.32-2.65.32-1.18,0-2.32-.18-3.42-.55l.61-3.75c.69.31,1.4.46,2.14.46.51,0,.93-.06,1.25-.17.32-.11.59-.27.81-.49s.39-.47.53-.78c.14-.31.29-.66.46-1.07l.34-.85-6.5-14.95h4.94l3.81,9.8h.06l3.27-9.8h4.7l-6.71,17.24Z"/>
      <path class="st2" d="M163.4,146.09c0,2.81-.71,4.94-2.12,6.39-1.41,1.45-3.57,2.18-6.45,2.18-1.32,0-2.62-.15-3.91-.44-1.28-.29-2.46-.87-3.54-1.72l2.53-3.78c.71.59,1.46,1.06,2.24,1.4.78.34,1.64.52,2.58.52,1.4,0,2.44-.34,3.1-1.02.66-.68.99-1.55.99-2.61v-1.43h-.06c-.53.71-1.19,1.22-1.97,1.51-.78.29-1.52.44-2.21.44-1.1,0-2.1-.19-2.99-.56-.9-.38-1.66-.9-2.3-1.59-.64-.68-1.13-1.49-1.48-2.43-.35-.94-.52-1.96-.52-3.08,0-.98.16-1.93.47-2.87.32-.94.76-1.76,1.34-2.47.58-.71,1.29-1.29,2.12-1.72.83-.44,1.78-.66,2.84-.66.65,0,1.25.07,1.79.21.54.14,1.02.33,1.45.55.43.22.79.47,1.1.75s.55.54.73.81h.06v-1.95h4.21v13.58ZM151.86,139.84c0,.49.09.95.27,1.39.18.44.44.82.78,1.16.34.34.72.61,1.16.81.44.2.92.31,1.45.31s.99-.1,1.43-.31c.45-.2.84-.47,1.17-.81.34-.34.6-.72.78-1.16s.27-.9.27-1.39-.09-.95-.27-1.39-.44-.82-.78-1.16c-.34-.34-.73-.61-1.17-.81-.45-.2-.93-.31-1.43-.31s-1.01.1-1.45.31c-.44.2-.82.47-1.16.81-.34.34-.6.72-.78,1.16-.18.44-.27.9-.27,1.39Z"/>
      <path class="st2" d="M181.1,144.78c-.73.94-1.66,1.66-2.78,2.17s-2.28.76-3.48.76-2.21-.18-3.22-.55c-1.01-.37-1.88-.89-2.62-1.57-.74-.68-1.33-1.5-1.75-2.46-.43-.96-.64-2.02-.64-3.2s.21-2.25.64-3.2c.43-.96,1.01-1.77,1.75-2.46.74-.68,1.62-1.2,2.62-1.57,1.01-.37,2.08-.55,3.22-.55,1.06,0,2.02.18,2.88.55.86.37,1.6.89,2.2,1.57.6.68,1.06,1.5,1.39,2.46.32.96.49,2.03.49,3.2v1.43h-10.62c.18.88.58,1.57,1.19,2.09.61.52,1.36.78,2.26.78.75,0,1.39-.17,1.91-.5s.97-.77,1.36-1.3l3.2,2.35ZM177.22,138.25c.02-.77-.23-1.43-.76-1.98-.53-.55-1.21-.82-2.05-.82-.51,0-.96.08-1.34.24-.39.16-.72.37-.99.63s-.49.55-.64.88c-.15.34-.24.69-.26,1.05h6.04Z"/>
      <path class="st2" d="M184.03,139.93c0-1.18.21-2.25.64-3.2.43-.96,1.01-1.77,1.75-2.46.74-.68,1.62-1.2,2.62-1.57,1.01-.37,2.08-.55,3.22-.55s2.21.18,3.22.55c1.01.37,1.88.89,2.62,1.57.74.68,1.33,1.5,1.75,2.46.43.96.64,2.03.64,3.2s-.21,2.25-.64,3.2c-.43.96-1.01,1.78-1.75,2.46-.74.68-1.62,1.2-2.62,1.57-1.01.37-2.08.55-3.22.55s-2.21-.18-3.22-.55c-1.01-.37-1.88-.89-2.62-1.57-.74-.68-1.33-1.5-1.75-2.46-.43-.96-.64-2.02-.64-3.2ZM188.61,139.93c0,1.12.32,2.03.96,2.72.64.69,1.54,1.04,2.7,1.04s2.06-.35,2.7-1.04c.64-.69.96-1.6.96-2.72s-.32-2.02-.96-2.72c-.64-.69-1.54-1.04-2.7-1.04s-2.06.35-2.7,1.04c-.64.69-.96,1.6-.96,2.72Z"/>
      <path class="st2" d="M203.19,132.51h4.39v2.01h.06c.14-.28.35-.57.61-.85s.58-.54.95-.76c.37-.22.78-.41,1.25-.55.47-.14.98-.21,1.53-.21,1.16,0,2.1.18,2.81.53.71.36,1.27.85,1.66,1.48s.67,1.37.81,2.23c.14.85.21,1.78.21,2.78v8.18h-4.58v-7.26c0-.43-.02-.87-.05-1.33-.03-.46-.12-.88-.27-1.27-.15-.39-.39-.7-.7-.95-.32-.24-.77-.37-1.36-.37s-1.07.11-1.43.32c-.37.21-.65.5-.84.86-.19.36-.32.76-.38,1.2-.06.45-.09.92-.09,1.4v7.38h-4.58v-14.83Z"/>
      <path class="st2" d="M234.75,144.78c-.73.94-1.66,1.66-2.78,2.17s-2.28.76-3.48.76-2.21-.18-3.22-.55c-1.01-.37-1.88-.89-2.62-1.57-.74-.68-1.33-1.5-1.75-2.46-.43-.96-.64-2.02-.64-3.2s.21-2.25.64-3.2c.43-.96,1.01-1.77,1.75-2.46.74-.68,1.62-1.2,2.62-1.57,1.01-.37,2.08-.55,3.22-.55,1.06,0,2.02.18,2.88.55.86.37,1.6.89,2.2,1.57.6.68,1.06,1.5,1.39,2.46.32.96.49,2.03.49,3.2v1.43h-10.62c.18.88.58,1.57,1.19,2.09.61.52,1.36.78,2.26.78.75,0,1.39-.17,1.91-.5s.97-.77,1.36-1.3l3.2,2.35ZM230.87,138.25c.02-.77-.23-1.43-.76-1.98-.53-.55-1.21-.82-2.05-.82-.51,0-.96.08-1.34.24-.39.16-.72.37-.99.63s-.49.55-.64.88c-.15.34-.24.69-.26,1.05h6.04Z"/>
      <path class="st2" d="M248.33,136.17h-4.03v4.94c0,.41.02.78.06,1.11.04.34.13.63.27.87.14.24.36.43.66.56s.69.2,1.18.2c.24,0,.56-.03.96-.08.4-.05.7-.17.9-.35v3.81c-.51.18-1.04.31-1.59.37-.55.06-1.09.09-1.62.09-.77,0-1.49-.08-2.14-.24-.65-.16-1.22-.42-1.71-.78-.49-.36-.87-.82-1.15-1.39s-.41-1.26-.41-2.08v-7.05h-2.93v-3.66h2.93v-4.4h4.58v4.4h4.03v3.66Z"/>
      <path class="st2" d="M250.74,144.72c0-.39.07-.75.21-1.1s.34-.65.6-.9c.25-.25.55-.45.9-.6.35-.14.71-.21,1.1-.21s.75.07,1.1.21c.35.14.65.34.9.6.25.25.45.55.6.9.14.35.21.71.21,1.1s-.07.75-.21,1.1c-.14.35-.34.65-.6.9-.25.25-.55.45-.9.59-.35.14-.71.21-1.1.21s-.75-.07-1.1-.21c-.35-.14-.65-.34-.9-.59-.25-.25-.45-.55-.6-.9s-.21-.71-.21-1.1Z"/>
      <path class="st2" d="M259.68,124.27h4.58v14.1l5.07-5.86h5.62l-5.89,6.68,6.04,8.15h-5.77l-5.01-7.51h-.06v7.51h-4.58v-23.07Z"/>
      <path class="st2" d="M285.19,149.75c-.31.79-.6,1.49-.88,2.1-.29.61-.65,1.12-1.08,1.54-.44.42-.99.73-1.66.95-.67.21-1.56.32-2.66.32-1.18,0-2.32-.18-3.42-.55l.61-3.75c.69.31,1.4.46,2.14.46.51,0,.93-.06,1.25-.17.32-.11.59-.27.81-.49s.39-.47.53-.78.29-.66.46-1.07l.34-.85-6.5-14.95h4.94l3.82,9.8h.06l3.27-9.8h4.7l-6.71,17.24Z"/>
      <path class="st2" d="M290.9,144.72c0-.39.07-.75.21-1.1.14-.35.34-.65.59-.9.25-.25.55-.45.9-.6.35-.14.71-.21,1.1-.21s.75.07,1.1.21c.34.14.65.34.9.6s.45.55.59.9.21.71.21,1.1-.07.75-.21,1.1-.34.65-.59.9-.55.45-.9.59c-.35.14-.71.21-1.1.21s-.75-.07-1.1-.21c-.35-.14-.65-.34-.9-.59-.25-.25-.45-.55-.59-.9-.14-.35-.21-.71-.21-1.1Z"/>
      <path class="st2" d="M315.4,146.09c0,2.81-.71,4.94-2.12,6.39-1.41,1.45-3.57,2.18-6.45,2.18-1.32,0-2.62-.15-3.91-.44s-2.46-.87-3.54-1.72l2.53-3.78c.71.59,1.46,1.06,2.24,1.4.78.34,1.64.52,2.58.52,1.4,0,2.44-.34,3.1-1.02.66-.68.99-1.55.99-2.61v-1.43h-.06c-.53.71-1.19,1.22-1.97,1.51-.78.29-1.52.44-2.21.44-1.1,0-2.1-.19-2.99-.56-.9-.38-1.66-.9-2.3-1.59-.64-.68-1.13-1.49-1.48-2.43-.35-.94-.52-1.96-.52-3.08,0-.98.16-1.93.47-2.87.32-.94.76-1.76,1.34-2.47.58-.71,1.29-1.29,2.12-1.72.83-.44,1.78-.66,2.84-.66.65,0,1.25.07,1.78.21.54.14,1.02.33,1.45.55.43.22.79.47,1.1.75s.55.54.73.81h.06v-1.95h4.21v13.58ZM303.86,139.84c0,.49.09.95.27,1.39.18.44.44.82.78,1.16.34.34.72.61,1.16.81.44.2.92.31,1.45.31s.99-.1,1.43-.31c.45-.2.84-.47,1.17-.81.34-.34.59-.72.78-1.16.18-.44.27-.9.27-1.39s-.09-.95-.27-1.39c-.18-.44-.44-.82-.78-1.16s-.73-.61-1.17-.81c-.45-.2-.93-.31-1.43-.31s-1.01.1-1.45.31c-.44.2-.82.47-1.16.81-.34.34-.6.72-.78,1.16-.18.44-.27.9-.27,1.39Z"/>
      <path class="st2" d="M318.51,139.93c0-1.18.21-2.25.64-3.2.43-.96,1.01-1.77,1.75-2.46.74-.68,1.62-1.2,2.62-1.57,1.01-.37,2.08-.55,3.22-.55s2.21.18,3.22.55c1.01.37,1.88.89,2.62,1.57.74.68,1.33,1.5,1.76,2.46.43.96.64,2.03.64,3.2s-.21,2.25-.64,3.2c-.43.96-1.01,1.78-1.76,2.46-.74.68-1.62,1.2-2.62,1.57-1.01.37-2.08.55-3.22.55s-2.21-.18-3.22-.55c-1.01-.37-1.88-.89-2.62-1.57-.74-.68-1.33-1.5-1.75-2.46-.43-.96-.64-2.02-.64-3.2ZM323.09,139.93c0,1.12.32,2.03.96,2.72.64.69,1.54,1.04,2.7,1.04s2.06-.35,2.7-1.04c.64-.69.96-1.6.96-2.72s-.32-2.02-.96-2.72c-.64-.69-1.54-1.04-2.7-1.04s-2.06.35-2.7,1.04c-.64.69-.96,1.6-.96,2.72Z"/>
      <path class="st2" d="M336.12,132.51h4.94l3.75,10.07h.06l3.48-10.07h4.61l-5.86,14.83h-4.85l-6.13-14.83Z"/>
    </g>
    <g>
      <g>
        <path class="st0" d="M422.08,97.85c-.51-.11-.35.1-.62.3-.24.04-.08-.18-.16-.3-.21-.12-.21.23-.32.32-.05.11-.09.23-.2.3-.13.08-.24,0-.4,0-.07-.12-.04-.31-.16-.41-.18-.05-.23.11-.36.18-.17.08-.24-.06-.36-.17-.06-.06-.2-.04-.24-.13-.05-.08-.03-.21-.11-.29-.08-.06-.17-.01-.25.03-.15.29.21.58.14.86-.01.13-.04.29-.13.37-.17.06-.22-.17-.17-.29,0-.17-.18-.19-.3-.21-.2-.08-.31.14-.49,0-.17-.09.05-.26,0-.38-.13-.2-.27-.37-.45-.51-.06-.47-.51-.1-.82-.24-.16.07-.37.11-.54.22-.16.05-.4,0-.25-.18.18-.1.05-.36-.12-.22-.21.12-.42-.02-.61.11-.11.11-.11.25-.16.38-.06.13-.29.09-.41.07-.18-.02-.35-.34-.18-.47.04-.35-.41-.28-.58-.43-.03-.54.92-.1.97-.65-.11-.36-.18-1.05-.68-1.08-.32-.19-.4.31-.67.22-.86.09.24-1.56-.76-.99-.2.03-.26-.26-.2-.4.04-.19.36-.35.08-.46-.19-.09-.31.2-.49.24-.06-.07-.15-.16-.24-.2-.36-.37.31-.46.41-.72.01-.22-.46-.42-.24-.7.3-.39-.47-.37-.62-.14-.18.09-.11.29-.01.4.17.1.12.35.17.51.01.12.1.29-.07.36-.23.14-.46-.04-.68-.04-.1.26-.37.15-.62.18-.08-.03-.09-.08-.01-.12-.1-.14-.22-.28-.3-.43.03-.18.33-.48-.01-.55-.44.01-.15-.52-.43-.66-.08-.08-.2-.04-.26-.08-.08-.14-.18-.27-.36-.36-.33.01-.44.37-.72.34-.22.06-.34-.16-.49-.24-.15-.1-.33-.09-.43-.25-.05-.2-.2-.22-.32-.34-.04-.1-.12-.23-.18-.3-.17-.02-.09.18-.14.26-.04.08-.04.17-.11.24-.08-.04-.2-.03-.3-.09-.07-.11-.04-.31-.05-.49-.14-.12-.37.3-.5.11-.03-.28.63-.56.3-.72-.15-.14-.28-.31-.25-.53.11-.12.33-.17.28-.36-.07-.34-.52-.16-.61-.43-.03-.1-.03-.19-.13-.22-.05-.2-.02-.44-.28-.47-.13-.23-.13-.55-.2-.8-.11-.09-.27-.07-.4-.13-.14-.08-.25-.19-.37-.32-.07-.28.38-.54.59-.66-.24-.72.65-.44.42-.82-.32-.23-.5.16-.82.17-.82-.31.18-.41.24-.71-.05-.2-.29-.17-.42-.07-.14.13-.47,0-.41-.22.08-.37-.15-.54-.5-.49-.1-.12-.2-.35-.36-.4-.56.08-.43-.5-.92-.49-.33.06-.16-.32-.3-.47-.06-.19-.27-.34-.38-.51-.2.06-.28.42-.43.58-.4.25-.33-.31-.22-.53.15-.22.03-.53-.03-.74-.14-.14-.34-.23-.47-.38-.18-.34-.1-.58-.58-.58-.08-.19.24-.44.22-.66-.16-.08-.41-.12-.5-.29,0-.39.83-.09.82-.45-.09-.13-.3,0-.43-.08-.3-.21-.06-.68-.22-.95-.11-.14-.31-.15-.47-.2-.27-.13-.26-.53-.46-.72-.16-.08-.39-.12-.51-.25-.11-.25-.34-.26-.58-.26-.11-.1-.1-.42-.33-.33-.29.2.07.76-.24,1-.2.01-.31-.26-.17-.42.05-.23-.1-.48-.32-.57-.87-.14-.16-.34-.03-.65-.4-.26-.82.23-1.12-.43-.04-.47.65.05.65-.36-.16-.08-.62-.22-.4-.47.21-.06.48.19.63-.07.21-.26.54-.54.55-.86-.18-.13-.59-.03-.67-.26-.2-.79.64-.34.86-.66.18-.21.23-.69-.17-.7-.26-.15-.51.3-.7.13-.31-.62.14-1.03-.86-.86-.14-.03-.3-.2-.45-.12-.12.17-.42.17-.47-.01.01-.1.26-.19.16-.32-.04-.03-.14,0-.17-.07-.1-.11-.17-.29-.25-.42-.28-.61.09-.63-.61-1.04-.26-.23-.19-.53-.16-.82-.3-.18-.42-.53-.41-.86-.28-.14-.22-.39-.28-.63-.09-.14-.25-.11-.4-.14-.18-.06-.28-.33-.38-.49-.07-.13-.26-.05-.37-.07-.12-.05-.22-.17-.32-.29l-7.37,52.71h-14.94l9.48-67.82h12.16c-.08-.12-.18-.23-.34-.29-.2-.24-.26-.55-.62-.57-.22-.41-.17-1.01-.12-1.48.13-.34.3-.7.04-1.03-.08-.17-.24-.31-.24-.5-.05-.21.23-.34.22-.51-.09-.47-.3-.98-.01-1.42-.22-.24-.25-.57-.37-.86-.23-.89-.15-2.05-1.05-2.56-.5-.24-1.06-.4-1.5-.76-.57-.41-.96-1.05-1.45-1.57-.33-.47-.5-1.05-.94-1.42-.43-.45-1.13-.6-1.58-1.04-.62-.08-1.47-.04-2.13-.03-.54.15-1.1.1-1.61-.16-2.49-1.25-2.77-2.26-2.96-4.94-.03-.39-.15-1.35-.54-1.8-.47-.44-.68-.96-.54-1.58.13-1.02.52-2.21-.21-3.08-.06-.2-.29-.05-.4-.21.11-.11-.09-.17-.18-.17-.29-.08-.53.06-.78.14-1.09.29-2.15.85-2.92,1.63-.06.08-.16.11-.24.2-.04-.01.06-.08.01-.09-.2.18-.44.2-.7.17-.51-.18-1.32-.26-1.48-.09-.18.09-.38-.02-.57.12-.31.18-.43.54-.57.86-.14.51-.46,1.06-.88,1.38-.57.64-1.52.78-2.27,1.16-1.1.75-.64,2.37-1.66,3.23-.48.26-.9.41-1.46.38-.58.04-1.22.42-1.8.18-.59-.3-1.62-1-2.14-.29-.15.14-.47.05-.6.25-.14.17-.1.37-.28.51-.26.31-.49.65-.79.94-.29.19-.62.05-.9-.09-.83-.47-.62-1.19-.84-1.9-.35-.65-1.2-1.05-1.88-1.45-1.03-.6-2.49-.5-3.29-.71-.77.15-1.36-.27-2.07-.33-.3-.21-.49-.53-.78-.75-1.29-1.23-2.71-.93-4.16-.17-.51.21-1.19.2-1.58.62-.36-.08-.73.04-1.03.26-1.69.99.46,5.06-3.95,2.7-.28-.01-.52-.15-.72-.37-.44-.15-.98-.02-1.44-.16-1.67.04-1.33-1.81-1.86-2.89-.47-.69-1.42-.45-2.06-.87-1.36-.58-.57-2.12-1.82-2.82-.73-.41-1.55-.45-2.37-.62-.22-.08-.48.03-.69-.09-.07,0-.35-.04-.24-.13.24-.05-.15-.1-.2-.18-.23-.14-.42-.37-.67-.46-.5-.24-1.05-.17-1.58-.17-.71.34-1.48.51-2.2.84-1.92.8-3.8.07-5.43-.7-1.12-.43-2.35-.47-3.5-.72-2.49-1.04-.76-4.26-1.9-6.01-.74-1.38-1.97-2.48-2.71-3.87-.45-1.76-.24-2.96-2.07-4.19-2.89-1.86-4.97.76-5.08-3.54.23-1.01-.99-2.42-2.03-1.82-.71.4-.8,1.47-1.66,1.69-.33.1-.71.2-.99-.05-1.58-1.03-1.01,1-3.07,1.19-.52.46-1.24.26-1.83.09-.47-.4-.83-1.03-1.46-1.23-1.65.23-1.93-1.71-2.98-2.57-1.77-1.36-2.23.38-3.21,1.61-3.35,1.08-2.24,1.96-4.43,2.91-.46.22-1.07.84-.55,1.3.2.59.63.92,1.04,1.28.42.58,1.05,1.16,1.24,1.86.47.44.87,1.05.91,1.71.05.83-.75,1.12-1.12,1.73-.77.83-1.72,1.61-.72,2.69.77.33,1.94.05,2.7.24.7.16,1.76.66,1.45,1.55-.2,1.18-1.63,1.42-2.07,2.44-.17.77.58,1.28.8,1.95.84,2.5-3.18-.28-4.19.65-2.1,1.42-1.94.94-4.14.84-.59.03-.91.57-1.37.87-.62.39-1.38.61-1.88,1.16-.83.32-1.53.86-2.24,1.36-.41.17-.62.77-1.09,1.03-1.37,1.6-3.97,2.2-5.2.25-.47-.59-.56-1.3-1.38-1.7-1.2-.62-2.91-.3-3.9.16-2.51.97-3.1-.94-4.94.53-.57,1.03-.9,1.26-.94,2.46-.02.59.59.94.76,1.48.4,1.01.04,2.23.16,3.32.07,1.3,1.38,2.27,1.24,3.62.23,1.69-1.56,2.04-2.61,2.81-.6.74-.53,1.85-1.32,2.5-2.72,2.02-5.17-.3-6.35,4.11-.01.02-.02.05-.03.07h13.29c5.43,0,10.49.61,15.18,1.82,4.69,1.21,8.68,3.18,11.97,5.89,3.29,2.72,5.68,6.24,7.18,10.59,1.5,4.34,1.84,9.61,1.01,15.81-.77,5.49-2.48,10.33-5.12,14.51-2.65,4.18-5.92,7.7-9.82,10.54-3.9,2.84-8.25,5-13.08,6.47-4.82,1.47-9.76,2.2-14.8,2.2h-24.43l7.9-56.48c-.25.3-.61.62-1.15,1.01-2.21,1.98-1.69,4.37-1.44,6.98.04.99-.55,1.42-.57,2.24-.15.97.02,2.13-.75,2.87-.26.19-.45.57-.78.63-.48.02-.96.25-1.44.12-.95.36-2.62.08-2.85,1.3.45,2.93-1.45.99-1.88-.45-.13-.76-1.59-1.69-2.94-1.57-.74-.06-1.37.53-2.11.4-1.01-.48-2.11-.93-2.89-1.74-.3-.35-1.18-.55-1.55-1.03-.82-1.01-.86-2.64-.49-3.85.51-1.19-.32-2.49-1.36-3.11-1.16-.33-1.72-1.58-2.81-1.99-1.2-.07-1.4,1.95-.38,2.33,1.01.21,2.93.19,1.92,1.71-.77,1.05-2.42-.49-3.07.75-.25.36-.07,1-.61,1.12-.58-.37-.92-1.24-1.66-1.4-.96-.33-1.94.79-1.36,1.69.33.67,1.54.39,1.63,1.24-.23,3.16-3.55,1.47-4.51,2.6-.34,1.35-.09,2.83-.14,4.22,0,1.61,2.26,2.42-.29,3.33-1.03.3-2.28-.93-3.07.07-.83.99.27,2.49-.43,3.49-.66.91-3.46,2.22-2.9-.11.06-.88,1.57-2.3.46-3-.56-.11-1.13-.41-1.66-.14-.37.33-.75.63-1.13.95-.29.13-.51.49-.84.3-.77-.12-1.12-1.09-1.52-1.69-.33-.52-.66-1.11-.88-1.69-.16-.16-.28-.35-.3-.57,0,0,.12.1.07,0-.39-.61-.55-1.34-.83-2.02-.33-.12-.88-.74-1.33-.62-.56.34-1.28.46-1.82.86-.52.57-1.16,1.06-1.54,1.74-1.02,1.6-2.6,1.51-4.02,1.58-1.14.39-2.34.89-3.21,1.75-.49.42-.54,1.04-.32,1.61.16.65-.33,1.23-.38,1.84-.17.69-.22,1.48-.66,2.04-.15,1.36-1.97,2.62-3.21,1.84-.39-.35-.25-.94-.43-1.4-.2-.5-.48-.98-.76-1.44-.1-.28-.37-.47-.62-.62-.18-.09-.47.1-.66.01-.8-.12-1.65-.18-2.32-.67-1.85-1.07-3.18-3.01-5.31-3.52-.42.11-.77-.37-1.04-.63-.07-.19-.36-.08-.45-.25-.21-.18-.48-.53-.47-.62-1-.6-2.19-1-3.35-.71-.92.18-1.62.96-2.29,1.57-.4.27-.69.8-1.2.71-.95-.84-2.4-1.03-2.9-2.36-.11-.12-.08-.38-.17-.47-.07-.02-.17-.02-.09-.11.26-.51,0-1.21-.54-1.38-1.32-.15-.43,1.71-1.42,2.13-.09.06-.34.29-.29.29.11-.09.24-.17.18.03-.05.16-.18.28-.2.45,0,.12-.23.27-.26.09.02-.32-.15.17-.05.28.05.32.24.58.3.86.33.52,1,.77,1.42,1.23.1.52.19,1.14.2,1.69-.26.7-.76,1.42-1.34,1.91-.94.31-2.09.62-2.94.03-.53-.75-.38-1.76.18-2.46.73-.7.39-2.15-.7-2.04-.51.21-.97.55-1.53.63-.43.14-.84-.22-1.26-.09-2.58.45-1.18,1.53-4.04,1.09-.31,0-.67-.1-.84-.4.07-.23-.14-.44-.2-.65-.18-.22-.54-.33-.63-.62-.07-.25-.18-.56-.34-.78-.39-.54-1.09-.98-1.77-.74-.72.47-1.05,1.36-1.66,1.95-.69.71-.22,1.76.4,2.37.58.35.82.91.9,1.5.04.54.36,1.17-.04,1.65-.36.32-.98.31-1.33.65-.08.12.07.27-.07.38-.27.27-.28.69-.49,1-.62.51-1.16-.54-1.54-.91-.38-.2-.79-.45-1.16-.67-.61-.28-1.49-.29-1.78.45-.32,1.5-.76,3.33-2.41,3.83-.33.19-.65.43-.91.71-.41.21-.93.27-1.17.71-.14.32-.41.59-.46.94-.33.27-.6.57-.82.94-.72,1-.49,2.37-.07,3.43.13.46.43.89.51,1.36-.04.57.1,1.12.38,1.61.59.42,1.27.92,1.62,1.58.16.29.32.69.61.88.26.15.68.18.84.5.4.74.59,1.68.16,2.44-.04.13-.15.19-.28.12-.14.08-.08.33-.26.42-.12.29-.44.7-.72.34-.29-.04-.6.04-.9.05-.45.03-.92.11-1.37.05-.56.19-1.15.3-1.74.36-.9.3-2.05.41-3.06.49-1.25-.03-2.59.1-3.69.83-.49.33-1,.62-1.38,1.07-.5.54-.86,1.3-1.61,1.45-.29,0-.4-.28-.51-.5-.19-.16-.36-.35-.58-.47-.46-.48-1.2-.67-1.75-.24-1.03.15-1.97.86-2.5,1.75-.35.92-.42,1.95-.58,2.9-.31.79-.77,1.54-1.07,2.35-.37.57-.7,1.32-.38,1.82.27.13.11.87.37.82.16.05-.09.12-.12.17-.04-.04-.07.02-.12.01-.04-.03-.07-.11-.13-.11-.01.2.22.2.33.33.24.45.73.63.99,1.07.18.5.31,1.06.72,1.44.32.19.62.35.84.65.51.51.45,1.32.76,1.92.12.34.11.71.24,1.03.14.21.33.37.38.62-.18.55-.38,1.11-.58,1.66-.21.31-.47.86-.34,1.05.17-.2.02.16,0,.22,0,.13-.16.23-.18.34.08.05.05.16.04.24-.12.33-.35.61-.57.9-.04.19-.19.42-.4.47-.41.11-.8.41-1.21.29-.51.02-.92.22-1.45.14-.8-.07-1.61-.4-2.32-.76-.04,0-.11-.03-.14-.04,0,.05.08.08.05.13-.03.08-.17-.07-.2-.11-.42-.24-.15-.79-.59-1.04-.82-.66-1.56-1.61-2.65-1.75-1.02-.22-1.92-.98-2.92-1.32-.19-.02-.35-.12-.53-.11.09.07-.08.08-.13.08-.05-.17-.36.04-.5.03-.28.02-.55-.09-.79-.22-.76-.51-1.51-1.05-2.19-1.66-.53-.5-.97-1.16-1.77-1.26-1.95-.8-3.8-1.83-5.85-2.45-.12,0-.44-.1-.54-.08.1.11.4.1.47.22-.4.08-.83.03-1.23-.05-.27.05-.51-.18-.75-.18-.08-.07.37-.04.3-.11-.16.05-.54-.08-.58.16-.12.12-.56.27-.45.16.16-.01.27-.06.4-.14.05-.05.17-.2.01-.12-.41.05-.79.14-1.15.29-.09.05-.43.24-.26.18.09-.04-.22.2-.32.28-1.28.36-1.98,1.5-2.99,2.33-.76.58-1.19,1.45-1.42,2.35-.33.49-.37,1.09-.84,1.5.05-.09.09-.21.14-.29.07-.04.16-.08.17-.16-.06.03-.1.08-.16.11-.33.4-.67.82-1.13,1.07-.16.18-.16.51-.38.59-.98.36-2.25,2.22-2.05,3.79,0,1.14.82,2.01,1.66,2.69.44.49.69.44,1.26.47,1.67.58,1.02,2.45.62,3.64-.23,1.44-.82,2.81-1.3,4.16-.09.31-.4.84-.8.63-.15,0-.41,0-.45.18-.14.14-.37.07-.55.07-.16.05-.33.17-.41.3-.3.27-.15.98-.21,1.37-.09.72.6,1.62,1.34,1.73.68.02,1.48-.07,1.67.75.13.53,0,1.2-.45,1.57-.06-.03-.53.06-.55-.05-.16-.11-.28-.22-.49-.24-.35.04-.75-.06-1.05-.25-.78.14-1.41.78-1.63,1.53-.29.82.16,1.56.74,2.13.46.41.95.83.76,1.5-.02.1-.17.21-.17.29.11-.02.7.34.57.43-.32.46-.67.9-1.13,1.21-1.17.83-.88,2.49-1.48,3.65-.46,1.2-2.32,1.8-3.21.8-.68-.81-1.33-1.77-1.79-2.73-.3-.53-.64-1.26-1.37-1.09-.79.1-1.7.36-1.98,1.19-.17,1.06-.36,2.12-.94,3.04-.3,1.36-.8,2.69-1.29,4,2.39.11,6.01-.6,8.43-.24,16.87.78,33.8.85,50.67,1.3,3.15.06,6.45.16,9.59.29.22-.34.66-.54.76-.95.02-.53.2-1.01.3-1.53-.15-1.74-.4-3.55-.9-5.23-.21-.45-.16-.97-.34-1.42-.45-.96-1.29-2.55.5-2.15,2.99.03,6.5.8,9.49.95,1.69-.04-1.22,2.51,1.42,1.9,11.65-.24,23.61-.34,35.27-.33,8.43-.14,16.94-.36,25.37-.62,2.05-.8,3.3,2.26,3.77.41.45.52,1.87-.64,2.63-.47,13,.14,26.09,1.67,39.1,1.65,12.73.72,25.4-1.74,38.13-.3,19.52,1.31,39.21.06,58.76.28,1.04.23,4.34-.12,5.31-.17.12-.51.69-.67.68-1.23.1-.12.29-.16.45-.18.14-.08.23-.22.34-.34.11-.12.27-.14.34-.32-.02-.07.09-.06.12-.04,0-.12.04-.17.04-.28.03,0,0-.06,0-.08,0-.12.12.02.13-.08,0-.06.1-.09.12-.03.05-.07.16-.05.24-.03.19.12.41,0,.62-.08.29-.08.47-.34.57-.58.02-.07.08-.07.14-.05.05-.04.07-.12.13-.14.22-.06.33,0,.55-.13.15-.11.46-.15.51-.28.04-.18.11.13.2.08.03.06.09-.02.14-.01.06-.06.2.09.2-.05.13-.16.36-.12.47-.3.19-.07.17-.29.38-.33.33-.12.73-.11.95-.41.2-.02.21-.21.4-.28.03-.12-.07-.16.07-.21.11-.03.27,0,.4-.08.12,0,.23-.19.34-.08.13-.05.17-.17.33-.08.31.04.67-.29.91-.01.58.21,1.18.16,1.77.16.36.02.64-.24.99-.12.74-.06,1.35-.41,1.99-.74.1-.05-.02-.15.07-.21.05-.03.1-.05.11-.12.02-.04.26-.1.16-.16,0-.1.29-.2.41-.2.08-.14.27-.23.45-.2.19-.11.4-.39.63-.21.55-.46,1.19-.67,1.87-.9.3-.11.59-.34.92-.33.2-.23.57-.06.8-.22,1.46-.63,2.96-1.01,4.39-1.66.32-.14.7-.13,1.05-.12.14-.03.28-.03.43-.09.04-.04.14.03.08.07.05,0,.11-.03.16-.01.12.03.21-.11.33-.13.05-.05.22.04.21-.08.19,0,.4.07.58,0,.21-.07.41-.04.41-.29-.05,0-.05-.11-.04-.14-.09-.07.07-.06.09-.08.07.05.12-.02.18-.04,0-.14-.06-.38-.04-.55.07,0,.05-.05.09-.11.09-.02.03-.06-.03-.08-.1-.04-.3-.08-.28-.2.11-.04,0-.17.12-.2.05-.11-.06-.18-.16-.17-.02-.14.17-.11.15-.22.11-.1-.14-.26-.13-.41-.24-.32.31-.25.46-.34.2-.18.32-.49.49-.74.15-.24.5-.31.43-.66-.07-.17.11-.18.2-.26.04-.17-.05-.41-.03-.61.07-.13-.09-.17-.15-.26-.07-.22.19-.36.36-.43.17-.02.26-.18.33-.32.17-.04.33-.11.47-.18.06-.02.18.05.16-.07.07-.3-.24-1.08.37-.65.12.03.24,0,.3-.13.22.05.39.1.61.09.15.05.25-.17.38-.2.24,0,.45.02.7-.07.11.06.1.27.25.33.15-.03.38.09.5.17.08-.1.23.02.3-.07.14-.23.24-.51.49-.61.13-.04.25-.06.36-.13.18,0,.32.04.5-.07.15-.01.3.05.42.12.12-.04.16-.14.29-.18.17-.22.5-.14.65-.38.11-.03.27,0,.4-.05.09.04.17-.1.3-.05.03-.25.34-.19.51-.25.23-.27.63-.19.96-.28.04-.04.01-.1-.01-.14-.1-.21.18-.16.26-.24.2-.1.41-.14.61-.24.08-.28.4-.27.58-.4.07-.14-.09-.39.16-.43.14-.03.38-.12.32-.29-.2-.08-.34-.3-.47-.43.14-.23.29-.44.49-.59.05-.27.31-.45.45-.71-.04-.17-.08-.27-.15-.4.02-.16-.13-.27-.11-.42,0-.15.06-.3.08-.46.06-.07.28-.35.16-.29-.15,0-.21-.21-.33-.25-.11.02-.21-.01-.14-.13-.03-.06-.12-.13-.09-.22-.02-.07-.1-.02-.14-.07,0-.09-.08-.16-.05-.24.2-.04.03-.23.08-.34-.03-.24.18-.27.32-.4.07.08.12.12.22.12.09-.04.05-.12.08-.2-.02-.08.09-.16.13-.25.13.02.17.14.3.07.13.03.17-.05.26-.14.02-.14.22,0,.25-.11.06-.05.05-.17.09-.24.1-.06.25-.12.24-.29.12-.13-.06-.25-.03-.37-.08-.21.27-.44.33-.18.11.1.19-.26.29-.09.02-.01.05-.02.04-.05-.06-.18.15.06.17.07.15-.21.59-.05.78-.29.11.06.08.21.21.24.11-.02.18-.13.25-.21.12-.01.25.1.34,0,.03-.14.16-.27.2-.41-.01-.14.14,0,.22-.05.09.02.05-.11.13-.13.07-.13.13-.26.21-.38.01-.06.09-.08.14-.07.03-.06.06-.12.12-.14.13-.11.41-.02.49.14,0,.1.09,0,.13-.03,0-.06-.03-.15.03-.2.16-.29.07-.61.17-.92.11-.09.32-.14.47-.16.11.09.31.15.45.08.14-.11.05-.3.07-.47-.09-.24.03-.42-.03-.65-.03-.13-.17-.25-.18-.38.08-.16-.15-.36.03-.45.09-.18.29-.05.41-.21.01-.16-.11-.24-.22-.32.04-.08-.02-.12-.08-.14-.04,0-.03-.14-.05-.18-.04-.05,0-.1.03-.13-.01-.07-.18-.08-.11-.17.09-.06.16-.16.09-.26.05-.09.05-.3-.03-.37-.11-.06.05-.11.03-.2-.08-.14-.28-.4-.25-.55.13-.21.27-.56.55-.46.07-.18.28-.19.41-.29.03-.13.23-.11.32-.21.28-.23.69-.34.88-.53.05-.03.11.06.16.11.06.06.14-.05.2-.04.05-.04.08-.12.08-.16.19.04.17-.27.37-.29.09.02.12-.09.17-.12.08.05.17-.07.25-.04.06,0,.06-.07.03-.11.06-.02.05-.08.07-.13-.05-.15.15-.22.25-.22,0,.06.13.16.17.07.04,0,.1-.02.08-.07.09-.18.45-.09.58-.22.19-.22.34-.52.53-.69.42-.32.82-.6,1.29-.87.05-.09.13-.14.09-.25.15-.16.49-.28.7-.43.53-.31.96-.82,1.41-1.04,0,.04.03.12.05.09.05-.06.1-.05.14-.01.1-.1.16-.23.32-.26.04.08.11-.05.12,0,.11.03.23,0,.3-.11-.18-.13-.03-.33.11-.36.07-.01.14-.11.21-.05.06.02.09.22.18.13.03-.08.17-.11.2-.2.07-.12.21-.13.33-.25.05-.14.03-.27.21-.33.15-.07.29-.19.43-.22.07.31.41.05.45-.12.01-.05.03-.06-.03-.08.06-.08.18-.1.29-.13.14-.09.4-.28.55-.22.07.06.09-.1.13-.05.14.07.18-.08.24-.16.07,0,.15-.04.2.01.08.01.08-.06.13-.09-.01-.07.15-.07.17-.13.02-.1.12-.13.2-.17.09-.04.15.03.24.04.04-.02.04-.07.04-.12.04-.04.14-.07.13-.13.09-.04.19.03.28,0,.43.03.79-.4,1.15-.46.24.06.4-.21.59-.16.29-.15.58-.32.94-.33.19.02.31-.07.46-.16.07-.04.22-.03.28-.14.24-.04.48-.07.7-.21.06-.07.13-.06.09-.17-.05.01.04-.08-.03-.09,0-.12.16-.08.22-.13.29-.04-.08-.39.07-.51.05.03.08,0,.13,0,.03.06.09.09.17.09.04-.03.01-.06.01-.11.05-.06.13.03.18-.03.1-.07.29-.12.41-.12.03-.14.17-.17.24-.26,1.29-2.12,4.2-4.16,6.01-6.17,3.58-3.51,7.59-7.03,10.82-10.75-.24-.32-.6-.15-.8.12ZM311,92.94c.64,2.65,1.74,4.95,3.3,6.9,1.56,1.95,3.56,3.47,5.99,4.55,2.43,1.09,5.24,1.63,8.43,1.63s6.13-.37,8.62-1.1c2.49-.73,4.47-1.48,5.94-2.25l1.53-11.02h-12.17l2.01-13.79h26.53l-4.98,35.44c-4.79,2.3-9.64,3.96-14.56,4.98-4.92,1.02-9.87,1.53-14.85,1.53-5.3,0-10.07-.83-14.32-2.49-4.25-1.66-7.78-4.04-10.58-7.14-2.81-3.1-4.82-6.85-6.03-11.26-1.21-4.41-1.44-9.32-.67-14.75.77-5.43,2.38-10.35,4.84-14.75,2.46-4.41,5.52-8.16,9.2-11.26,3.67-3.1,7.87-5.48,12.6-7.14,4.73-1.66,9.74-2.49,15.04-2.49s10.33.66,14.7,1.96c4.37,1.31,8.06,3.56,11.06,6.75l-12.17,11.5c-1.72-2.11-3.8-3.7-6.23-4.79-2.43-1.09-5.56-1.63-9.39-1.63-3.19,0-6.16.54-8.91,1.63-2.75,1.09-5.17,2.6-7.28,4.55-2.11,1.95-3.85,4.26-5.22,6.94-1.37,2.68-2.28,5.59-2.73,8.72-.45,3.19-.35,6.12.29,8.76Z"/>
        <path class="st0" d="M255.83,103.24c3.07-.7,5.8-1.87,8.19-3.5,2.39-1.63,4.39-3.77,5.99-6.42,1.6-2.65,2.68-5.89,3.26-9.72.45-3.32.24-6.21-.62-8.67-.86-2.46-2.25-4.49-4.17-6.08-1.92-1.6-4.23-2.79-6.94-3.59-2.72-.8-5.64-1.2-8.76-1.2h-8.81l-5.65,40.23h7.76c3.45,0,6.71-.35,9.77-1.05Z"/>
        <path class="st2" d="M245.86,118.09c5.04,0,9.98-.73,14.8-2.2,4.82-1.47,9.18-3.62,13.08-6.47,3.89-2.84,7.17-6.35,9.82-10.54,2.65-4.18,4.36-9.02,5.12-14.51.83-6.19.49-11.46-1.01-15.81-1.5-4.34-3.9-7.87-7.18-10.59-3.29-2.71-7.28-4.68-11.97-5.89-4.69-1.21-9.76-1.82-15.18-1.82h-13.29c-.61,1.25-.29,2.77-.86,4.05-.34.97-.93,1.96-1.65,2.67-.98.62-1.97,1.26-2.94,1.86-.45.1-.92-.24-1.16-.53-.16-.02.03-.18-.03-.26-.1-.11-.25-.18-.32-.3.08.07.07,0,.01-.03-.21-.03-.43-.19-.66-.17-.67.27-1.5.22-2.07.7-.91,1.59-.1,2.21-1.05,3.35l-7.9,56.48h24.43ZM243.95,64.06h8.81c3.13,0,6.05.4,8.76,1.2,2.71.8,5.03,2,6.94,3.59,1.92,1.6,3.3,3.63,4.17,6.08.86,2.46,1.07,5.35.62,8.67-.57,3.83-1.66,7.07-3.26,9.72-1.6,2.65-3.59,4.79-5.99,6.42-2.39,1.63-5.12,2.79-8.19,3.5-3.07.7-6.32,1.05-9.77,1.05h-7.76l5.65-40.23Z"/>
        <path class="st2" d="M313.44,75.46c1.37-2.68,3.11-5,5.22-6.94,2.11-1.95,4.53-3.46,7.28-4.55,2.74-1.09,5.71-1.63,8.91-1.63,3.83,0,6.96.54,9.39,1.63,2.43,1.09,4.5,2.68,6.23,4.79l12.17-11.5c-3-3.19-6.69-5.44-11.06-6.75-4.37-1.31-9.28-1.96-14.7-1.96s-10.31.83-15.04,2.49c-4.73,1.66-8.92,4.04-12.6,7.14-3.67,3.1-6.74,6.85-9.2,11.26-2.46,4.41-4.07,9.32-4.84,14.75-.77,5.43-.54,10.35.67,14.75,1.21,4.41,3.22,8.16,6.03,11.26,2.81,3.1,6.34,5.48,10.58,7.14,4.25,1.66,9.02,2.49,14.32,2.49,4.98,0,9.93-.51,14.85-1.53,4.92-1.02,9.77-2.68,14.56-4.98l4.98-35.44h-26.53l-2.01,13.79h12.17l-1.53,11.02c-1.47.77-3.45,1.52-5.94,2.25-2.49.73-5.36,1.1-8.62,1.1s-6-.54-8.43-1.63c-2.43-1.09-4.42-2.6-5.99-4.55-1.57-1.95-2.67-4.25-3.3-6.9-.64-2.65-.73-5.57-.29-8.76.45-3.13,1.36-6.03,2.73-8.72Z"/>
        <path class="st2" d="M368.48,118.09h14.94l7.37-52.71c-.07-.07-.13-.14-.21-.18-.48-.63.26-1-.69-1.42-.68-1.08-1.41.28-1.34-1.16-.12-.23-.51-.16-.72-.29-.31-.52-.08-1.23-.53-1.73-.09-.51.65-.4.95-.37.41.28.79-.2.8-.61.09-.42.34-.85.38-1.26,0-.38.04-.86-.07-1.2-.65-.16-.81-.95-.55-1.49.12-.64.86.05,1.25-.3.34-.62.58-1.51.16-2.11-.15-.31,0-.71-.28-.95-.1-.5.56-.89.47-1.37-.13-.22-.18-.47-.31-.68h-12.16l-9.48,67.82Z"/>
      </g>
      <g>
        <path class="st1" d="M48.65,165.62c-.13-1.28-.57-2.47-2.03-2.52-.96-.13-1.47-.75-2.48.01-1.48,1.06-.46,3.09.4,4.24.03.94,2.5.58,3.04.7.52-.72,1.11-1.5,1.07-2.44Z"/>
        <path class="st1" d="M422.89,97.73c-.24-.32-.6-.15-.8.12-.51-.11-.35.1-.62.3-.24.04-.08-.18-.16-.3-.21-.12-.21.23-.32.32-.05.11-.09.23-.2.3-.13.08-.24,0-.4,0-.07-.12-.04-.31-.16-.41-.18-.05-.23.11-.36.18-.17.08-.24-.06-.36-.17-.06-.06-.2-.04-.24-.13-.05-.08-.03-.21-.11-.29-.08-.06-.17-.01-.25.03-.15.29.21.58.14.86-.01.13-.04.29-.13.37-.17.06-.22-.17-.17-.29,0-.17-.18-.19-.3-.21-.2-.08-.31.14-.49,0-.17-.09.05-.26,0-.38-.13-.2-.27-.37-.45-.51-.06-.47-.51-.1-.82-.24-.16.07-.37.11-.54.22-.16.05-.4,0-.25-.18.18-.1.05-.36-.12-.22-.21.12-.42-.02-.61.11-.11.11-.11.25-.16.38-.06.13-.29.09-.41.07-.18-.02-.35-.34-.18-.47.04-.35-.41-.28-.58-.43-.03-.54.92-.1.97-.65-.11-.36-.18-1.05-.68-1.08-.32-.19-.4.31-.67.22-.86.09.24-1.56-.76-.99-.2.03-.26-.26-.2-.4.04-.19.36-.35.08-.46-.19-.09-.31.2-.49.24-.06-.07-.15-.16-.24-.2-.36-.37.31-.46.41-.72.01-.22-.46-.42-.24-.7.3-.39-.47-.37-.62-.14-.18.09-.11.29-.01.4.17.1.12.35.17.51.01.12.1.29-.07.36-.23.14-.46-.04-.69-.04-.1.26-.37.15-.62.18-.08-.03-.09-.08-.01-.12-.1-.14-.22-.28-.3-.43.03-.18.33-.48-.01-.55-.44.01-.16-.52-.43-.66-.08-.08-.2-.04-.26-.08-.08-.14-.18-.27-.36-.36-.33.01-.44.37-.72.34-.22.06-.34-.16-.49-.24-.15-.1-.33-.09-.43-.25-.05-.2-.2-.22-.32-.34-.04-.1-.12-.23-.18-.3-.17-.02-.09.18-.14.26-.04.08-.04.17-.11.24-.08-.04-.2-.03-.3-.09-.07-.11-.04-.31-.05-.49-.14-.12-.37.3-.5.11-.03-.28.63-.56.3-.72-.15-.14-.28-.31-.25-.53.11-.12.33-.17.28-.36-.07-.34-.52-.16-.61-.43-.03-.1-.03-.19-.13-.22-.05-.2-.02-.44-.28-.47-.13-.23-.13-.55-.2-.8-.11-.09-.27-.07-.4-.13-.14-.08-.25-.19-.37-.32-.07-.28.38-.54.59-.66-.24-.72.65-.44.42-.82-.32-.23-.5.16-.82.17-.82-.31.18-.41.24-.71-.05-.2-.29-.17-.42-.07-.14.13-.47,0-.41-.22.08-.37-.15-.54-.5-.49-.1-.12-.2-.35-.36-.4-.56.08-.43-.5-.92-.49-.33.06-.16-.32-.3-.47-.06-.19-.27-.34-.38-.51-.2.06-.28.42-.43.58-.4.25-.33-.31-.22-.53.15-.22.03-.53-.03-.74-.14-.14-.34-.23-.47-.38-.18-.34-.1-.58-.58-.58-.08-.19.24-.44.22-.66-.16-.08-.41-.12-.5-.29,0-.39.83-.09.82-.45-.09-.13-.3,0-.43-.08-.3-.21-.06-.68-.22-.95-.11-.14-.31-.15-.47-.2-.27-.13-.26-.53-.46-.72-.16-.08-.39-.12-.51-.25-.11-.25-.34-.26-.58-.26-.11-.1-.1-.42-.33-.33-.29.2.07.76-.24,1-.2.01-.31-.26-.17-.42.05-.23-.1-.48-.32-.57-.87-.14-.16-.34-.03-.65-.4-.26-.82.23-1.12-.43-.04-.47.65.05.65-.36-.16-.08-.62-.22-.4-.47.21-.06.48.19.63-.07.21-.26.54-.54.55-.86-.18-.13-.59-.03-.67-.26-.2-.79.64-.34.86-.66.18-.21.23-.69-.17-.7-.26-.15-.51.3-.7.13-.31-.62.14-1.03-.86-.86-.14-.03-.3-.2-.45-.12-.12.17-.42.17-.47-.01.01-.1.26-.19.16-.32-.04-.03-.14,0-.17-.07-.1-.11-.17-.29-.25-.42-.28-.61.09-.63-.61-1.04-.26-.23-.19-.53-.16-.82-.3-.18-.42-.53-.41-.86-.28-.14-.22-.39-.28-.63-.09-.14-.25-.11-.4-.14-.18-.06-.28-.33-.38-.49-.07-.13-.26-.05-.37-.07-.19-.08-.33-.36-.53-.46-.48-.63.26-1-.69-1.42-.68-1.08-1.41.28-1.34-1.16-.12-.23-.51-.16-.72-.29-.31-.52-.08-1.23-.53-1.73-.09-.51.65-.4.95-.37.41.28.79-.2.8-.61.09-.42.34-.85.38-1.26,0-.38.04-.86-.07-1.2-.65-.16-.81-.95-.55-1.49.12-.64.86.05,1.25-.3.34-.62.58-1.51.16-2.11-.15-.31,0-.71-.28-.95-.1-.5.56-.89.47-1.37-.21-.34-.22-.79-.65-.97-.2-.24-.26-.55-.62-.57-.22-.41-.17-1.01-.12-1.48.13-.34.3-.7.04-1.03-.08-.17-.24-.31-.24-.5-.05-.21.23-.34.22-.51-.09-.47-.3-.98-.01-1.42-.22-.24-.25-.57-.37-.86-.23-.89-.15-2.05-1.05-2.56-.5-.24-1.06-.4-1.5-.76-.57-.41-.96-1.05-1.45-1.57-.33-.47-.5-1.05-.94-1.42-.43-.45-1.13-.6-1.58-1.04-.62-.08-1.47-.04-2.13-.03-.54.15-1.1.1-1.61-.16-2.49-1.25-2.77-2.26-2.96-4.94-.03-.39-.15-1.35-.54-1.8-.47-.44-.68-.96-.54-1.58.13-1.02.52-2.21-.21-3.08-.06-.2-.29-.05-.4-.21.11-.11-.09-.17-.18-.17-.29-.08-.53.06-.78.14-1.09.29-2.15.85-2.92,1.63-.06.08-.16.11-.24.2-.04-.01.06-.08.01-.09-.2.18-.44.2-.7.17-.51-.18-1.32-.26-1.48-.09-.18.09-.38-.02-.57.12-.31.18-.43.54-.57.86-.14.51-.46,1.06-.88,1.38-.57.64-1.52.78-2.27,1.16-1.1.75-.64,2.37-1.66,3.23-.48.26-.9.41-1.46.38-.58.04-1.22.42-1.8.18-.59-.3-1.62-1-2.14-.29-.15.14-.47.05-.6.25-.14.17-.11.37-.28.51-.26.31-.49.65-.79.94-.29.19-.62.05-.9-.09-.83-.47-.62-1.19-.84-1.9-.35-.65-1.2-1.05-1.88-1.45-1.03-.6-2.49-.5-3.29-.71-.77.15-1.36-.27-2.07-.33-.3-.21-.49-.53-.78-.75-1.29-1.23-2.71-.93-4.16-.17-.51.21-1.19.2-1.58.62-.36-.08-.73.04-1.03.26-1.69.99.46,5.06-3.95,2.7-.28-.01-.52-.15-.72-.37-.44-.15-.98-.02-1.44-.16-1.67.04-1.33-1.81-1.86-2.89-.47-.69-1.42-.45-2.06-.87-1.36-.58-.57-2.12-1.82-2.82-.73-.41-1.55-.45-2.37-.62-.22-.08-.48.03-.69-.09-.07,0-.35-.04-.24-.13.24-.05-.15-.1-.2-.18-.23-.14-.42-.37-.67-.46-.5-.24-1.05-.17-1.58-.17-.71.34-1.48.51-2.2.84-1.92.8-3.8.07-5.43-.7-1.12-.43-2.35-.47-3.5-.72-2.49-1.04-.76-4.26-1.9-6.01-.74-1.38-1.97-2.48-2.71-3.87-.45-1.76-.24-2.96-2.07-4.19-2.89-1.86-4.97.76-5.08-3.54.23-1.01-.99-2.42-2.03-1.82-.71.4-.8,1.47-1.66,1.69-.33.1-.71.2-.99-.05-1.58-1.03-1.01,1-3.07,1.19-.52.46-1.24.26-1.83.09-.47-.4-.83-1.03-1.46-1.23-1.65.23-1.93-1.71-2.98-2.57-1.77-1.36-2.23.38-3.21,1.61-3.35,1.08-2.24,1.96-4.43,2.91-.46.22-1.07.84-.55,1.3.2.59.63.92,1.04,1.28.42.58,1.05,1.16,1.24,1.86.47.44.87,1.05.91,1.71.05.83-.75,1.12-1.12,1.73-.77.83-1.72,1.61-.72,2.69.77.33,1.94.05,2.7.24.7.16,1.76.66,1.45,1.55-.2,1.18-1.63,1.42-2.07,2.44-.17.77.58,1.28.8,1.95.84,2.5-3.18-.28-4.19.65-2.1,1.42-1.94.94-4.14.84-.59.03-.91.57-1.37.87-.62.39-1.38.61-1.88,1.16-.83.32-1.53.86-2.24,1.36-.41.17-.62.77-1.09,1.03-1.37,1.6-3.97,2.2-5.2.25-.47-.59-.56-1.3-1.38-1.7-1.2-.62-2.91-.3-3.9.16-2.51.97-3.1-.94-4.94.53-.57,1.03-.9,1.26-.94,2.46-.02.59.59.94.76,1.48.4,1.01.04,2.23.16,3.32.07,1.3,1.38,2.27,1.24,3.62.23,1.69-1.56,2.04-2.61,2.81-.6.74-.53,1.85-1.32,2.5-2.72,2.02-5.17-.3-6.35,4.11-.65,1.27-.31,2.82-.9,4.12-.34.97-.93,1.96-1.65,2.67-.98.62-1.97,1.26-2.94,1.86-.45.1-.92-.24-1.16-.53-.16-.02.03-.18-.03-.26-.1-.11-.25-.18-.32-.3.08.07.07,0,.01-.03-.21-.03-.43-.19-.66-.17-.67.27-1.5.22-2.07.7-1.14,2,.44,2.46-2.2,4.36-2.21,1.98-1.69,4.37-1.44,6.98.04.99-.55,1.42-.57,2.24-.15.97.02,2.13-.75,2.87-.26.19-.45.57-.78.63-.48.02-.96.25-1.44.12-.95.36-2.62.08-2.85,1.3.45,2.93-1.45.99-1.88-.45-.13-.76-1.59-1.69-2.94-1.57-.74-.06-1.37.53-2.11.4-1.01-.48-2.11-.93-2.89-1.74-.3-.35-1.18-.55-1.55-1.03-.82-1.01-.86-2.64-.49-3.85.51-1.19-.32-2.49-1.36-3.11-1.16-.33-1.72-1.58-2.81-1.99-1.2-.07-1.4,1.95-.38,2.33,1.01.21,2.93.19,1.92,1.71-.77,1.05-2.42-.49-3.07.75-.25.36-.07,1-.61,1.12-.58-.37-.92-1.24-1.66-1.4-.96-.33-1.94.79-1.36,1.69.33.67,1.54.39,1.63,1.24-.23,3.16-3.55,1.47-4.51,2.6-.34,1.35-.09,2.83-.14,4.22,0,1.61,2.26,2.42-.29,3.33-1.03.3-2.28-.93-3.07.07-.83.99.27,2.49-.43,3.49-.66.91-3.46,2.22-2.9-.11.06-.88,1.57-2.3.46-3-.56-.11-1.13-.41-1.66-.14-.37.33-.75.63-1.13.95-.29.13-.51.49-.84.3-.77-.12-1.12-1.09-1.52-1.69-.33-.52-.66-1.11-.88-1.69-.16-.16-.28-.35-.3-.57,0,0,.12.1.07,0-.39-.61-.55-1.34-.83-2.02-.33-.12-.88-.74-1.33-.62-.56.34-1.28.46-1.82.86-.52.57-1.16,1.06-1.54,1.74-1.02,1.6-2.6,1.51-4.02,1.58-1.14.39-2.34.89-3.21,1.75-.49.42-.54,1.04-.32,1.61.16.65-.33,1.23-.38,1.84-.17.69-.22,1.48-.66,2.04-.15,1.36-1.97,2.62-3.21,1.84-.39-.35-.25-.94-.43-1.4-.2-.5-.48-.98-.76-1.44-.1-.28-.37-.47-.62-.62-.18-.09-.47.1-.66.01-.8-.12-1.65-.18-2.32-.67-1.85-1.07-3.18-3.01-5.31-3.52-.42.11-.77-.37-1.04-.63-.07-.19-.36-.08-.45-.25-.21-.18-.48-.53-.47-.62-1-.6-2.19-1-3.35-.71-.92.18-1.62.96-2.29,1.57-.4.27-.69.8-1.2.71-.95-.84-2.4-1.03-2.9-2.36-.11-.12-.08-.38-.17-.47-.07-.02-.17-.02-.09-.11.26-.51,0-1.21-.54-1.38-1.32-.15-.43,1.71-1.42,2.13-.09.06-.34.29-.29.29.11-.09.24-.17.18.03-.05.16-.18.28-.2.45,0,.12-.23.27-.26.09.02-.32-.15.17-.05.28.05.32.24.58.3.86.33.52,1,.77,1.42,1.23.1.52.19,1.14.2,1.69-.26.7-.76,1.42-1.34,1.91-.94.31-2.09.62-2.94.03-.53-.75-.38-1.76.18-2.46.73-.7.39-2.15-.7-2.04-.51.21-.97.55-1.53.63-.43.14-.84-.22-1.26-.09-2.58.45-1.18,1.53-4.04,1.09-.31,0-.67-.1-.84-.4.07-.23-.14-.44-.2-.65-.18-.22-.54-.33-.63-.62-.07-.25-.18-.56-.34-.78-.39-.54-1.09-.98-1.77-.74-.72.47-1.05,1.36-1.66,1.95-.69.71-.22,1.76.4,2.37.58.35.82.91.9,1.5.04.54.36,1.17-.04,1.65-.36.32-.98.31-1.33.65-.08.12.07.27-.07.38-.27.27-.28.69-.49,1-.62.51-1.16-.54-1.54-.91-.38-.2-.79-.45-1.16-.67-.61-.28-1.49-.29-1.78.45-.32,1.5-.76,3.33-2.41,3.83-.33.19-.65.43-.91.71-.41.21-.93.27-1.17.71-.14.32-.41.59-.46.94-.33.27-.6.57-.82.94-.72,1-.49,2.37-.07,3.43.13.46.43.89.51,1.36-.04.57.1,1.12.38,1.61.59.42,1.27.92,1.62,1.58.16.29.32.69.61.88.26.15.68.18.84.5.4.74.59,1.68.16,2.44-.04.13-.15.19-.28.12-.14.08-.08.33-.26.42-.12.29-.44.7-.72.34-.29-.04-.6.04-.9.05-.45.03-.92.11-1.37.05-.56.19-1.15.3-1.74.36-.9.3-2.05.41-3.06.49-1.25-.03-2.59.1-3.69.83-.49.33-1,.62-1.38,1.07-.5.54-.86,1.3-1.61,1.45-.29,0-.4-.28-.51-.5-.19-.16-.36-.35-.58-.47-.46-.48-1.2-.67-1.75-.24-1.03.15-1.97.86-2.5,1.75-.35.92-.42,1.95-.58,2.9-.31.79-.77,1.54-1.07,2.35-.37.57-.7,1.32-.38,1.82.27.13.11.87.37.82.16.05-.09.12-.12.17-.04-.04-.07.02-.12.01-.04-.03-.07-.11-.13-.11-.01.2.22.2.33.33.24.45.73.63.99,1.07.18.5.31,1.06.72,1.44.32.19.62.35.84.65.51.51.45,1.32.76,1.92.12.34.11.71.24,1.03.14.21.33.37.38.62-.18.55-.38,1.11-.58,1.66-.21.31-.47.86-.34,1.05.17-.2.02.16,0,.22,0,.13-.16.23-.18.34.08.05.05.16.04.24-.12.33-.35.61-.57.9-.04.19-.19.42-.4.47-.41.11-.8.41-1.21.29-.51.02-.92.22-1.45.14-.8-.07-1.61-.4-2.32-.76-.04,0-.11-.03-.14-.04,0,.05.08.08.05.13-.03.08-.17-.07-.2-.11-.42-.24-.15-.79-.59-1.04-.82-.66-1.56-1.61-2.65-1.75-1.02-.22-1.92-.98-2.92-1.32-.19-.02-.35-.12-.53-.11.09.07-.08.08-.13.08-.05-.17-.36.04-.5.03-.28.02-.55-.09-.79-.22-.76-.51-1.51-1.05-2.19-1.66-.53-.5-.97-1.16-1.77-1.26-1.95-.8-3.8-1.83-5.85-2.45-.12,0-.44-.1-.54-.08.1.11.4.1.47.22-.4.08-.83.03-1.23-.05-.27.05-.51-.18-.75-.18-.08-.07.37-.04.3-.11-.16.05-.54-.08-.58.16-.12.12-.56.27-.45.16.16-.01.27-.06.4-.14.05-.05.17-.2.01-.12-.41.05-.79.14-1.15.29-.09.05-.43.24-.26.18.09-.04-.22.2-.32.28-1.28.36-1.98,1.5-2.99,2.33-.76.58-1.19,1.45-1.42,2.35-.33.49-.37,1.09-.84,1.5.05-.09.09-.21.14-.29.07-.04.16-.08.17-.16-.06.03-.1.08-.16.11-.33.4-.67.82-1.13,1.07-.16.18-.16.51-.38.59-.98.36-2.25,2.22-2.05,3.79,0,1.14.82,2.01,1.66,2.69.44.49.69.44,1.26.47,1.67.58,1.02,2.45.62,3.64-.23,1.44-.82,2.81-1.3,4.16-.09.31-.4.84-.8.63-.15,0-.41,0-.45.18-.14.14-.37.07-.55.07-.16.05-.33.17-.41.3-.3.27-.15.98-.21,1.37-.09.72.6,1.62,1.34,1.73.68.02,1.48-.07,1.67.75.13.53,0,1.2-.45,1.57-.06-.03-.53.06-.55-.05-.16-.11-.28-.22-.49-.24-.35.04-.75-.06-1.05-.25-.78.14-1.41.78-1.63,1.53-.29.82.16,1.56.74,2.13.46.41.95.83.76,1.5-.02.1-.17.21-.17.29.11-.02.7.34.57.43-.32.46-.67.9-1.13,1.21-1.17.83-.88,2.49-1.48,3.65-.46,1.2-2.32,1.8-3.21.8-.68-.81-1.33-1.77-1.79-2.73-.3-.53-.64-1.26-1.37-1.09-.79.1-1.7.36-1.98,1.19-.17,1.06-.36,2.12-.94,3.04-.3,1.36-.8,2.69-1.29,4.01,2.39.11,6.01-.6,8.43-.24,16.87.78,33.8.85,50.67,1.3,3.15.06,6.45.16,9.59.29.22-.34.66-.54.76-.95.02-.53.2-1.01.3-1.53-.15-1.74-.4-3.55-.9-5.23-.21-.45-.16-.97-.34-1.42-.45-.96-1.29-2.55.5-2.15,2.99.03,6.5.8,9.49.95,1.69-.04-1.22,2.51,1.42,1.9,11.65-.24,23.61-.34,35.27-.33,8.43-.14,16.94-.36,25.37-.62,2.05-.8,3.3,2.26,3.77.41.45.52,1.87-.64,2.63-.47,13,.14,26.09,1.67,39.1,1.65,12.73.72,25.4-1.74,38.13-.3,19.52,1.31,39.21.06,58.76.28,1.04.23,4.34-.12,5.31-.17.12-.51.69-.67.68-1.23.1-.12.29-.16.45-.18.14-.08.23-.22.34-.34.11-.12.27-.14.34-.32-.02-.07.09-.06.12-.04,0-.12.04-.17.04-.28.03,0,0-.06,0-.08,0-.12.12.02.13-.08,0-.06.1-.09.12-.03.05-.07.16-.05.24-.03.19.12.41,0,.62-.08.29-.08.47-.34.57-.58.02-.07.08-.07.14-.05.05-.04.07-.12.13-.14.22-.06.33,0,.55-.13.15-.11.46-.15.51-.28.04-.18.11.13.2.08.03.06.09-.02.14-.01.06-.06.2.09.2-.05.13-.16.36-.12.47-.3.19-.07.17-.29.38-.33.33-.12.73-.11.95-.41.2-.02.21-.21.4-.28.03-.12-.07-.16.07-.21.11-.03.27,0,.4-.08.12,0,.23-.19.34-.08.13-.05.17-.17.33-.08.31.04.67-.29.91-.01.58.21,1.18.16,1.77.16.36.02.64-.24.99-.12.74-.06,1.35-.41,1.99-.74.1-.05-.02-.15.07-.21.05-.03.1-.05.11-.12.02-.04.26-.1.16-.16,0-.1.29-.2.41-.2.08-.14.27-.23.45-.2.19-.11.4-.39.63-.21.54-.46,1.19-.67,1.87-.9.3-.11.59-.34.92-.33.2-.23.57-.06.8-.22,1.46-.63,2.96-1.01,4.39-1.66.32-.14.7-.13,1.05-.12.14-.03.28-.03.43-.09.04-.04.14.03.08.07.05,0,.11-.03.16-.01.12.03.21-.11.33-.13.05-.05.22.04.21-.08.19,0,.4.07.58,0,.21-.07.41-.04.41-.29-.05,0-.05-.11-.04-.14-.09-.07.07-.06.09-.08.07.05.12-.02.18-.04,0-.14-.06-.38-.04-.55.07,0,.05-.05.09-.11.09-.02.03-.06-.03-.08-.1-.04-.3-.08-.28-.2.11-.04,0-.17.12-.2.05-.11-.06-.18-.16-.17-.02-.14.17-.11.15-.22.11-.1-.14-.26-.13-.41-.24-.32.31-.25.46-.34.2-.18.32-.49.49-.74.15-.24.5-.31.43-.66-.07-.17.11-.18.2-.26.04-.17-.05-.41-.03-.61.07-.13-.09-.17-.15-.26-.07-.22.19-.36.36-.43.17-.02.26-.18.33-.32.17-.04.33-.11.47-.18.06-.02.18.05.16-.07.07-.3-.24-1.08.37-.65.12.03.24,0,.3-.13.22.05.39.1.61.09.15.05.25-.17.38-.2.24,0,.45.02.7-.07.11.06.1.27.25.33.15-.03.38.09.5.17.08-.1.23.02.3-.07.14-.23.24-.51.49-.61.13-.04.25-.06.36-.13.18,0,.32.04.5-.07.15-.01.3.05.42.12.12-.04.16-.14.29-.18.17-.22.5-.14.65-.38.11-.03.27,0,.4-.05.09.04.17-.1.3-.05.03-.25.34-.19.51-.25.23-.27.63-.19.96-.28.04-.04.01-.1-.01-.14-.1-.21.18-.16.26-.24.2-.1.41-.14.61-.24.08-.28.4-.27.58-.4.07-.14-.09-.39.16-.43.14-.03.38-.12.32-.29-.2-.08-.34-.3-.47-.43.14-.23.29-.44.49-.59.05-.27.31-.45.45-.71-.04-.17-.08-.27-.15-.4.02-.16-.13-.27-.11-.42,0-.15.06-.3.08-.46.06-.07.28-.35.16-.29-.15,0-.21-.21-.33-.25-.11.02-.21-.01-.14-.13-.03-.06-.12-.13-.09-.22-.02-.07-.1-.02-.14-.07,0-.09-.08-.16-.05-.24.2-.04.03-.23.08-.34-.03-.24.18-.27.32-.4.07.08.12.12.22.12.09-.04.05-.12.08-.2-.02-.08.09-.16.13-.25.13.02.17.14.3.07.13.03.17-.05.26-.14.02-.14.22,0,.25-.11.06-.05.05-.17.09-.24.1-.06.25-.12.24-.29.12-.13-.06-.25-.03-.37-.08-.21.27-.44.33-.18.11.1.19-.26.29-.09.02-.01.05-.02.04-.05-.06-.18.15.06.17.07.15-.21.59-.05.78-.29.11.06.08.21.21.24.11-.02.18-.13.25-.21.12-.01.25.1.34,0,.03-.14.16-.27.2-.41-.01-.14.14,0,.22-.05.09.02.05-.11.13-.13.07-.13.13-.26.21-.38.01-.06.09-.08.14-.07.03-.06.06-.12.12-.14.13-.11.41-.02.49.14,0,.1.09,0,.13-.03,0-.06-.03-.15.03-.2.16-.29.07-.61.17-.92.11-.09.32-.14.47-.16.11.09.31.15.45.08.14-.11.05-.3.07-.47-.08-.24.03-.42-.03-.65-.03-.13-.17-.25-.18-.38.08-.16-.15-.36.03-.45.09-.18.29-.05.41-.21.01-.16-.11-.24-.22-.32.05-.08-.02-.12-.08-.14-.04,0-.03-.14-.05-.18-.04-.05,0-.1.03-.13-.01-.07-.18-.08-.11-.17.09-.06.16-.16.09-.26.05-.09.05-.3-.03-.37-.11-.06.05-.11.03-.2-.08-.14-.28-.4-.25-.55.13-.21.27-.56.55-.46.07-.18.28-.19.41-.29.03-.13.23-.11.32-.21.28-.23.69-.34.88-.53.05-.03.11.06.16.11.06.06.14-.05.2-.04.05-.04.08-.12.08-.16.19.04.17-.27.37-.29.09.02.12-.09.17-.12.08.05.17-.07.25-.04.06,0,.06-.07.03-.11.06-.02.05-.08.07-.13-.05-.15.15-.22.25-.22,0,.06.13.16.17.07.04,0,.1-.02.08-.07.09-.18.45-.09.58-.22.19-.22.34-.52.53-.69.42-.32.82-.6,1.29-.87.05-.09.13-.14.09-.25.15-.16.49-.28.7-.43.53-.31.96-.82,1.41-1.04,0,.04.03.12.05.09.05-.06.1-.05.14-.01.1-.1.16-.23.32-.26.04.08.11-.05.12,0,.11.03.23,0,.3-.11-.18-.13-.03-.33.11-.36.07-.01.14-.11.21-.05.06.02.09.22.18.13.03-.08.17-.11.2-.2.07-.12.21-.13.33-.25.05-.14.03-.27.21-.33.15-.07.29-.19.43-.22.07.31.41.05.45-.12.01-.05.03-.06-.03-.08.06-.08.18-.1.29-.13.14-.09.4-.28.55-.22.07.06.09-.1.13-.05.14.07.18-.08.24-.16.07,0,.15-.04.2.01.08.01.08-.06.13-.09-.01-.07.15-.07.17-.13.02-.1.12-.13.2-.17.09-.04.15.03.24.04.04-.02.04-.07.04-.12.04-.04.14-.07.13-.13.09-.04.19.03.28,0,.43.03.79-.4,1.15-.46.24.06.4-.21.59-.16.29-.15.58-.32.94-.33.19.02.31-.07.46-.16.07-.04.22-.03.28-.14.24-.04.48-.07.7-.21.06-.07.13-.06.09-.17-.05.01.04-.08-.03-.09,0-.12.16-.08.22-.13.29-.04-.08-.39.07-.51.05.03.08,0,.13,0,.03.06.09.09.17.09.04-.03.01-.06.01-.11.05-.06.13.03.18-.03.1-.07.29-.12.41-.12.03-.14.17-.17.24-.26,1.29-2.12,4.2-4.16,6.01-6.17,3.58-3.51,7.59-7.03,10.82-10.75Z"/>
      </g>
    </g>
  </g>
</svg>