<?xml version="1.0" encoding="UTF-8"?>
<svg id="Layer_1" xmlns="http://www.w3.org/2000/svg" version="1.1" viewBox="0 0 734.89 210.03">
  <!-- Generator: Adobe Illustrator 30.1.0, SVG Export Plug-In . SVG Version: 2.1.1 Build 136)  -->
  <defs>
    <style>
      .st0 {
        fill: none;
      }

      .st1 {
        fill: #ebf9ff;
        stroke: #b0e7ff;
        stroke-linecap: round;
        stroke-linejoin: round;
        stroke-width: 2px;
      }

      .st2 {
        fill: #fff;
      }
    </style>
  </defs>
  <path class="st2" d="M261.66,205.72c-6.44.92-12.46.34-19.43.31l-44.5-62.1-.25,62.12-19.69-.09.06-93.04,20.42.04,42.87,59.44.47-59.29,19.88-.16.18,92.77Z"/>
  <path class="st2" d="M419.43,113.01l20.02.04-.32,61.01c-.08,15-9.91,27.26-24.04,31.41-11.68,3.43-23.55,3.47-35.24-.16-13.2-4.1-23.43-15.43-23.55-29.81l-.51-62.54h19.95s.37,57.85.37,57.85c.08,11.96,9.27,19.33,20.78,19.68,11.45.35,22.11-6.58,22.19-18.81l.37-58.65Z"/>
  <polygon class="st2" points="160.38 167.1 115.31 167.27 115.13 189 161.31 189.26 161.28 206.14 94.94 206.14 94.95 112.93 161.31 112.94 161.36 129.99 115.25 129.99 115.14 150.04 160.32 150.3 160.38 167.1"/>
  <path class="st2" d="M86.44,205.58c-8.3,1.32-15.69.23-23.94.56l-28.43-37.03c-2.93,3.16-5.23,5.71-7.48,8.79l-.08,28.16-19.52-.05.07-93.06,19.3-.02.5,41.2,33.06-41.22c8.21.23,15.7-.65,24.02.46l-36.55,43.22,39.04,49.01Z"/>
  <path class="st2" d="M631.77,205.62c-8.45,1.21-15.81.23-24.04.51l-28.45-37.02c-2.8,3.19-5.31,5.61-7.26,8.78l-.15,28.12h-19.66s.07-93.07.07-93.07l19.59.1.36,40.83,32.95-40.94,24.11.31-36.63,43.32,39.12,49.05Z"/>
  <path class="st2" d="M481.94,182.64c6.49,6.34,14.81,8.53,23.29,7.41,7.43-.98,14.68-5.62,18.9-13.38l16.86,8.43c-8.87,16.62-25.68,23.93-43.42,22.77-26.39-1.72-45.29-21.78-45.58-47.76-.3-27.24,19.96-48.14,47.59-48.89,17.14-.47,33.2,6.85,41.45,22.85l-16.75,8.28c-4.36-6.96-11.16-12.04-18.09-13.03-9.31-1.33-17.54.74-24.07,7-12.65,12.12-13.07,33.75-.18,46.32Z"/>
  <path class="st2" d="M725.98,113.2l-35.39,54.7-.08,38.03-20.05.14-.07-38.13-35.66-54.83,22.48-.13,23.24,37.1,22.98-37.02c7.55-.25,14.8-.48,22.56.14Z"/>
  <path class="st2" d="M397.89,100.69l-.29-81.16-33.14,79.99c-.5,1.21-1.37,1.43-2.26,1.47-1.16.05-1.77-.79-2.37-2.21l-33.07-79.35-.32,81.19c-2.77.64-4.98.71-7.95-.11V8.01c3.92-.64,7.45-.32,11.84-.19l31.98,76.94,31.76-76.9c4.34-.29,7.91-.39,12.08.14l.06,92.48c-2.45.74-4.62.79-8.34.22Z"/>
  <path class="st2" d="M318.7,205.83c-6.73.66-12.8.35-19.71.15l-.12-75.61-27.45-.26c-.33-5.68-.32-11.19.02-17.17l74.37-.07.19,17.24-27.23.2-.06,75.53Z"/>
  <path class="st2" d="M286.7,78.09l-49.91-.03-9.49,22.3c-1.87,1.16-5.68.93-8.67.03L256.51,7.93c3.59-.43,6.5-.41,10.22-.03l38,92.44c-2.85,1.14-5.99.93-9,.05l-9.03-22.3ZM284.02,70.53l-22.48-54.87-22.28,54.93,44.75-.06Z"/>
  <path class="st2" d="M205.3,56.94l-50.09.03v36.98s50.96.02,50.96.02c.68,2.48.71,4.37-.1,7l-58.92-.08.02-93.04,58.88-.19c.76,2.42.8,4.62.16,7.4l-50.99.02v34.4s49.87.11,49.87.11c.68,2.07.78,3.94.22,7.35Z"/>
  <path class="st2" d="M101.82,100.29c-2.69,1.34-5.08.89-8.03.2l-.06-85.28-30.16-.19c-.88-2.29-.55-4.66-.1-7.26l68.31-.08c.77,2.39.77,4.61.19,7.37l-30.2.05.05,85.19Z"/>
  <polygon class="st0" points="284.02 70.53 239.27 70.59 261.54 15.66 284.02 70.53"/>
  <path class="st1" d="M645.4,68.74c.75-1.24,2.45-2.43,3.51-3.6,2.09-2.05,4.43-4.11,6.32-6.28-.14-.19-.35-.08-.47.07-.3-.06-.2.06-.36.18-.14.03-.05-.11-.09-.18-.12-.07-.12.13-.18.18-.03.07-.05.14-.12.18-.08.05-.14,0-.23,0-.04-.07-.02-.18-.09-.24-.11-.03-.13.06-.21.11-.1.04-.14-.03-.21-.1-.04-.04-.12-.02-.14-.08-.03-.05-.02-.12-.06-.17-.05-.03-.1,0-.15.02-.09.17.12.34.08.5,0,.08-.02.17-.08.22-.1.03-.13-.1-.1-.17,0-.1-.1-.11-.18-.12-.11-.05-.18.08-.28,0-.1-.05.03-.15,0-.22-.07-.11-.16-.22-.26-.3-.03-.27-.3-.06-.48-.14-.09.04-.22.06-.32.13-.1.03-.24,0-.15-.11.1-.06.03-.21-.07-.13-.12.07-.25,0-.35.06-.06.06-.06.15-.09.22-.04.07-.17.05-.24.04-.11-.01-.21-.2-.11-.28.02-.21-.24-.16-.34-.25-.02-.32.54-.06.57-.38-.07-.21-.11-.62-.4-.63-.19-.11-.24.18-.39.13-.51.05.14-.91-.45-.58-.12.02-.15-.15-.12-.23.03-.11.21-.2.05-.27-.11-.06-.18.12-.28.14-.04-.04-.09-.09-.14-.12-.21-.22.18-.27.24-.42,0-.13-.27-.25-.14-.41.17-.23-.27-.21-.36-.08-.1.05-.06.17,0,.23.1.06.07.2.1.3,0,.07.06.17-.04.21-.14.08-.27-.02-.4-.02-.06.15-.22.09-.36.11-.05-.02-.05-.05,0-.07-.06-.08-.13-.16-.18-.25.02-.11.19-.28,0-.32-.25,0-.09-.3-.25-.38-.05-.05-.11-.02-.15-.05-.05-.08-.1-.16-.21-.21-.19,0-.26.22-.42.2-.13.04-.2-.09-.28-.14-.09-.06-.19-.05-.25-.15-.03-.11-.12-.13-.18-.2-.03-.06-.07-.13-.11-.18-.1-.01-.05.1-.08.15-.03.05-.03.1-.06.14-.05-.02-.12-.02-.18-.05-.04-.06-.02-.18-.03-.28-.08-.07-.21.17-.29.06-.02-.17.37-.33.18-.42-.09-.08-.16-.18-.15-.31.06-.07.19-.1.16-.21-.04-.2-.3-.09-.35-.25-.02-.06-.02-.11-.08-.13-.03-.12,0-.26-.16-.28-.08-.14-.08-.32-.12-.47-.07-.06-.16-.04-.23-.08-.08-.04-.15-.11-.22-.18-.04-.16.22-.32.35-.38-.14-.42.38-.26.25-.48-.19-.14-.29.09-.48.1-.48-.18.1-.24.14-.42-.03-.12-.17-.1-.25-.04-.08.08-.27,0-.24-.13.05-.22-.08-.31-.29-.28-.06-.07-.12-.21-.21-.23-.33.05-.25-.29-.54-.28-.19.03-.09-.19-.18-.28-.04-.11-.16-.2-.22-.3-.11.04-.16.25-.25.34-.24.14-.19-.18-.13-.31.09-.13.02-.31-.02-.43-.08-.08-.2-.13-.28-.22-.11-.2-.06-.34-.34-.34-.05-.11.14-.25.13-.38-.09-.05-.24-.07-.29-.17,0-.23.49-.05.48-.26-.05-.08-.17,0-.25-.05-.18-.12-.04-.39-.13-.55-.06-.08-.18-.09-.28-.12-.16-.08-.15-.31-.27-.42-.09-.05-.23-.07-.3-.15-.06-.15-.2-.15-.34-.15-.06-.06-.06-.25-.19-.19-.17.12.04.44-.14.58-.12,0-.18-.15-.1-.25.03-.13-.06-.28-.18-.33-.51-.08-.09-.2-.02-.38-.23-.15-.48.14-.65-.25-.02-.28.38.03.38-.21-.09-.05-.36-.13-.23-.28.13-.04.28.11.37-.04.12-.15.31-.32.32-.5-.11-.07-.34-.02-.39-.15-.12-.46.37-.2.5-.38.1-.12.13-.4-.1-.41-.15-.09-.3.18-.41.08-.18-.36.08-.6-.5-.5-.08-.02-.18-.12-.26-.07-.07.1-.25.1-.28,0,0-.06.15-.11.09-.18-.03-.02-.08,0-.1-.04-.06-.06-.1-.17-.15-.25-.16-.36.06-.37-.35-.61-.15-.14-.11-.31-.09-.48-.18-.11-.24-.31-.24-.5-.16-.08-.13-.23-.16-.37-.05-.08-.15-.07-.23-.08-.11-.03-.16-.19-.22-.28-.04-.07-.15-.03-.22-.04-.11-.05-.19-.21-.31-.27-.28-.37.15-.58-.4-.83-.4-.63-.82.16-.78-.68-.07-.13-.3-.09-.42-.17-.18-.3-.05-.72-.31-1.01-.05-.3.38-.23.55-.22.24.16.46-.12.47-.35.05-.24.2-.5.22-.74,0-.22.02-.5-.04-.7-.38-.09-.47-.55-.32-.87.07-.37.5.03.73-.18.2-.36.34-.88.09-1.23-.09-.18,0-.42-.16-.55-.06-.29.33-.52.28-.8-.12-.2-.13-.46-.38-.57-.12-.14-.15-.32-.36-.33-.13-.24-.1-.59-.07-.86.08-.2.18-.41.02-.6-.05-.1-.14-.18-.14-.29-.03-.12.13-.2.13-.3-.05-.27-.17-.58,0-.83-.13-.14-.15-.33-.22-.5-.13-.52-.09-1.2-.62-1.49-.29-.14-.62-.23-.88-.45-.33-.24-.56-.61-.85-.92-.19-.28-.29-.62-.55-.83-.25-.27-.66-.35-.92-.61-.36-.05-.86-.02-1.25-.02-.32.09-.64.06-.94-.09-1.45-.73-1.62-1.32-1.73-2.89-.02-.23-.09-.79-.32-1.05-.27-.26-.39-.56-.32-.92.08-.6.3-1.29-.12-1.8-.03-.12-.17-.03-.23-.12.06-.07-.05-.1-.11-.1-.17-.05-.31.03-.45.08-.64.17-1.26.5-1.71.95-.04.05-.1.07-.14.12-.02,0,.04-.05,0-.05-.12.1-.26.12-.41.1-.3-.1-.77-.15-.86-.05-.11.05-.22,0-.33.07-.18.1-.25.32-.33.5-.08.3-.27.62-.52.81-.33.37-.89.46-1.32.68-.64.44-.37,1.38-.97,1.89-.28.15-.53.24-.85.22-.34.02-.71.24-1.05.11-.34-.17-.95-.59-1.25-.17-.08.08-.27.03-.35.15-.08.1-.06.21-.16.3-.15.18-.29.38-.46.55-.17.11-.36.03-.52-.05-.49-.27-.36-.69-.49-1.11-.2-.38-.7-.61-1.1-.85-.6-.35-1.45-.29-1.92-.42-.45.09-.79-.16-1.21-.19-.17-.12-.29-.31-.45-.44-.75-.72-1.58-.54-2.43-.1-.3.12-.7.12-.92.36-.21-.04-.43.02-.6.15-.99.58.27,2.96-2.31,1.58-.17,0-.3-.09-.42-.22-.26-.09-.57,0-.84-.09-.98.03-.78-1.06-1.09-1.69-.28-.4-.83-.26-1.2-.51-.8-.34-.33-1.24-1.06-1.65-.43-.24-.91-.26-1.39-.36-.13-.05-.28.02-.4-.05-.04,0-.2-.02-.14-.08.14-.03-.09-.06-.12-.11-.13-.08-.24-.21-.39-.27-.29-.14-.61-.1-.92-.1-.42.2-.86.3-1.29.49-1.12.47-2.22.04-3.17-.41-.66-.25-1.37-.27-2.05-.42-1.46-.6-.44-2.49-1.11-3.51-.43-.81-1.15-1.45-1.59-2.26-.27-1.03-.14-1.73-1.21-2.45-1.69-1.09-2.9.44-2.97-2.07.13-.59-.58-1.41-1.19-1.06-.42.24-.47.86-.97.99-.19.06-.41.11-.58-.03-.92-.6-.59.58-1.79.69-.31.27-.72.15-1.07.05-.28-.24-.49-.6-.85-.72-.97.13-1.13-1-1.74-1.5-1.03-.79-1.3.22-1.88.94-1.96.63-1.31,1.15-2.59,1.7-.27.13-.62.49-.32.76.11.34.37.54.61.75.25.34.61.68.72,1.09.28.26.51.61.53,1,.03.48-.44.65-.65,1.01-.45.49-1,.94-.42,1.57.45.2,1.13.03,1.58.14.41.1,1.03.39.85.91-.12.69-.95.83-1.21,1.42-.1.45.34.75.47,1.14.49,1.46-1.86-.16-2.45.38-1.23.83-1.13.55-2.42.49-.34.02-.53.33-.8.51-.36.23-.81.36-1.1.68-.48.19-.9.5-1.31.79-.24.1-.36.45-.64.6-.8.94-2.32,1.29-3.04.15-.28-.34-.33-.76-.81-.99-.7-.36-1.7-.18-2.28.09-1.46.57-1.81-.55-2.89.31-.33.6-.52.74-.55,1.44-.01.35.34.55.45.86.23.59.02,1.3.09,1.94.04.76.8,1.33.72,2.12.14.99-.91,1.19-1.52,1.64-.35.43-.31,1.08-.77,1.46-1.59,1.18-3.02-.18-3.71,2.4-.38.74-.18,1.65-.52,2.41-.2.57-.54,1.14-.96,1.56-.57.36-1.15.73-1.72,1.09-.26.06-.54-.14-.68-.31-.1-.01.02-.1-.02-.15-.06-.07-.15-.11-.18-.18.04.04.04,0,0-.02-.13-.02-.25-.11-.38-.1-.39.16-.88.13-1.21.41-.67,1.17.26,1.44-1.29,2.55-1.29,1.16-.98,2.55-.84,4.08.03.58-.32.83-.33,1.31-.09.57.01,1.24-.44,1.68-.15.11-.26.33-.45.37-.28,0-.56.15-.84.07-.56.21-1.53.05-1.66.76.26,1.71-.85.58-1.1-.26-.07-.44-.93-.99-1.72-.92-.43-.04-.8.31-1.23.23-.59-.28-1.23-.55-1.69-1.02-.17-.21-.69-.32-.91-.6-.48-.59-.5-1.54-.28-2.25.3-.69-.19-1.46-.79-1.82-.68-.19-1-.92-1.64-1.16-.7-.04-.82,1.14-.22,1.36.59.12,1.71.11,1.12,1-.45.61-1.41-.29-1.79.44-.14.21-.04.59-.35.65-.34-.22-.54-.72-.97-.82-.56-.19-1.13.46-.79.99.19.39.9.23.95.72-.14,1.85-2.08.86-2.63,1.52-.2.79-.05,1.65-.08,2.46,0,.94,1.32,1.41-.17,1.95-.6.18-1.33-.54-1.79.04-.48.58.16,1.45-.25,2.04-.39.53-2.02,1.3-1.69-.06.03-.52.92-1.35.27-1.75-.32-.06-.66-.24-.97-.08-.21.19-.44.37-.66.55-.17.08-.3.28-.49.18-.45-.07-.66-.64-.89-.98-.19-.31-.39-.65-.52-.99-.09-.09-.16-.21-.18-.33,0,0,.07.06.04,0-.23-.35-.32-.78-.48-1.18-.19-.07-.51-.44-.78-.36-.33.2-.75.27-1.06.5-.3.33-.68.62-.9,1.02-.6.94-1.52.88-2.35.92-.66.23-1.36.52-1.88,1.02-.29.24-.32.61-.18.94.09.38-.19.72-.22,1.08-.1.4-.13.86-.38,1.19-.09.79-1.15,1.53-1.88,1.08-.23-.2-.15-.55-.25-.82-.12-.29-.28-.57-.45-.84-.06-.17-.22-.28-.36-.36-.1-.05-.28.06-.38,0-.47-.07-.97-.11-1.35-.39-1.08-.62-1.86-1.76-3.1-2.05-.24.07-.45-.22-.61-.37-.04-.11-.21-.05-.26-.15-.12-.1-.28-.31-.28-.36-.58-.35-1.28-.59-1.95-.42-.54.11-.94.56-1.34.92-.24.16-.4.47-.7.42-.55-.49-1.4-.6-1.69-1.38-.06-.07-.05-.22-.1-.28-.04-.01-.1-.01-.05-.06.15-.3,0-.71-.32-.81-.77-.09-.25,1-.83,1.25-.05.04-.2.17-.17.17.06-.05.14-.1.11.02-.03.09-.11.16-.12.26,0,.07-.14.16-.15.05.01-.19-.09.1-.03.16.03.19.14.34.18.5.2.3.58.45.83.72.06.3.11.66.12.98-.15.41-.44.83-.78,1.12-.55.18-1.22.36-1.72.02-.31-.44-.22-1.03.11-1.44.43-.41.23-1.26-.41-1.19-.3.12-.57.32-.89.37-.25.08-.49-.13-.74-.05-1.51.26-.69.89-2.36.64-.18,0-.39-.06-.49-.23.04-.13-.08-.26-.12-.38-.1-.13-.32-.19-.37-.36-.04-.15-.11-.33-.2-.45-.23-.32-.64-.57-1.03-.43-.42.28-.61.79-.97,1.14-.4.41-.13,1.03.23,1.39.34.2.48.53.52.88.02.32.21.68-.02.96-.21.19-.57.18-.78.38-.05.07.04.16-.04.22-.16.16-.16.4-.28.58-.36.3-.68-.32-.9-.53-.22-.12-.46-.26-.68-.39-.35-.17-.87-.17-1.04.26-.18.87-.44,1.94-1.41,2.24-.19.11-.38.25-.53.42-.24.12-.55.16-.68.42-.08.18-.24.35-.27.55-.19.16-.35.33-.48.55-.42.59-.29,1.39-.04,2,.08.27.25.52.3.79-.02.33.06.65.22.94.35.24.74.54.95.92.09.17.19.4.35.52.15.09.4.11.49.29.23.43.35.98.09,1.42-.02.08-.09.11-.16.07-.08.05-.05.19-.15.25-.07.17-.26.41-.42.2-.17-.02-.35.02-.52.03-.26.02-.54.06-.8.03-.33.11-.67.18-1.02.21-.53.18-1.2.24-1.79.28-.73-.02-1.51.06-2.15.48-.29.19-.58.36-.81.62-.29.31-.5.76-.94.85-.17,0-.23-.17-.3-.29-.11-.09-.21-.2-.34-.28-.27-.28-.7-.39-1.02-.14-.6.09-1.15.5-1.46,1.02-.2.54-.25,1.14-.34,1.69-.18.46-.45.9-.62,1.37-.22.33-.41.77-.22,1.06.16.08.06.51.22.48.09.03-.06.07-.07.1-.02-.02-.04.01-.07,0-.02-.02-.04-.06-.08-.06,0,.12.13.11.19.19.14.26.43.37.58.62.11.29.18.62.42.84.19.11.36.2.49.38.3.3.26.77.45,1.12.07.2.06.42.14.6.08.12.19.21.22.36-.11.32-.22.65-.34.97-.12.18-.28.5-.2.62.1-.12,0,.09,0,.13,0,.08-.09.14-.11.2.04.03.03.1.02.14-.07.19-.21.36-.33.52-.03.11-.11.25-.23.28-.24.06-.47.24-.71.17-.3,0-.54.13-.85.08-.47-.04-.94-.23-1.35-.45-.02,0-.06-.02-.08-.02,0,.03.04.05.03.08-.02.05-.1-.04-.12-.06-.24-.14-.09-.46-.35-.61-.48-.38-.91-.94-1.55-1.02-.6-.13-1.12-.57-1.71-.77-.11-.01-.21-.07-.31-.06.05.04-.05.05-.08.05-.03-.1-.21.02-.29.02-.16.01-.32-.06-.46-.13-.45-.3-.88-.61-1.28-.97-.31-.29-.57-.68-1.03-.74-1.14-.47-2.22-1.07-3.42-1.43-.07,0-.26-.06-.32-.05.06.06.23.06.28.13-.23.04-.49.02-.72-.03-.16.03-.3-.1-.44-.11-.05-.04.22-.02.18-.06-.09.03-.31-.05-.34.09-.07.07-.33.16-.26.09.09,0,.16-.04.23-.08.03-.03.1-.12,0-.07-.24.03-.46.08-.67.17-.06.03-.25.14-.15.11.05-.02-.13.12-.18.16-.75.21-1.16.88-1.75,1.36-.44.34-.69.84-.83,1.37-.2.28-.22.63-.49.88.03-.05.05-.12.08-.17.04-.02.09-.05.1-.09-.04.01-.06.05-.09.06-.19.23-.39.48-.66.62-.09.11-.09.3-.22.35-.57.21-1.32,1.3-1.2,2.22,0,.67.48,1.17.97,1.57.26.29.4.26.74.28.97.34.6,1.43.36,2.12-.14.84-.48,1.64-.76,2.43-.05.18-.23.49-.47.37-.09,0-.24,0-.26.11-.08.08-.22.04-.32.04-.09.03-.19.1-.24.18-.17.16-.09.57-.12.8-.05.42.35.95.78,1.01.4,0,.87-.04.98.44.08.31,0,.7-.26.92-.03-.02-.31.04-.32-.03-.09-.07-.16-.13-.28-.14-.2.03-.44-.04-.62-.15-.45.08-.83.46-.95.89-.17.48.09.91.43,1.25.27.24.55.48.45.88-.01.06-.1.12-.1.17.06-.01.41.2.33.25-.19.27-.39.52-.66.71-.68.48-.52,1.46-.86,2.13-.27.7-1.35,1.05-1.88.47-.4-.47-.78-1.04-1.05-1.59-.18-.31-.37-.73-.8-.64-.46.06-1,.21-1.15.69-.1.62-.21,1.24-.55,1.78-.18.79-.47,1.57-.75,2.34,1.4.07,3.51-.35,4.93-.14,9.85.46,19.74.5,29.6.76,1.84.03,3.77.09,5.6.17.13-.2.38-.31.45-.55.01-.31.12-.59.18-.89-.09-1.02-.24-2.07-.52-3.06-.13-.27-.09-.57-.2-.83-.26-.56-.75-1.49.29-1.25,1.75.02,3.8.47,5.54.55.99-.02-.71,1.47.83,1.11,6.8-.14,13.79-.2,20.6-.19,4.93-.08,9.9-.21,14.82-.36,1.2-.47,1.93,1.32,2.2.24.26.3,1.09-.38,1.54-.28,7.59.08,15.24.98,22.84.96,7.44.42,14.84-1.02,22.27-.18,11.4.77,22.9.04,34.32.16.61.14,2.54-.07,3.1-.1.07-.3.4-.39.4-.72.06-.07.17-.09.26-.11.08-.05.13-.13.2-.2.06-.07.16-.08.2-.18,0-.04.05-.03.07-.02,0-.07.02-.1.02-.16.02,0,0-.04,0-.05,0-.07.07.01.08-.05,0-.04.06-.05.07-.02.03-.04.09-.03.14-.02.11.07.24,0,.36-.05.17-.05.27-.2.33-.34.01-.04.05-.04.08-.03.03-.02.04-.07.08-.08.13-.03.19,0,.32-.08.09-.07.27-.09.3-.16.02-.1.07.08.12.05.01.03.05-.01.08,0,.03-.04.12.05.12-.03.08-.09.21-.07.28-.18.11-.04.1-.17.22-.19.2-.07.43-.07.55-.24.12-.01.12-.12.23-.16.02-.07-.04-.09.04-.12.06-.02.16,0,.23-.05.07,0,.14-.11.2-.05.08-.03.1-.1.19-.05.18.02.39-.17.53,0,.34.12.69.09,1.03.09.21.01.37-.14.58-.07.43-.04.79-.24,1.16-.43.06-.03-.01-.09.04-.12.03-.02.06-.03.06-.07.01-.02.15-.06.09-.09,0-.06.17-.11.24-.12.05-.08.16-.13.26-.12.11-.07.24-.23.37-.12.32-.27.7-.39,1.09-.52.18-.07.35-.2.54-.19.12-.13.33-.04.47-.13.85-.37,1.73-.59,2.56-.97.19-.08.41-.07.62-.07.08-.02.16-.02.25-.05.02-.02.08.02.05.04.03,0,.06-.02.09,0,.07.02.13-.06.19-.08.03-.03.13.02.12-.05.11,0,.24.04.34,0,.13-.04.24-.02.24-.17-.03,0-.03-.06-.02-.08-.05-.04.04-.03.05-.05.04.03.07-.01.11-.02,0-.08-.03-.22-.02-.32.04,0,.03-.03.05-.06.05-.01.02-.04-.02-.05-.06-.02-.18-.04-.16-.12.07-.02,0-.1.07-.12.03-.07-.03-.1-.09-.1-.01-.08.1-.06.08-.13.07-.06-.08-.15-.08-.24-.14-.19.18-.14.27-.2.11-.1.19-.29.28-.43.09-.14.29-.18.25-.38-.04-.1.07-.11.12-.15.03-.1-.03-.24-.02-.35.04-.08-.05-.1-.08-.15-.04-.13.11-.21.21-.25.1-.01.15-.11.19-.18.1-.02.19-.06.28-.11.03-.01.11.03.09-.04.04-.18-.14-.63.22-.38.07.01.14,0,.18-.08.13.03.23.06.35.05.09.03.15-.1.22-.12.14,0,.27,0,.41-.04.06.04.06.16.15.19.09-.01.22.05.29.1.05-.06.13.01.18-.04.08-.13.14-.3.28-.35.07-.03.14-.03.21-.08.1,0,.19.02.29-.04.09,0,.18.03.25.07.07-.02.09-.08.17-.11.1-.13.29-.08.38-.22.06-.01.16,0,.23-.03.06.02.1-.06.18-.03.02-.15.2-.11.3-.15.14-.16.37-.11.56-.16.02-.03,0-.06,0-.08-.06-.12.11-.09.15-.14.12-.06.24-.08.35-.14.04-.17.23-.16.34-.23.04-.08-.06-.23.09-.25.08-.02.22-.07.18-.17-.12-.05-.2-.17-.28-.25.08-.14.17-.25.28-.35.03-.16.18-.26.26-.42-.02-.1-.05-.16-.08-.23.01-.09-.08-.16-.06-.25,0-.09.04-.18.05-.27.03-.04.16-.2.09-.17-.09,0-.12-.12-.19-.15-.07.01-.12,0-.08-.08-.02-.03-.07-.07-.05-.13-.01-.04-.06-.01-.08-.04,0-.05-.04-.09-.03-.14.12-.02.02-.13.05-.2-.02-.14.11-.16.18-.23.04.04.07.07.13.07.06-.02.03-.07.05-.12-.01-.05.05-.09.08-.15.08.01.1.08.18.04.08.02.1-.03.15-.08.01-.08.13,0,.15-.06.04-.03.03-.1.05-.14.06-.03.15-.07.14-.17.07-.08-.03-.14-.02-.22-.05-.12.16-.26.19-.11.07.06.11-.15.17-.05.01,0,.03-.01.02-.03-.04-.1.09.04.1.04.09-.12.35-.03.45-.17.06.03.04.12.12.14.06,0,.1-.07.15-.12.07,0,.14.06.2,0,.02-.08.09-.16.12-.24,0-.08.08,0,.13-.03.05,0,.03-.07.08-.08.04-.08.08-.15.12-.22,0-.03.05-.04.08-.04.02-.04.03-.07.07-.08.08-.07.24,0,.28.08,0,.06.05,0,.08-.02,0-.04-.02-.09.02-.12.09-.17.04-.36.1-.54.07-.05.19-.08.28-.09.06.05.18.09.26.05.08-.06.03-.17.04-.28-.05-.14.02-.25-.02-.38-.01-.08-.1-.14-.11-.22.05-.09-.09-.21.02-.26.05-.1.17-.03.24-.12,0-.09-.06-.14-.13-.18.03-.05-.01-.07-.05-.08-.03,0-.02-.08-.03-.11-.02-.03,0-.06.02-.08,0-.04-.1-.05-.06-.1.05-.04.1-.1.05-.15.03-.05.03-.18-.02-.22-.06-.03.03-.06.02-.12-.05-.08-.16-.23-.15-.32.08-.12.16-.33.32-.27.04-.1.16-.11.24-.17.02-.08.13-.06.18-.12.16-.13.4-.2.52-.31.03-.02.06.03.09.06.04.04.08-.03.12-.02.03-.02.04-.07.05-.09.11.02.1-.16.22-.17.05.01.07-.05.1-.07.05.03.1-.04.15-.02.03,0,.04-.04.02-.06.03-.01.03-.05.04-.08-.03-.09.09-.13.15-.13,0,.04.07.09.1.04.03,0,.06-.01.05-.04.06-.11.26-.05.34-.13.11-.13.2-.3.31-.4.24-.18.48-.35.75-.51.03-.05.08-.08.05-.15.09-.09.29-.16.41-.25.31-.18.56-.48.82-.61,0,.02.02.07.03.05.03-.04.06-.03.08,0,.06-.06.09-.13.18-.15.02.05.06-.03.07,0,.07.02.14,0,.18-.06-.1-.08-.02-.19.06-.21.04,0,.08-.06.12-.03.04.01.05.13.11.08.02-.04.1-.06.12-.12.04-.07.12-.08.19-.15.03-.08.02-.16.12-.19.09-.04.17-.11.25-.13.04.18.24.03.26-.07,0-.03.02-.04-.02-.05.03-.05.1-.06.17-.08.08-.05.23-.16.32-.13.04.04.05-.06.08-.03.08.04.11-.04.14-.09.04,0,.09-.02.12,0,.05,0,.05-.04.08-.05,0-.04.09-.04.1-.08.01-.06.07-.07.12-.1.05-.03.09.02.14.02.02,0,.03-.04.02-.07.03-.02.08-.04.08-.08.05-.02.11.02.16,0,.25.02.46-.23.67-.27.14.03.23-.12.35-.09.17-.09.34-.19.55-.19.11,0,.18-.04.27-.09.04-.03.13-.02.16-.08.14-.02.28-.04.41-.12.04-.04.08-.04.05-.1-.03,0,.02-.04-.02-.05,0-.07.09-.04.13-.08.17-.03-.05-.23.04-.3.03.02.05,0,.08,0,.02.04.05.05.1.05.02-.02,0-.03,0-.06.03-.04.07.02.11-.02l.38-.22Z"/>
</svg>