<?xml version="1.0" encoding="UTF-8"?>
<svg id="Layer_1" xmlns="http://www.w3.org/2000/svg" version="1.1" viewBox="0 0 391.99 242.05">
  <!-- Generator: Adobe Illustrator 30.1.0, SVG Export Plug-In . SVG Version: 2.1.1 Build 136)  -->
  <defs>
    <filter id="shadow" x="-20%" y="-20%" width="140%" height="140%">
      <feDropShadow dx="1" dy="1" stdDeviation="2" flood-color="#000000" flood-opacity="0.5"/>
    </filter>
    <style>
      .st0, .st1 {
        fill: none;
      }

      .st2 {
        <!-- fill: #2f6b85; -->
        fill: #ffffff;
        filter: url(#shadow);
      }

      .st1 {
        <!-- stroke: #2f6b85; -->
        stroke: #ffffff;
        stroke-linecap: round;
        stroke-linejoin: round;
        stroke-width: 2px;
        filter: url(#shadow);
      }
    </style>
  </defs>
  <g>
    <path class="st2" d="M65.67,181.24h4.23v7.97l7.46-7.97h5.53l-8.54,8.92,9.27,10.28h-5.91l-7.81-9.11v9.11h-4.23v-19.2Z"/>
    <path class="st2" d="M97.05,198.16c-.65.83-1.47,1.47-2.47,1.93-.99.45-2.02.68-3.09.68s-1.97-.16-2.86-.49-1.67-.79-2.33-1.4c-.66-.61-1.18-1.33-1.56-2.18-.38-.85-.57-1.8-.57-2.85s.19-2,.57-2.85c.38-.85.9-1.58,1.56-2.18.66-.61,1.44-1.07,2.33-1.4s1.85-.49,2.86-.49c.94,0,1.79.16,2.56.49.77.33,1.42.79,1.95,1.4.53.61.94,1.33,1.23,2.18.29.85.43,1.8.43,2.85v1.27h-9.44c.16.78.52,1.4,1.06,1.86.54.46,1.21.69,2.01.69.67,0,1.23-.15,1.7-.45.46-.3.86-.68,1.21-1.15l2.85,2.09ZM93.6,192.36c.02-.69-.21-1.28-.68-1.76-.47-.49-1.08-.73-1.82-.73-.45,0-.85.07-1.19.22-.34.15-.64.33-.88.56-.24.23-.43.49-.57.79-.14.3-.21.61-.23.94h5.37Z"/>
    <path class="st2" d="M100.14,187.26h3.9v1.79h.05c.13-.25.31-.51.54-.76.23-.25.52-.48.84-.68.33-.2.7-.36,1.11-.49.42-.13.87-.19,1.36-.19,1.03,0,1.86.16,2.49.47.63.32,1.13.75,1.48,1.32.35.56.59,1.22.72,1.98.13.76.19,1.58.19,2.47v7.27h-4.07v-6.45c0-.38-.01-.77-.04-1.18-.03-.41-.11-.78-.24-1.12-.14-.34-.34-.62-.62-.84s-.68-.33-1.21-.33-.95.09-1.27.28c-.33.19-.57.44-.75.76-.17.32-.28.67-.34,1.07s-.08.81-.08,1.25v6.56h-4.07v-13.18Z"/>
    <path class="st2" d="M124.68,190.51h-3.58v4.39c0,.36.02.69.05.99.04.3.12.56.24.77s.32.38.58.5c.26.12.61.18,1.04.18.22,0,.5-.02.85-.07.35-.04.62-.15.8-.31v3.39c-.45.16-.92.27-1.41.33s-.97.08-1.44.08c-.69,0-1.32-.07-1.9-.22-.58-.14-1.08-.37-1.52-.69-.43-.32-.77-.73-1.02-1.23-.24-.51-.37-1.12-.37-1.84v-6.26h-2.6v-3.25h2.6v-3.9h4.07v3.9h3.58v3.25Z"/>
    <path class="st2" d="M139.43,200.44h-3.9v-1.79h-.05c-.14.25-.33.51-.56.76-.23.25-.5.48-.83.68-.33.2-.7.36-1.11.49s-.87.19-1.36.19c-1.03,0-1.87-.16-2.51-.47-.64-.32-1.14-.75-1.49-1.32-.35-.56-.59-1.22-.71-1.98-.12-.76-.18-1.58-.18-2.47v-7.27h4.07v6.45c0,.38.01.77.04,1.18.03.41.11.78.24,1.12.14.34.34.62.62.84.28.22.68.33,1.21.33s.95-.09,1.27-.28c.33-.19.57-.44.75-.76.17-.32.28-.67.34-1.07.05-.4.08-.81.08-1.25v-6.56h4.07v13.18Z"/>
    <path class="st2" d="M151.23,191.52c-.2-.29-.48-.53-.84-.72-.36-.19-.75-.28-1.17-.28-1.03,0-1.83.31-2.4.92-.57.61-.85,1.42-.85,2.41s.28,1.8.85,2.41c.57.61,1.37.92,2.4.92.45,0,.84-.1,1.17-.3.33-.2.61-.43.84-.71l2.68,2.82c-.63.65-1.38,1.11-2.24,1.37-.86.26-1.68.39-2.45.39-1.01,0-1.97-.16-2.86-.49s-1.67-.79-2.33-1.4c-.66-.61-1.18-1.33-1.56-2.18-.38-.85-.57-1.8-.57-2.85s.19-2,.57-2.85c.38-.85.9-1.58,1.56-2.18.66-.61,1.44-1.07,2.33-1.4s1.85-.49,2.86-.49c.78,0,1.6.13,2.45.39.86.26,1.6.72,2.24,1.37l-2.68,2.82Z"/>
    <path class="st2" d="M155.38,179.94h4.07v12.53l4.5-5.21h4.99l-5.23,5.94,5.37,7.24h-5.13l-4.45-6.67h-.05v6.67h-4.07v-20.5Z"/>
    <path class="st2" d="M178.05,202.58c-.27.71-.53,1.33-.79,1.87-.25.54-.57,1-.96,1.37s-.88.65-1.48.84c-.6.19-1.38.28-2.36.28-1.05,0-2.06-.16-3.04-.49l.54-3.34c.61.27,1.25.41,1.9.41.45,0,.82-.05,1.11-.15.29-.1.53-.24.72-.43s.35-.42.47-.69c.13-.27.26-.59.41-.95l.3-.76-5.78-13.29h4.39l3.39,8.7h.05l2.9-8.7h4.18l-5.97,15.32Z"/>
    <path class="st2" d="M194.07,181.24h6.35c1.54,0,3,.17,4.38.51,1.38.34,2.59.9,3.62,1.67,1.03.77,1.85,1.77,2.45,3,.61,1.23.91,2.72.91,4.47,0,1.56-.29,2.92-.88,4.11-.59,1.18-1.38,2.18-2.37,2.98-.99.8-2.14,1.41-3.44,1.83-1.3.42-2.67.62-4.1.62h-6.91v-19.2ZM198.3,196.53h2.2c.98,0,1.88-.1,2.73-.3.84-.2,1.57-.53,2.18-.99.61-.46,1.1-1.07,1.45-1.82s.53-1.67.53-2.75c0-.94-.18-1.76-.53-2.45-.35-.7-.83-1.27-1.42-1.72-.6-.45-1.3-.79-2.1-1.02s-1.65-.34-2.54-.34h-2.49v11.39Z"/>
    <path class="st2" d="M213.87,183.11c0-.65.23-1.21.69-1.67.46-.46,1.02-.69,1.67-.69s1.21.23,1.67.69c.46.46.69,1.02.69,1.67s-.23,1.21-.69,1.67c-.46.46-1.02.69-1.67.69s-1.21-.23-1.67-.69c-.46-.46-.69-1.02-.69-1.67ZM214.19,187.26h4.07v13.18h-4.07v-13.18Z"/>
    <path class="st2" d="M219.81,187.26h4.39l3.34,8.95h.05l3.09-8.95h4.09l-5.21,13.18h-4.31l-5.45-13.18Z"/>
    <path class="st2" d="M236,183.11c0-.65.23-1.21.69-1.67s1.02-.69,1.67-.69,1.21.23,1.67.69.69,1.02.69,1.67-.23,1.21-.69,1.67-1.02.69-1.67.69-1.21-.23-1.67-.69-.69-1.02-.69-1.67ZM236.32,187.26h4.07v13.18h-4.07v-13.18Z"/>
    <path class="st2" d="M250.78,191.14c-.6-.74-1.38-1.11-2.36-1.11-.34,0-.68.08-1,.24-.33.16-.49.44-.49.84,0,.33.17.56.5.72.33.15.76.29,1.27.41.52.12,1.07.24,1.65.38s1.14.35,1.65.64c.52.29.94.68,1.27,1.18.33.5.5,1.16.5,1.99s-.19,1.55-.56,2.1-.84.99-1.42,1.33c-.58.33-1.23.57-1.95.71s-1.44.2-2.14.2c-.92,0-1.85-.13-2.79-.39-.94-.26-1.74-.73-2.39-1.4l2.47-2.74c.38.47.8.83,1.26,1.07.46.24,1,.37,1.61.37.47,0,.89-.07,1.27-.2.38-.14.57-.38.57-.75,0-.34-.17-.6-.5-.77-.33-.17-.76-.32-1.27-.43-.52-.12-1.07-.24-1.65-.38-.59-.14-1.14-.34-1.65-.61-.51-.27-.94-.66-1.27-1.15-.33-.5-.5-1.16-.5-1.99,0-.78.16-1.45.47-2.01.32-.56.73-1.02,1.25-1.38.52-.36,1.11-.63,1.78-.8.67-.17,1.35-.26,2.03-.26.87,0,1.74.13,2.63.38.89.25,1.64.71,2.25,1.36l-2.5,2.47Z"/>
    <path class="st2" d="M255.6,183.11c0-.65.23-1.21.69-1.67.46-.46,1.02-.69,1.67-.69s1.21.23,1.67.69c.46.46.69,1.02.69,1.67s-.23,1.21-.69,1.67c-.46.46-1.02.69-1.67.69s-1.21-.23-1.67-.69c-.46-.46-.69-1.02-.69-1.67ZM255.93,187.26h4.07v13.18h-4.07v-13.18Z"/>
    <path class="st2" d="M262.44,193.85c0-1.05.19-2,.57-2.85.38-.85.9-1.58,1.56-2.18.66-.61,1.44-1.07,2.33-1.4.89-.33,1.85-.49,2.86-.49s1.97.16,2.86.49,1.67.79,2.33,1.4c.66.61,1.18,1.33,1.56,2.18.38.85.57,1.8.57,2.85s-.19,2-.57,2.85c-.38.85-.9,1.58-1.56,2.18s-1.44,1.07-2.33,1.4-1.85.49-2.86.49-1.97-.16-2.86-.49c-.89-.33-1.67-.79-2.33-1.4s-1.18-1.33-1.56-2.18c-.38-.85-.57-1.8-.57-2.85ZM266.51,193.85c0,.99.28,1.8.85,2.41.57.61,1.37.92,2.4.92s1.83-.31,2.4-.92c.57-.61.85-1.42.85-2.41s-.28-1.8-.85-2.41c-.57-.61-1.37-.92-2.4-.92s-1.83.31-2.4.92c-.57.61-.85,1.42-.85,2.41Z"/>
    <path class="st2" d="M279.47,187.26h3.9v1.79h.05c.13-.25.31-.51.54-.76.23-.25.51-.48.84-.68.33-.2.7-.36,1.11-.49.42-.13.87-.19,1.36-.19,1.03,0,1.86.16,2.5.47.63.32,1.12.75,1.48,1.32.35.56.59,1.22.72,1.98s.19,1.58.19,2.47v7.27h-4.07v-6.45c0-.38-.01-.77-.04-1.18-.03-.41-.11-.78-.24-1.12s-.34-.62-.62-.84c-.28-.22-.68-.33-1.21-.33s-.95.09-1.28.28c-.33.19-.57.44-.75.76s-.28.67-.34,1.07-.08.81-.08,1.25v6.56h-4.07v-13.18Z"/>
    <path class="st2" d="M302.57,193.85c0-1.05.19-2,.57-2.85.38-.85.9-1.58,1.56-2.18.66-.61,1.44-1.07,2.33-1.4.89-.33,1.85-.49,2.86-.49s1.97.16,2.86.49,1.67.79,2.33,1.4c.66.61,1.18,1.33,1.56,2.18.38.85.57,1.8.57,2.85s-.19,2-.57,2.85c-.38.85-.9,1.58-1.56,2.18s-1.44,1.07-2.33,1.4-1.85.49-2.86.49-1.97-.16-2.86-.49c-.89-.33-1.67-.79-2.33-1.4s-1.18-1.33-1.56-2.18c-.38-.85-.57-1.8-.57-2.85ZM306.64,193.85c0,.99.28,1.8.85,2.41.57.61,1.37.92,2.4.92s1.83-.31,2.4-.92c.57-.61.85-1.42.85-2.41s-.28-1.8-.85-2.41c-.57-.61-1.37-.92-2.4-.92s-1.83.31-2.4.92c-.57.61-.85,1.42-.85,2.41Z"/>
    <path class="st2" d="M321.01,190.51h-2.68v-3.25h2.68v-2.33c0-.72.06-1.41.19-2.05s.37-1.21.73-1.69c.36-.49.88-.87,1.56-1.15.68-.28,1.57-.42,2.67-.42.42,0,.82.02,1.22.05.4.04.79.1,1.17.19l-.19,3.44c-.24-.09-.45-.16-.65-.2-.2-.04-.43-.07-.68-.07-.65,0-1.14.14-1.46.42-.33.28-.49.85-.49,1.72v2.09h3.01v3.25h-3.01v9.92h-4.07v-9.92Z"/>
    <path class="st2" d="M61.85,231.63c-1.25.65-2.55,1.12-3.9,1.41s-2.74.43-4.15.43c-1.5,0-2.88-.24-4.15-.71-1.27-.47-2.36-1.14-3.28-2.02s-1.64-1.94-2.16-3.19-.77-2.64-.77-4.18.26-2.93.77-4.18c.52-1.25,1.23-2.31,2.16-3.19s2.02-1.55,3.28-2.02c1.27-.47,2.65-.7,4.15-.7s2.95.19,4.24.56c1.29.37,2.43,1.01,3.4,1.91l-2.98,3.25c-.58-.6-1.23-1.05-1.95-1.36-.72-.31-1.63-.46-2.71-.46-.9,0-1.72.15-2.45.46-.73.31-1.36.74-1.88,1.29-.52.55-.93,1.21-1.21,1.97-.28.76-.42,1.58-.42,2.47s.14,1.73.42,2.48c.28.75.68,1.4,1.21,1.95.52.55,1.15.98,1.88,1.29.73.31,1.55.46,2.45.46s1.72-.1,2.39-.31c.67-.21,1.2-.42,1.6-.64v-3.12h-3.44v-3.9h7.51v10.03Z"/>
    <path class="st2" d="M77.52,230.7c-.65.83-1.47,1.47-2.47,1.93s-2.02.68-3.09.68-1.97-.16-2.86-.49c-.89-.33-1.67-.79-2.33-1.4-.66-.61-1.18-1.33-1.56-2.18-.38-.85-.57-1.8-.57-2.85s.19-2,.57-2.85c.38-.85.9-1.58,1.56-2.18.66-.61,1.44-1.07,2.33-1.4.89-.33,1.85-.49,2.86-.49.94,0,1.79.16,2.56.49.77.33,1.42.79,1.95,1.4s.94,1.33,1.23,2.18c.29.85.43,1.8.43,2.85v1.28h-9.44c.16.78.52,1.4,1.06,1.86.54.46,1.21.69,2.01.69.67,0,1.23-.15,1.7-.45.46-.3.86-.68,1.21-1.15l2.85,2.09ZM74.08,224.9c.02-.69-.21-1.27-.68-1.76-.47-.49-1.08-.73-1.82-.73-.45,0-.85.07-1.19.22-.34.14-.64.33-.88.56-.24.23-.43.49-.57.79-.14.3-.21.61-.23.94h5.37Z"/>
    <path class="st2" d="M80.13,226.39c0-1.05.19-2,.57-2.85.38-.85.9-1.58,1.56-2.18.66-.61,1.44-1.07,2.33-1.4.89-.33,1.85-.49,2.86-.49s1.97.16,2.86.49c.89.33,1.67.79,2.33,1.4.66.61,1.18,1.33,1.56,2.18.38.85.57,1.8.57,2.85s-.19,2-.57,2.85c-.38.85-.9,1.58-1.56,2.18-.66.61-1.44,1.07-2.33,1.4-.89.33-1.85.49-2.86.49s-1.97-.16-2.86-.49c-.89-.33-1.67-.79-2.33-1.4-.66-.61-1.18-1.33-1.56-2.18-.38-.85-.57-1.8-.57-2.85ZM84.19,226.39c0,1,.28,1.8.85,2.41.57.61,1.37.92,2.4.92s1.83-.31,2.4-.92c.57-.61.85-1.42.85-2.41s-.28-1.8-.85-2.41c-.57-.61-1.37-.92-2.4-.92s-1.83.31-2.4.92c-.57.61-.85,1.42-.85,2.41Z"/>
    <path class="st2" d="M110.99,231.87c0,2.5-.63,4.39-1.88,5.68-1.26,1.29-3.17,1.94-5.74,1.94-1.18,0-2.33-.13-3.47-.39-1.14-.26-2.19-.77-3.15-1.53l2.25-3.36c.63.52,1.3.94,1.99,1.25.7.31,1.46.46,2.29.46,1.25,0,2.16-.3,2.75-.91.59-.61.88-1.38.88-2.32v-1.27h-.05c-.47.63-1.05,1.08-1.75,1.34-.7.26-1.35.39-1.97.39-.98,0-1.86-.17-2.66-.5-.8-.33-1.48-.8-2.05-1.41-.57-.61-1.01-1.32-1.32-2.16-.31-.83-.46-1.74-.46-2.74,0-.87.14-1.72.42-2.55.28-.83.68-1.56,1.19-2.2.52-.63,1.14-1.14,1.88-1.53.74-.39,1.58-.58,2.52-.58.58,0,1.11.06,1.59.19.48.13.91.29,1.29.49s.7.42.98.66.49.48.65.72h.05v-1.74h3.74v12.07ZM100.74,226.31c0,.43.08.84.24,1.23.16.39.39.73.69,1.03.3.3.64.54,1.03.72.39.18.82.27,1.29.27s.88-.09,1.27-.27c.4-.18.75-.42,1.04-.72.3-.3.53-.64.69-1.03.16-.39.24-.8.24-1.23s-.08-.85-.24-1.23c-.16-.39-.39-.73-.69-1.03-.3-.3-.65-.54-1.04-.72-.4-.18-.82-.27-1.27-.27s-.9.09-1.29.27c-.39.18-.73.42-1.03.72-.3.3-.53.64-.69,1.03-.16.39-.24.8-.24,1.23Z"/>
    <path class="st2" d="M114.24,219.8h4.07v2.12h.05c.43-.81.95-1.42,1.55-1.83.6-.41,1.35-.61,2.25-.61.23,0,.47,0,.7.03.23.02.45.05.65.11v3.72c-.29-.09-.57-.16-.85-.2-.28-.04-.57-.07-.88-.07-.78,0-1.39.11-1.84.33-.45.22-.8.52-1.04.91-.24.39-.4.85-.47,1.4-.07.54-.11,1.14-.11,1.79v5.5h-4.07v-13.18Z"/>
    <path class="st2" d="M133.55,231.33h-.05c-.45.7-1.05,1.21-1.8,1.52-.75.31-1.54.46-2.37.46-.61,0-1.21-.09-1.78-.26s-1.07-.43-1.5-.77-.78-.77-1.03-1.27c-.25-.51-.38-1.09-.38-1.76,0-.76.14-1.4.42-1.92.28-.52.66-.96,1.14-1.3.48-.34,1.03-.61,1.64-.8.61-.19,1.25-.33,1.91-.42.66-.09,1.32-.14,1.98-.16.66-.02,1.27-.03,1.83-.03,0-.72-.26-1.3-.77-1.72-.52-.42-1.13-.64-1.83-.64s-1.28.14-1.83.42c-.55.28-1.04.66-1.48,1.15l-2.17-2.22c.76-.7,1.64-1.23,2.66-1.59,1.01-.35,2.06-.53,3.15-.53,1.19,0,2.17.15,2.94.45.77.3,1.38.74,1.84,1.32s.78,1.29.96,2.13c.18.84.27,1.81.27,2.91v6.7h-3.74v-1.65ZM132.54,227.2c-.31,0-.69.01-1.15.04s-.9.1-1.33.23c-.42.13-.79.32-1.08.57-.3.25-.45.61-.45,1.06,0,.49.21.85.62,1.08.42.24.85.35,1.3.35.4,0,.78-.05,1.15-.16s.7-.26.99-.46c.29-.2.52-.45.69-.76.17-.31.26-.67.26-1.09v-.87h-1Z"/>
    <path class="st2" d="M140.22,219.8h3.74v1.74h.05c.16-.23.37-.47.64-.72.26-.24.57-.47.92-.66s.74-.36,1.15-.49c.42-.13.86-.19,1.33-.19.98,0,1.86.17,2.66.5.8.33,1.48.8,2.05,1.41.57.61,1.01,1.32,1.32,2.16.31.83.46,1.75.46,2.74,0,.92-.14,1.8-.42,2.64-.28.84-.68,1.59-1.19,2.24-.52.65-1.14,1.17-1.88,1.56-.74.39-1.58.58-2.52.58-.85,0-1.64-.13-2.37-.39-.73-.26-1.33-.71-1.8-1.34h-.05v7.59h-4.07v-19.36ZM143.96,226.39c0,1,.28,1.8.85,2.41.57.61,1.37.92,2.4.92s1.83-.31,2.4-.92c.57-.61.85-1.42.85-2.41s-.28-1.8-.85-2.41c-.57-.61-1.37-.92-2.4-.92s-1.83.31-2.4.92c-.57.61-.85,1.42-.85,2.41Z"/>
    <path class="st2" d="M160.99,212.48v9.11h.05c.09-.25.24-.51.46-.76.22-.25.48-.48.79-.68s.67-.36,1.09-.49c.42-.13.87-.19,1.36-.19,1.03,0,1.86.16,2.49.47.63.32,1.13.76,1.48,1.32.35.56.59,1.22.72,1.98.13.76.19,1.58.19,2.47v7.27h-4.07v-6.45c0-.38-.01-.77-.04-1.18s-.11-.78-.24-1.13c-.14-.34-.34-.62-.62-.84s-.68-.33-1.21-.33-.95.1-1.27.28-.57.44-.75.76c-.17.32-.28.67-.34,1.07-.05.4-.08.81-.08,1.25v6.56h-4.07v-20.5h4.07Z"/>
    <path class="st2" d="M172.22,215.65c0-.65.23-1.21.69-1.67.46-.46,1.02-.69,1.67-.69s1.21.23,1.67.69c.46.46.69,1.02.69,1.67s-.23,1.21-.69,1.67c-.46.46-1.02.69-1.67.69s-1.21-.23-1.67-.69c-.46-.46-.69-1.02-.69-1.67ZM172.54,219.8h4.07v13.18h-4.07v-13.18Z"/>
    <path class="st2" d="M188.46,224.06c-.2-.29-.48-.53-.84-.72s-.75-.28-1.17-.28c-1.03,0-1.83.31-2.4.92-.57.61-.85,1.42-.85,2.41s.28,1.8.85,2.41c.57.61,1.37.92,2.4.92.45,0,.84-.1,1.17-.3.33-.2.61-.43.84-.71l2.68,2.82c-.63.65-1.38,1.11-2.24,1.37-.86.26-1.68.39-2.45.39-1.01,0-1.97-.16-2.86-.49-.89-.33-1.67-.79-2.33-1.4-.66-.61-1.18-1.33-1.56-2.18-.38-.85-.57-1.8-.57-2.85s.19-2,.57-2.85c.38-.85.9-1.58,1.56-2.18.66-.61,1.44-1.07,2.33-1.4.89-.33,1.85-.49,2.86-.49.78,0,1.6.13,2.45.39.86.26,1.6.72,2.24,1.37l-2.68,2.82Z"/>
    <path class="st2" d="M201.1,213.78h4.23v19.2h-4.23v-19.2Z"/>
    <path class="st2" d="M208.66,219.8h3.9v1.79h.05c.13-.25.31-.51.54-.76.23-.25.51-.48.84-.68.33-.2.7-.36,1.11-.49.42-.13.87-.19,1.36-.19,1.03,0,1.86.16,2.5.47.63.32,1.12.76,1.48,1.32.35.56.59,1.22.72,1.98s.19,1.58.19,2.47v7.27h-4.07v-6.45c0-.38-.01-.77-.04-1.18s-.11-.78-.24-1.13c-.14-.34-.34-.62-.62-.84-.28-.22-.68-.33-1.21-.33s-.95.1-1.28.28c-.33.19-.57.44-.75.76-.17.32-.28.67-.34,1.07-.05.4-.08.81-.08,1.25v6.56h-4.07v-13.18Z"/>
    <path class="st2" d="M225.64,223.06h-2.68v-3.25h2.68v-2.33c0-.72.06-1.41.19-2.05.13-.64.37-1.21.73-1.69s.88-.87,1.56-1.15c.68-.28,1.57-.42,2.67-.42.42,0,.82.02,1.22.05.4.04.79.1,1.17.19l-.19,3.44c-.23-.09-.45-.16-.65-.2-.2-.04-.42-.07-.68-.07-.65,0-1.14.14-1.46.42-.33.28-.49.85-.49,1.72v2.09h3.01v3.25h-3.01v9.92h-4.07v-9.92Z"/>
    <path class="st2" d="M233.77,226.39c0-1.05.19-2,.57-2.85.38-.85.9-1.58,1.56-2.18.66-.61,1.44-1.07,2.33-1.4.89-.33,1.85-.49,2.86-.49s1.97.16,2.86.49c.89.33,1.67.79,2.33,1.4.66.61,1.18,1.33,1.56,2.18.38.85.57,1.8.57,2.85s-.19,2-.57,2.85c-.38.85-.9,1.58-1.56,2.18-.66.61-1.44,1.07-2.33,1.4-.89.33-1.85.49-2.86.49s-1.97-.16-2.86-.49c-.89-.33-1.67-.79-2.33-1.4-.66-.61-1.18-1.33-1.56-2.18-.38-.85-.57-1.8-.57-2.85ZM237.84,226.39c0,1,.28,1.8.85,2.41.57.61,1.37.92,2.4.92s1.83-.31,2.4-.92c.57-.61.85-1.42.85-2.41s-.28-1.8-.85-2.41c-.57-.61-1.37-.92-2.4-.92s-1.83.31-2.4.92c-.57.61-.85,1.42-.85,2.41Z"/>
    <path class="st2" d="M250.8,219.8h4.07v2.12h.05c.43-.81.95-1.42,1.55-1.83.6-.41,1.35-.61,2.25-.61.23,0,.47,0,.7.03.23.02.45.05.65.11v3.72c-.29-.09-.57-.16-.85-.2-.28-.04-.57-.07-.88-.07-.78,0-1.39.11-1.84.33s-.8.52-1.04.91c-.24.39-.4.85-.47,1.4-.07.54-.11,1.14-.11,1.79v5.5h-4.07v-13.18Z"/>
    <path class="st2" d="M262.33,219.8h3.9v1.79h.05c.13-.25.31-.51.54-.76s.52-.48.84-.68.7-.36,1.11-.49c.42-.13.87-.19,1.36-.19.92,0,1.74.19,2.45.57.71.38,1.25.98,1.61,1.79.47-.85,1.04-1.45,1.71-1.82.67-.36,1.49-.54,2.47-.54.89,0,1.63.15,2.24.45s1.08.71,1.44,1.22c.35.51.61,1.12.76,1.82.15.7.23,1.44.23,2.24v7.78h-4.07v-7.67c0-.61-.13-1.14-.39-1.59-.26-.44-.73-.66-1.4-.66-.47,0-.86.08-1.18.23s-.57.37-.76.64c-.19.27-.33.59-.41.95-.08.36-.12.74-.12,1.14v6.97h-4.07v-6.97c0-.23,0-.52-.03-.87-.02-.34-.08-.67-.19-.98-.11-.31-.28-.57-.53-.79s-.6-.33-1.07-.33c-.52,0-.95.1-1.27.28-.33.19-.57.44-.75.76-.17.32-.28.67-.34,1.07-.05.4-.08.81-.08,1.25v6.56h-4.07v-13.18Z"/>
    <path class="st2" d="M294.19,231.33h-.05c-.45.7-1.05,1.21-1.8,1.52-.75.31-1.54.46-2.37.46-.61,0-1.21-.09-1.78-.26-.57-.17-1.07-.43-1.5-.77-.43-.34-.78-.77-1.03-1.27-.25-.51-.38-1.09-.38-1.76,0-.76.14-1.4.42-1.92.28-.52.66-.96,1.14-1.3.48-.34,1.03-.61,1.64-.8.61-.19,1.25-.33,1.91-.42.66-.09,1.32-.14,1.98-.16.66-.02,1.27-.03,1.83-.03,0-.72-.26-1.3-.77-1.72-.52-.42-1.13-.64-1.83-.64s-1.28.14-1.83.42c-.55.28-1.04.66-1.48,1.15l-2.17-2.22c.76-.7,1.65-1.23,2.66-1.59,1.01-.35,2.06-.53,3.15-.53,1.19,0,2.17.15,2.94.45s1.38.74,1.84,1.32c.46.58.78,1.29.96,2.13.18.84.27,1.81.27,2.91v6.7h-3.74v-1.65ZM293.19,227.2c-.31,0-.69.01-1.15.04-.46.03-.9.1-1.33.23-.43.13-.79.32-1.08.57-.3.25-.45.61-.45,1.06,0,.49.21.85.62,1.08.42.24.85.35,1.3.35.4,0,.78-.05,1.15-.16.37-.11.7-.26.99-.46.29-.2.52-.45.69-.76.17-.31.26-.67.26-1.09v-.87h-1Z"/>
    <path class="st2" d="M309.46,223.06h-3.58v4.39c0,.36.02.69.05.99.04.3.12.56.24.77.13.22.32.38.58.5.26.12.61.18,1.04.18.22,0,.5-.02.85-.07.35-.05.62-.15.8-.31v3.39c-.45.16-.92.27-1.41.33-.49.05-.97.08-1.44.08-.69,0-1.32-.07-1.9-.22-.58-.14-1.08-.37-1.52-.69-.43-.32-.77-.73-1.02-1.23-.24-.51-.37-1.12-.37-1.84v-6.26h-2.6v-3.25h2.6v-3.9h4.07v3.9h3.58v3.25Z"/>
    <path class="st2" d="M311.25,215.65c0-.65.23-1.21.69-1.67.46-.46,1.02-.69,1.67-.69s1.21.23,1.67.69c.46.46.69,1.02.69,1.67s-.23,1.21-.69,1.67c-.46.46-1.02.69-1.67.69s-1.21-.23-1.67-.69c-.46-.46-.69-1.02-.69-1.67ZM311.57,219.8h4.07v13.18h-4.07v-13.18Z"/>
    <path class="st2" d="M318.08,226.39c0-1.05.19-2,.57-2.85.38-.85.9-1.58,1.56-2.18s1.44-1.07,2.33-1.4c.89-.33,1.85-.49,2.86-.49s1.97.16,2.86.49c.89.33,1.67.79,2.33,1.4s1.18,1.33,1.56,2.18c.38.85.57,1.8.57,2.85s-.19,2-.57,2.85c-.38.85-.9,1.58-1.56,2.18-.66.61-1.44,1.07-2.33,1.4-.89.33-1.85.49-2.86.49s-1.97-.16-2.86-.49c-.89-.33-1.67-.79-2.33-1.4-.66-.61-1.18-1.33-1.56-2.18-.38-.85-.57-1.8-.57-2.85ZM322.15,226.39c0,1,.28,1.8.85,2.41.57.61,1.37.92,2.4.92s1.83-.31,2.4-.92c.57-.61.85-1.42.85-2.41s-.28-1.8-.85-2.41c-.57-.61-1.37-.92-2.4-.92s-1.83.31-2.4.92c-.57.61-.85,1.42-.85,2.41Z"/>
    <path class="st2" d="M335.11,219.8h3.9v1.79h.05c.13-.25.31-.51.54-.76s.52-.48.84-.68.7-.36,1.11-.49c.42-.13.87-.19,1.36-.19,1.03,0,1.86.16,2.49.47.63.32,1.13.76,1.48,1.32.35.56.59,1.22.72,1.98.13.76.19,1.58.19,2.47v7.27h-4.07v-6.45c0-.38-.01-.77-.04-1.18s-.11-.78-.24-1.13c-.14-.34-.34-.62-.62-.84-.28-.22-.68-.33-1.21-.33s-.95.1-1.27.28c-.33.19-.57.44-.75.76-.17.32-.28.67-.34,1.07-.05.4-.08.81-.08,1.25v6.56h-4.07v-13.18Z"/>
  </g>
  <g>
    <g>
      <path class="st2" d="M75.64,125.49h4.61v14.19l5.1-5.9h5.65l-5.93,6.72,6.08,8.2h-5.8l-5.04-7.55h-.06v7.55h-4.61v-23.21Z"/>
      <path class="st2" d="M101.31,151.13c-.31.8-.6,1.5-.89,2.12-.29.61-.65,1.13-1.09,1.55-.44.42-1,.74-1.67.95-.68.22-1.57.32-2.67.32-1.19,0-2.33-.18-3.44-.55l.61-3.78c.7.31,1.41.46,2.15.46.51,0,.93-.06,1.26-.17.33-.11.6-.28.81-.49s.39-.48.54-.78c.14-.31.3-.67.46-1.07l.34-.86-6.54-15.05h4.97l3.84,9.86h.06l3.29-9.86h4.73l-6.76,17.35Z"/>
      <path class="st2" d="M125.44,147.44c0,2.82-.71,4.97-2.13,6.43-1.42,1.46-3.59,2.2-6.49,2.2-1.33,0-2.64-.15-3.93-.45-1.29-.3-2.48-.87-3.56-1.73l2.55-3.81c.72.59,1.47,1.06,2.26,1.41.79.35,1.65.52,2.59.52,1.41,0,2.45-.34,3.12-1.03.67-.69,1-1.56,1-2.63v-1.44h-.06c-.53.72-1.19,1.22-1.98,1.52-.79.3-1.53.44-2.23.44-1.11,0-2.11-.19-3.01-.57-.9-.38-1.67-.91-2.32-1.6-.64-.69-1.14-1.5-1.49-2.44-.35-.94-.52-1.98-.52-3.1,0-.98.16-1.95.48-2.89.32-.94.77-1.77,1.35-2.49.58-.72,1.29-1.29,2.13-1.73.84-.44,1.79-.66,2.86-.66.66,0,1.25.07,1.8.22.54.14,1.03.33,1.46.55.43.23.8.48,1.11.75s.55.55.74.81h.06v-1.97h4.24v13.66ZM113.84,141.15c0,.49.09.96.28,1.4.18.44.45.83.78,1.17.34.34.73.61,1.17.81.44.21.93.31,1.46.31s.99-.1,1.44-.31c.45-.2.84-.48,1.18-.81.34-.34.6-.73.78-1.17s.28-.91.28-1.4-.09-.96-.28-1.4-.45-.83-.78-1.17c-.34-.34-.73-.61-1.18-.81-.45-.2-.93-.31-1.44-.31s-1.02.1-1.46.31c-.44.2-.83.48-1.17.81-.34.34-.6.73-.78,1.17-.18.44-.28.91-.28,1.4Z"/>
      <path class="st2" d="M143.25,146.12c-.74.94-1.67,1.67-2.79,2.18s-2.29.77-3.5.77-2.23-.18-3.24-.55c-1.01-.37-1.89-.9-2.64-1.58-.75-.69-1.34-1.51-1.77-2.47-.43-.96-.64-2.04-.64-3.22s.21-2.26.64-3.22c.43-.96,1.02-1.79,1.77-2.47.75-.69,1.63-1.21,2.64-1.58,1.01-.37,2.09-.55,3.24-.55,1.06,0,2.03.18,2.9.55.87.37,1.61.9,2.21,1.58.6.69,1.07,1.51,1.4,2.47.33.96.49,2.04.49,3.22v1.44h-10.69c.18.88.58,1.58,1.2,2.1.61.52,1.37.78,2.27.78.76,0,1.4-.17,1.92-.51s.98-.77,1.37-1.31l3.22,2.36ZM139.35,139.55c.02-.78-.24-1.44-.77-2-.53-.55-1.22-.83-2.06-.83-.51,0-.96.08-1.35.25-.39.16-.72.37-1,.63s-.49.55-.64.89c-.15.34-.24.69-.26,1.06h6.08Z"/>
      <path class="st2" d="M146.2,141.24c0-1.19.21-2.26.64-3.22.43-.96,1.02-1.79,1.77-2.47.75-.69,1.63-1.21,2.64-1.58,1.01-.37,2.09-.55,3.24-.55s2.23.18,3.24.55c1.01.37,1.89.9,2.64,1.58.75.69,1.34,1.51,1.77,2.47.43.96.64,2.04.64,3.22s-.22,2.26-.64,3.22c-.43.96-1.02,1.79-1.77,2.47-.75.69-1.63,1.21-2.64,1.58-1.01.37-2.09.55-3.24.55s-2.23-.18-3.24-.55c-1.01-.37-1.89-.9-2.64-1.58-.75-.69-1.34-1.51-1.77-2.47-.43-.96-.64-2.04-.64-3.22ZM150.81,141.24c0,1.13.32,2.04.97,2.73.64.7,1.55,1.04,2.72,1.04s2.07-.35,2.72-1.04c.64-.7.97-1.61.97-2.73s-.32-2.04-.97-2.73c-.64-.7-1.55-1.04-2.72-1.04s-2.07.35-2.72,1.04c-.64.7-.97,1.61-.97,2.73Z"/>
      <path class="st2" d="M165.49,133.78h4.42v2.03h.06c.14-.29.35-.57.61-.86s.58-.54.95-.77c.37-.22.79-.41,1.26-.55.47-.14.98-.22,1.54-.22,1.17,0,2.11.18,2.83.54.72.36,1.27.85,1.67,1.49s.67,1.38.81,2.24c.14.86.22,1.79.22,2.79v8.23h-4.61v-7.31c0-.43-.02-.88-.05-1.34-.03-.46-.12-.89-.28-1.27-.15-.39-.39-.71-.71-.95-.32-.24-.77-.37-1.37-.37s-1.07.11-1.44.32c-.37.22-.65.5-.84.86-.19.36-.32.76-.38,1.21-.06.45-.09.92-.09,1.41v7.43h-4.61v-14.92Z"/>
      <path class="st2" d="M197.24,146.12c-.74.94-1.67,1.67-2.79,2.18s-2.29.77-3.5.77-2.23-.18-3.24-.55c-1.01-.37-1.89-.9-2.64-1.58-.75-.69-1.34-1.51-1.77-2.47-.43-.96-.64-2.04-.64-3.22s.21-2.26.64-3.22c.43-.96,1.02-1.79,1.77-2.47.75-.69,1.63-1.21,2.64-1.58,1.01-.37,2.09-.55,3.24-.55,1.06,0,2.03.18,2.9.55.87.37,1.61.9,2.21,1.58.6.69,1.07,1.51,1.4,2.47.33.96.49,2.04.49,3.22v1.44h-10.69c.18.88.58,1.58,1.2,2.1.61.52,1.37.78,2.27.78.76,0,1.4-.17,1.92-.51s.98-.77,1.37-1.31l3.22,2.36ZM193.34,139.55c.02-.78-.24-1.44-.77-2-.53-.55-1.22-.83-2.06-.83-.51,0-.96.08-1.35.25-.39.16-.72.37-1,.63s-.49.55-.64.89c-.15.34-.24.69-.26,1.06h6.08Z"/>
      <path class="st2" d="M210.9,137.46h-4.05v4.98c0,.41.02.78.06,1.12.04.34.13.63.28.87.14.25.36.44.66.57s.69.2,1.18.2c.25,0,.57-.03.97-.08.4-.05.7-.17.91-.35v3.84c-.51.18-1.04.31-1.6.37-.55.06-1.1.09-1.63.09-.78,0-1.49-.08-2.15-.25-.66-.16-1.23-.42-1.72-.78-.49-.36-.88-.82-1.15-1.4s-.41-1.27-.41-2.09v-7.09h-2.95v-3.68h2.95v-4.42h4.61v4.42h4.05v3.68Z"/>
      <path class="st2" d="M213.33,146.06c0-.39.07-.76.21-1.11s.34-.65.6-.91c.26-.26.56-.46.91-.6.35-.14.72-.22,1.11-.22s.76.07,1.11.22c.35.14.65.34.91.6.26.26.46.56.6.91.14.35.21.72.21,1.11s-.07.76-.21,1.11c-.14.35-.34.65-.6.91-.26.26-.56.46-.91.6-.35.14-.72.22-1.11.22s-.76-.07-1.11-.22c-.35-.14-.65-.34-.91-.6-.26-.26-.46-.56-.6-.91s-.21-.72-.21-1.11Z"/>
      <path class="st2" d="M222.32,125.49h4.61v14.19l5.1-5.9h5.65l-5.93,6.72,6.08,8.2h-5.8l-5.04-7.55h-.06v7.55h-4.61v-23.21Z"/>
      <path class="st2" d="M248,151.13c-.31.8-.6,1.5-.89,2.12-.29.61-.65,1.13-1.09,1.55-.44.42-1,.74-1.67.95-.68.22-1.57.32-2.67.32-1.19,0-2.33-.18-3.44-.55l.61-3.78c.7.31,1.41.46,2.15.46.51,0,.93-.06,1.26-.17.33-.11.6-.28.81-.49s.39-.48.54-.78.3-.67.46-1.07l.34-.86-6.54-15.05h4.97l3.84,9.86h.06l3.29-9.86h4.73l-6.76,17.35Z"/>
      <path class="st2" d="M253.74,146.06c0-.39.07-.76.22-1.11.14-.35.34-.65.6-.91.26-.26.56-.46.91-.6.35-.14.72-.22,1.11-.22s.76.07,1.11.22c.35.14.65.34.91.6s.46.56.6.91.22.72.22,1.11-.07.76-.22,1.11-.34.65-.6.91-.56.46-.91.6c-.35.14-.72.22-1.11.22s-.76-.07-1.11-.22c-.35-.14-.65-.34-.91-.6-.26-.26-.46-.56-.6-.91-.14-.35-.22-.72-.22-1.11Z"/>
      <path class="st2" d="M278.4,147.44c0,2.82-.71,4.97-2.13,6.43-1.42,1.46-3.59,2.2-6.49,2.2-1.33,0-2.64-.15-3.93-.45s-2.48-.87-3.56-1.73l2.55-3.81c.72.59,1.47,1.06,2.26,1.41.79.35,1.65.52,2.59.52,1.41,0,2.45-.34,3.12-1.03.66-.69,1-1.56,1-2.63v-1.44h-.06c-.53.72-1.19,1.22-1.98,1.52-.79.3-1.53.44-2.23.44-1.11,0-2.11-.19-3.01-.57-.9-.38-1.67-.91-2.32-1.6-.64-.69-1.14-1.5-1.49-2.44-.35-.94-.52-1.98-.52-3.1,0-.98.16-1.95.48-2.89.32-.94.77-1.77,1.35-2.49.58-.72,1.29-1.29,2.13-1.73.84-.44,1.79-.66,2.86-.66.66,0,1.25.07,1.8.22.54.14,1.03.33,1.46.55.43.23.8.48,1.11.75s.55.55.74.81h.06v-1.97h4.24v13.66ZM266.79,141.15c0,.49.09.96.28,1.4.18.44.44.83.78,1.17.34.34.73.61,1.17.81.44.21.93.31,1.46.31s.99-.1,1.44-.31c.45-.2.84-.48,1.18-.81.34-.34.6-.73.78-1.17.18-.44.28-.91.28-1.4s-.09-.96-.28-1.4c-.18-.44-.45-.83-.78-1.17s-.73-.61-1.18-.81c-.45-.2-.93-.31-1.44-.31s-1.02.1-1.46.31c-.44.2-.83.48-1.17.81-.34.34-.6.73-.78,1.17-.18.44-.28.91-.28,1.4Z"/>
      <path class="st2" d="M281.53,141.24c0-1.19.22-2.26.65-3.22.43-.96,1.02-1.79,1.77-2.47.75-.69,1.63-1.21,2.64-1.58,1.01-.37,2.09-.55,3.24-.55s2.23.18,3.24.55c1.01.37,1.89.9,2.64,1.58.75.69,1.34,1.51,1.77,2.47.43.96.64,2.04.64,3.22s-.22,2.26-.64,3.22c-.43.96-1.02,1.79-1.77,2.47-.75.69-1.63,1.21-2.64,1.58-1.01.37-2.09.55-3.24.55s-2.23-.18-3.24-.55c-1.01-.37-1.89-.9-2.64-1.58-.75-.69-1.34-1.51-1.77-2.47-.43-.96-.65-2.04-.65-3.22ZM286.13,141.24c0,1.13.32,2.04.97,2.73.64.7,1.55,1.04,2.72,1.04s2.07-.35,2.72-1.04c.64-.7.97-1.61.97-2.73s-.32-2.04-.97-2.73c-.65-.7-1.55-1.04-2.72-1.04s-2.07.35-2.72,1.04c-.65.7-.97,1.61-.97,2.73Z"/>
      <path class="st2" d="M299.25,133.78h4.97l3.78,10.13h.06l3.5-10.13h4.64l-5.9,14.92h-4.88l-6.17-14.92Z"/>
    </g>
    <g>
      <g>
        <path class="st0" d="M385.75,98.9c-.51-.11-.35.1-.62.3-.25.04-.08-.18-.16-.31-.21-.12-.21.23-.32.32-.05.11-.09.24-.2.3-.14.08-.25,0-.4,0-.07-.12-.04-.31-.16-.41-.19-.05-.23.11-.36.19-.17.08-.24-.06-.36-.17-.06-.06-.2-.04-.24-.13-.05-.08-.03-.21-.11-.29-.08-.06-.17-.01-.25.03-.15.29.21.58.15.86-.01.13-.04.29-.13.37-.17.06-.22-.17-.17-.29,0-.17-.18-.2-.3-.21-.2-.08-.31.14-.49,0-.17-.09.05-.26,0-.38-.13-.2-.27-.38-.45-.52-.06-.47-.51-.1-.82-.24-.16.07-.37.11-.54.23-.17.05-.41,0-.25-.19.18-.1.05-.36-.12-.23-.21.12-.42-.02-.61.11-.11.11-.11.25-.16.38-.06.13-.29.09-.41.07-.19-.02-.36-.34-.19-.48.04-.35-.41-.28-.58-.44-.03-.54.93-.1.98-.65-.11-.37-.19-1.06-.69-1.09-.32-.19-.41.32-.68.23-.87.09.24-1.57-.77-.99-.2.03-.26-.26-.2-.4.05-.19.37-.35.08-.46-.19-.1-.31.2-.49.24-.07-.07-.15-.16-.24-.2-.36-.37.32-.47.41-.73.01-.22-.46-.43-.24-.7.3-.39-.47-.37-.62-.15-.18.09-.11.29-.01.4.17.1.12.35.17.52.01.12.1.29-.07.36-.23.15-.46-.04-.69-.04-.1.26-.37.15-.62.19-.08-.03-.09-.08-.01-.12-.1-.15-.22-.28-.31-.44.03-.18.33-.48-.01-.56-.44.01-.16-.52-.44-.66-.08-.08-.2-.04-.27-.08-.08-.14-.18-.27-.36-.36-.33.01-.44.38-.73.34-.22.07-.34-.16-.49-.24-.15-.1-.33-.09-.44-.25-.05-.2-.2-.22-.32-.34-.05-.1-.12-.23-.19-.3-.17-.02-.09.18-.15.27-.04.08-.04.17-.11.24-.08-.04-.2-.03-.3-.09-.07-.11-.04-.31-.05-.49-.14-.12-.37.3-.5.11-.03-.28.63-.56.3-.73-.15-.14-.28-.31-.25-.53.11-.12.33-.17.28-.36-.07-.34-.52-.16-.61-.44-.03-.1-.03-.2-.13-.23-.05-.2-.02-.45-.28-.48-.13-.23-.13-.55-.2-.81-.12-.1-.27-.07-.4-.13-.14-.08-.25-.19-.37-.32-.07-.28.38-.54.6-.66-.24-.73.66-.44.42-.82-.32-.23-.5.16-.82.17-.83-.31.18-.41.24-.72-.05-.2-.3-.17-.42-.07-.14.13-.47,0-.41-.23.08-.38-.15-.54-.5-.49-.1-.12-.2-.35-.36-.4-.56.08-.43-.5-.93-.49-.33.06-.16-.32-.31-.48-.06-.19-.28-.34-.38-.52-.2.06-.28.42-.44.58-.41.25-.33-.32-.23-.53.15-.22.03-.53-.03-.74-.14-.14-.34-.23-.48-.38-.18-.35-.11-.59-.58-.58-.08-.19.24-.44.23-.66-.16-.08-.41-.12-.5-.29,0-.39.84-.09.82-.45-.09-.13-.3,0-.44-.08-.3-.21-.06-.68-.23-.95-.11-.14-.32-.15-.48-.2-.28-.14-.26-.53-.46-.73-.16-.08-.4-.12-.52-.25-.11-.25-.35-.26-.58-.27-.11-.1-.1-.42-.33-.33-.3.2.07.76-.24,1.01-.2.01-.31-.26-.17-.42.05-.23-.1-.48-.32-.57-.87-.14-.16-.34-.03-.65-.4-.26-.82.24-1.13-.44-.04-.48.65.05.65-.36-.16-.08-.63-.22-.4-.48.22-.06.48.19.64-.07.21-.26.54-.54.56-.86-.18-.13-.59-.03-.68-.27-.2-.79.64-.34.86-.66.18-.21.23-.69-.17-.7-.27-.15-.51.31-.7.13-.31-.62.14-1.03-.86-.86-.14-.03-.3-.2-.45-.12-.12.17-.42.17-.48-.01.01-.1.26-.19.16-.32-.05-.03-.14,0-.17-.07-.1-.11-.17-.29-.25-.42-.28-.62.1-.63-.61-1.05-.26-.24-.19-.53-.16-.82-.3-.19-.42-.53-.41-.86-.28-.14-.22-.4-.28-.64-.09-.14-.25-.11-.4-.15-.18-.06-.28-.33-.38-.49-.07-.13-.26-.05-.37-.07-.12-.05-.22-.17-.32-.29l-7.42,53.04h-15.04l9.54-68.25h12.23c-.08-.12-.18-.23-.34-.3-.2-.24-.26-.55-.62-.57-.22-.41-.17-1.02-.12-1.48.13-.34.3-.71.04-1.03-.08-.17-.24-.31-.24-.5-.05-.21.23-.34.23-.52-.09-.47-.3-.99-.01-1.43-.22-.24-.25-.57-.37-.86-.23-.9-.15-2.07-1.06-2.57-.51-.24-1.07-.4-1.51-.77-.57-.42-.96-1.05-1.46-1.58-.33-.48-.5-1.06-.94-1.43-.44-.46-1.14-.6-1.59-1.05-.62-.08-1.48-.04-2.15-.03-.55.15-1.11.1-1.62-.16-2.5-1.26-2.79-2.27-2.98-4.97-.03-.39-.15-1.36-.54-1.82-.47-.44-.68-.97-.54-1.59.13-1.03.52-2.22-.21-3.1-.06-.2-.29-.05-.4-.21.11-.11-.09-.17-.19-.17-.29-.08-.53.06-.78.15-1.09.29-2.17.86-2.94,1.64-.06.08-.17.11-.24.2-.04-.01.06-.08.01-.09-.2.18-.44.2-.7.17-.52-.18-1.33-.26-1.48-.09-.18.09-.38-.02-.57.12-.31.18-.43.55-.57.86-.15.51-.46,1.07-.89,1.39-.57.64-1.53.79-2.28,1.17-1.11.76-.64,2.38-1.67,3.25-.48.26-.91.42-1.47.38-.58.04-1.23.42-1.82.19-.59-.3-1.63-1.01-2.16-.3-.15.14-.47.05-.6.26-.14.17-.11.37-.28.52-.26.32-.5.66-.8.94-.29.19-.62.05-.9-.09-.84-.47-.62-1.19-.85-1.91-.35-.65-1.21-1.05-1.9-1.46-1.03-.6-2.5-.51-3.31-.72-.77.15-1.37-.28-2.08-.33-.3-.21-.49-.53-.78-.76-1.3-1.24-2.73-.93-4.19-.17-.52.21-1.2.2-1.59.62-.36-.08-.74.04-1.03.27-1.7,1,.46,5.09-3.98,2.72-.29-.01-.52-.15-.73-.37-.45-.15-.99-.02-1.45-.16-1.68.05-1.34-1.82-1.87-2.9-.48-.69-1.43-.46-2.07-.87-1.37-.58-.57-2.14-1.83-2.84-.74-.41-1.56-.46-2.39-.62-.22-.08-.48.03-.69-.09-.07,0-.35-.04-.24-.13.24-.05-.15-.11-.2-.19-.23-.15-.42-.37-.68-.46-.5-.24-1.06-.17-1.59-.17-.72.34-1.49.52-2.21.85-1.94.81-3.83.07-5.46-.7-1.13-.43-2.36-.47-3.53-.73-2.51-1.04-.76-4.29-1.91-6.05-.74-1.39-1.98-2.49-2.73-3.9-.46-1.77-.24-2.98-2.08-4.22-2.91-1.87-5,.76-5.12-3.57.23-1.02-.99-2.43-2.04-1.83-.72.41-.8,1.48-1.67,1.7-.33.1-.71.2-.99-.05-1.59-1.04-1.01,1-3.09,1.19-.53.47-1.25.26-1.84.09-.48-.41-.84-1.04-1.47-1.23-1.66.23-1.95-1.72-3-2.59-1.78-1.37-2.24.38-3.23,1.62-3.37,1.09-2.26,1.97-4.45,2.93-.46.22-1.08.85-.56,1.31.2.59.64.93,1.05,1.29.42.59,1.06,1.16,1.25,1.87.47.45.88,1.06.91,1.72.05.83-.76,1.12-1.13,1.74-.78.84-1.73,1.62-.73,2.7.78.34,1.95.05,2.72.24.71.17,1.77.67,1.46,1.56-.2,1.18-1.64,1.43-2.08,2.45-.17.77.58,1.29.81,1.96.84,2.52-3.2-.28-4.22.65-2.12,1.43-1.95.94-4.16.85-.59.03-.91.57-1.38.88-.63.39-1.39.62-1.9,1.17-.83.32-1.54.87-2.25,1.37-.42.17-.62.78-1.1,1.03-1.38,1.61-4,2.22-5.24.25-.47-.59-.57-1.31-1.39-1.71-1.21-.62-2.93-.3-3.92.16-2.52.98-3.12-.94-4.97.53-.57,1.04-.9,1.27-.94,2.48-.02.6.59.95.77,1.48.4,1.01.04,2.25.16,3.34.07,1.31,1.39,2.28,1.25,3.65.23,1.7-1.57,2.05-2.62,2.82-.6.74-.54,1.86-1.33,2.52-2.74,2.03-5.2-.3-6.39,4.14-.01.02-.02.05-.03.07h13.37c5.46,0,10.55.61,15.28,1.83,4.72,1.22,8.74,3.2,12.05,5.93,3.31,2.73,5.72,6.28,7.23,10.65,1.51,4.37,1.85,9.67,1.01,15.9-.77,5.53-2.49,10.4-5.16,14.6-2.67,4.21-5.96,7.74-9.88,10.6-3.92,2.86-8.31,5.03-13.16,6.51-4.85,1.48-9.82,2.22-14.89,2.22h-24.58l7.95-56.84c-.25.3-.61.63-1.16,1.02-2.22,1.99-1.7,4.4-1.44,7.03.05.99-.55,1.43-.57,2.25-.15.97.02,2.14-.76,2.89-.27.19-.45.57-.78.64-.49.02-.96.26-1.45.12-.96.37-2.63.08-2.86,1.31.45,2.95-1.46,1-1.9-.45-.13-.76-1.6-1.7-2.96-1.58-.75-.06-1.37.53-2.12.4-1.01-.48-2.12-.94-2.9-1.75-.3-.35-1.19-.55-1.56-1.03-.83-1.02-.87-2.65-.49-3.87.51-1.2-.32-2.51-1.37-3.13-1.16-.33-1.73-1.59-2.82-2-1.21-.07-1.41,1.96-.38,2.35,1.02.21,2.95.19,1.94,1.72-.77,1.05-2.43-.49-3.09.76-.25.36-.07,1.01-.61,1.13-.58-.37-.93-1.24-1.67-1.41-.97-.33-1.95.8-1.37,1.7.33.68,1.55.39,1.64,1.25-.23,3.18-3.58,1.48-4.53,2.61-.34,1.36-.09,2.85-.15,4.24,0,1.62,2.28,2.43-.29,3.35-1.03.31-2.3-.93-3.09.07-.83.99.27,2.51-.44,3.51-.67.92-3.48,2.23-2.92-.11.06-.89,1.58-2.32.46-3.02-.56-.11-1.14-.41-1.67-.15-.37.33-.75.64-1.14.95-.29.13-.52.49-.85.3-.78-.12-1.13-1.1-1.52-1.7-.33-.53-.66-1.12-.89-1.7-.16-.16-.28-.35-.31-.57,0,0,.12.1.07,0-.39-.61-.55-1.35-.84-2.03-.33-.12-.88-.75-1.34-.62-.56.34-1.29.46-1.83.86-.52.57-1.17,1.07-1.55,1.75-1.03,1.61-2.62,1.52-4.04,1.59-1.14.39-2.35.9-3.23,1.76-.5.42-.55,1.05-.32,1.62.16.65-.34,1.23-.38,1.86-.17.69-.22,1.49-.66,2.05-.15,1.37-1.98,2.64-3.23,1.86-.39-.35-.26-.94-.44-1.41-.2-.51-.48-.98-.77-1.45-.1-.29-.37-.48-.62-.62-.18-.09-.48.1-.66.01-.8-.12-1.66-.19-2.33-.68-1.86-1.07-3.2-3.03-5.34-3.54-.42.11-.78-.37-1.05-.64-.07-.19-.36-.08-.45-.25-.21-.18-.48-.53-.48-.62-1.01-.6-2.21-1.01-3.37-.72-.93.19-1.63.97-2.31,1.58-.41.27-.7.8-1.21.72-.95-.85-2.42-1.04-2.92-2.37-.11-.13-.08-.38-.17-.48-.07-.02-.17-.02-.09-.11.27-.52,0-1.22-.54-1.39-1.33-.15-.43,1.72-1.43,2.15-.09.06-.34.29-.29.29.11-.09.24-.17.19.03-.05.16-.19.28-.2.45,0,.12-.23.27-.27.09.02-.32-.15.17-.05.28.05.32.24.58.3.86.34.52,1,.78,1.43,1.23.1.52.2,1.14.2,1.7-.26.7-.77,1.43-1.35,1.92-.95.31-2.11.63-2.96.03-.54-.76-.39-1.77.19-2.48.74-.71.39-2.16-.7-2.05-.51.21-.98.55-1.54.64-.43.14-.84-.22-1.27-.09-2.6.45-1.19,1.54-4.07,1.1-.32,0-.68-.1-.85-.4.07-.23-.14-.45-.2-.65-.18-.22-.55-.33-.64-.62-.07-.26-.18-.56-.34-.78-.39-.55-1.1-.98-1.78-.74-.72.48-1.06,1.37-1.67,1.96-.69.71-.22,1.77.4,2.39.58.35.82.92.9,1.51.04.54.36,1.18-.04,1.66-.37.33-.99.31-1.34.65-.08.12.07.27-.07.38-.28.27-.28.69-.49,1.01-.62.52-1.17-.55-1.55-.91-.38-.2-.79-.45-1.17-.68-.61-.28-1.5-.29-1.79.45-.32,1.51-.76,3.35-2.43,3.86-.33.19-.66.43-.91.72-.41.22-.94.27-1.18.72-.14.32-.41.6-.46.94-.33.28-.6.57-.82.94-.72,1.01-.5,2.39-.07,3.45.13.46.43.89.52,1.37-.04.57.1,1.12.38,1.62.6.42,1.28.92,1.63,1.59.16.29.32.69.61.89.26.16.69.18.85.5.4.75.6,1.69.16,2.45-.04.14-.16.19-.28.12-.14.08-.08.33-.27.42-.13.29-.45.71-.73.34-.3-.04-.6.04-.9.05-.45.03-.93.11-1.38.05-.56.19-1.15.31-1.75.36-.91.3-2.06.41-3.08.49-1.26-.03-2.61.1-3.71.84-.5.33-1.01.62-1.39,1.07-.5.54-.86,1.31-1.62,1.46-.29,0-.4-.28-.52-.5-.19-.16-.36-.35-.58-.48-.46-.48-1.21-.68-1.76-.24-1.04.15-1.98.87-2.52,1.76-.35.93-.42,1.97-.58,2.92-.31.79-.77,1.55-1.07,2.36-.38.57-.7,1.33-.38,1.83.27.13.11.87.37.82.16.05-.09.12-.12.17-.04-.04-.07.02-.12.01-.04-.03-.07-.11-.13-.11-.01.2.22.2.33.33.24.45.74.63.99,1.07.18.5.31,1.07.73,1.45.32.19.62.35.85.65.52.51.45,1.33.77,1.94.12.34.11.72.24,1.03.14.21.33.37.38.62-.19.56-.38,1.11-.58,1.67-.21.31-.48.86-.34,1.06.17-.2.02.16,0,.23,0,.13-.16.24-.19.34.08.06.05.16.04.24-.12.34-.36.62-.57.9-.04.19-.2.42-.4.48-.41.11-.81.41-1.22.29-.51.02-.93.22-1.46.15-.81-.07-1.62-.4-2.33-.77-.04,0-.11-.03-.15-.04,0,.05.08.08.05.13-.03.08-.17-.07-.2-.11-.42-.24-.15-.79-.6-1.05-.83-.66-1.57-1.62-2.66-1.76-1.03-.22-1.93-.99-2.94-1.33-.19-.02-.36-.12-.53-.11.09.07-.08.09-.13.08-.05-.17-.36.04-.5.03-.28.02-.56-.1-.8-.23-.77-.52-1.52-1.05-2.2-1.67-.53-.5-.98-1.17-1.78-1.27-1.97-.81-3.83-1.85-5.89-2.47-.12,0-.45-.1-.54-.08.1.11.4.1.48.23-.4.08-.84.04-1.23-.05-.27.05-.52-.18-.76-.19-.08-.07.37-.04.3-.11-.16.05-.54-.08-.58.16-.12.12-.56.27-.45.16.16-.01.27-.06.4-.15.05-.05.17-.2.01-.12-.41.05-.79.14-1.15.29-.1.05-.43.24-.27.19.09-.04-.23.2-.32.28-1.29.36-1.99,1.51-3.01,2.35-.76.58-1.19,1.45-1.43,2.36-.34.49-.37,1.09-.85,1.51.05-.09.09-.21.15-.29.07-.04.16-.08.17-.16-.06.03-.1.08-.16.11-.33.4-.67.83-1.14,1.07-.16.18-.16.51-.38.6-.99.36-2.27,2.23-2.07,3.82,0,1.15.83,2.02,1.67,2.7.45.5.7.44,1.27.48,1.68.58,1.03,2.46.62,3.66-.23,1.45-.82,2.83-1.31,4.19-.09.31-.4.85-.81.64-.15,0-.41,0-.45.19-.14.14-.37.07-.56.07-.16.05-.33.17-.41.3-.3.28-.15.98-.21,1.38-.09.73.6,1.63,1.35,1.74.69.02,1.49-.08,1.68.76.13.53,0,1.21-.45,1.58-.06-.03-.53.06-.56-.05-.16-.11-.28-.22-.49-.24-.35.04-.75-.06-1.06-.25-.78.14-1.42.79-1.64,1.54-.29.83.16,1.57.74,2.15.46.41.95.83.77,1.51-.02.1-.17.21-.17.29.11-.02.7.34.57.44-.32.46-.67.9-1.14,1.22-1.18.83-.89,2.51-1.48,3.67-.47,1.21-2.33,1.82-3.24.81-.68-.81-1.34-1.79-1.8-2.74-.3-.53-.64-1.26-1.38-1.1-.79.1-1.71.36-1.99,1.19-.17,1.06-.36,2.13-.94,3.06-.3,1.36-.8,2.7-1.3,4.03,2.41.11,6.04-.61,8.48-.24,16.97.79,34.01.86,50.99,1.31,3.17.06,6.49.16,9.65.29.22-.34.66-.54.77-.95.02-.53.2-1.02.3-1.54-.15-1.75-.41-3.57-.9-5.26-.22-.46-.16-.97-.34-1.43-.45-.97-1.29-2.57.5-2.16,3.01.03,6.55.81,9.54.95,1.7-.04-1.23,2.53,1.43,1.91,11.72-.25,23.75-.34,35.49-.33,8.49-.14,17.05-.36,25.53-.62,2.06-.8,3.32,2.27,3.79.41.46.52,1.88-.65,2.65-.48,13.08.15,26.26,1.68,39.35,1.66,12.81.73,25.56-1.75,38.37-.3,19.64,1.32,39.45.06,59.13.28,1.04.23,4.37-.12,5.34-.17.12-.52.69-.67.69-1.23.1-.12.29-.16.45-.19.14-.08.23-.22.34-.34.11-.12.27-.14.34-.32-.02-.07.09-.06.12-.04,0-.12.04-.17.04-.28.03,0,0-.06,0-.08,0-.12.12.02.13-.08,0-.06.1-.09.12-.03.06-.07.16-.05.24-.03.19.12.41,0,.62-.08.29-.08.47-.34.57-.58.02-.07.08-.07.15-.05.05-.04.07-.12.13-.15.22-.06.34,0,.56-.13.15-.12.46-.16.52-.28.04-.18.11.13.2.08.03.06.09-.03.15-.01.06-.06.2.09.2-.05.13-.16.36-.12.48-.3.19-.07.17-.29.38-.33.34-.12.73-.11.95-.41.2-.02.22-.21.4-.28.03-.12-.07-.16.07-.21.11-.03.27,0,.4-.08.13,0,.23-.19.34-.08.13-.05.17-.17.33-.08.32.04.67-.29.91-.01.58.21,1.19.16,1.78.16.36.02.64-.24.99-.12.74-.06,1.36-.42,2-.74.1-.05-.02-.15.07-.21.05-.03.1-.05.11-.12.02-.04.26-.1.16-.16,0-.11.29-.2.41-.2.08-.14.27-.23.45-.2.19-.11.41-.39.64-.21.55-.46,1.2-.68,1.88-.9.31-.11.6-.34.93-.33.2-.23.57-.06.81-.23,1.47-.63,2.97-1.01,4.41-1.67.33-.14.71-.13,1.06-.12.14-.03.28-.03.44-.09.04-.04.14.03.08.07.05,0,.11-.03.16-.01.12.03.22-.11.33-.13.05-.06.22.04.21-.08.19,0,.41.07.58,0,.22-.07.41-.04.41-.29-.05,0-.05-.11-.04-.15-.09-.07.07-.06.09-.08.07.05.12-.02.19-.04,0-.14-.06-.39-.04-.56.07,0,.05-.05.09-.11.09-.02.03-.06-.03-.08-.1-.04-.3-.08-.28-.2.12-.04,0-.17.12-.2.05-.11-.06-.18-.16-.17-.02-.14.17-.11.15-.23.11-.1-.14-.27-.13-.41-.24-.33.31-.25.46-.34.2-.18.32-.49.49-.74.15-.24.51-.31.44-.66-.07-.17.12-.19.2-.27.04-.17-.05-.41-.03-.61.07-.13-.09-.17-.15-.27-.07-.23.19-.36.36-.44.17-.02.26-.18.33-.32.17-.04.33-.11.48-.19.06-.02.18.05.16-.07.07-.31-.25-1.09.37-.65.12.03.24,0,.3-.13.22.05.39.1.61.09.15.05.26-.17.38-.2.24,0,.46.02.7-.07.11.06.1.27.25.33.15-.03.38.09.5.17.08-.1.23.02.31-.07.14-.23.24-.52.49-.61.13-.04.25-.06.36-.13.18,0,.32.04.5-.07.15-.01.3.05.42.12.12-.04.16-.14.29-.19.17-.22.5-.14.65-.38.11-.03.27,0,.4-.05.09.04.17-.1.31-.05.03-.25.34-.19.52-.25.23-.27.63-.19.97-.28.04-.05.01-.1-.01-.15-.1-.21.18-.16.27-.24.2-.11.41-.14.61-.24.08-.29.4-.27.58-.4.07-.14-.1-.4.16-.44.14-.03.38-.13.32-.29-.2-.08-.35-.3-.48-.44.14-.24.3-.44.49-.6.05-.28.31-.45.45-.72-.04-.17-.08-.27-.15-.4.02-.16-.13-.27-.11-.42,0-.15.06-.31.08-.46.06-.07.28-.35.16-.29-.15,0-.21-.21-.33-.25-.11.02-.21-.01-.15-.13-.03-.06-.12-.13-.09-.23-.02-.07-.11-.02-.15-.07,0-.09-.08-.16-.05-.24.2-.04.03-.23.08-.34-.03-.25.18-.27.32-.4.08.08.12.12.23.12.1-.04.05-.12.08-.2-.02-.08.09-.16.13-.25.13.02.17.14.3.07.13.03.18-.05.27-.15.02-.14.22,0,.25-.11.07-.05.05-.17.09-.24.1-.06.25-.12.24-.29.12-.13-.06-.25-.03-.37-.08-.21.27-.44.33-.19.11.1.19-.26.29-.09.02-.01.05-.02.04-.05-.06-.18.15.06.17.07.15-.21.6-.05.78-.29.11.06.08.21.21.24.11-.02.18-.13.25-.21.12-.01.25.1.34,0,.03-.14.16-.27.2-.41-.01-.14.14,0,.23-.05.09.02.05-.11.13-.13.07-.13.13-.26.21-.38.01-.06.09-.08.15-.07.03-.06.06-.12.12-.15.13-.11.41-.02.49.15,0,.1.09,0,.13-.03,0-.06-.03-.15.03-.2.16-.29.08-.62.17-.93.11-.09.33-.14.48-.16.11.09.31.15.45.08.14-.11.05-.3.07-.48-.09-.24.03-.42-.03-.65-.03-.13-.17-.25-.19-.38.08-.16-.16-.36.03-.45.09-.18.3-.05.41-.21.01-.16-.11-.24-.23-.32.05-.08-.03-.12-.08-.15-.05,0-.03-.14-.05-.19-.04-.05,0-.1.03-.13-.01-.07-.18-.08-.11-.17.09-.06.16-.17.09-.27.05-.09.05-.3-.03-.37-.11-.06.05-.11.03-.2-.08-.14-.28-.4-.25-.56.13-.21.27-.56.56-.46.07-.18.28-.19.41-.29.03-.13.23-.11.32-.21.28-.23.69-.34.89-.53.05-.03.11.06.16.11.06.06.14-.05.2-.04.05-.04.08-.12.08-.16.19.04.18-.27.37-.29.09.02.12-.09.17-.12.08.05.18-.07.25-.04.06,0,.06-.07.03-.11.06-.02.05-.09.07-.13-.05-.15.15-.22.25-.23,0,.06.13.16.17.07.04,0,.1-.02.08-.07.1-.19.46-.09.58-.23.19-.22.34-.52.53-.69.42-.32.82-.61,1.3-.87.05-.09.13-.14.09-.25.15-.16.49-.28.7-.44.53-.31.97-.82,1.42-1.05,0,.04.03.12.05.09.05-.06.1-.05.15-.01.1-.1.16-.23.32-.27.04.08.11-.05.12,0,.11.03.23,0,.3-.11-.18-.13-.03-.33.11-.36.08-.01.14-.11.21-.05.06.02.09.22.19.13.03-.08.17-.11.2-.2.07-.12.21-.14.33-.25.05-.14.03-.27.21-.33.15-.07.29-.19.44-.23.07.31.41.05.45-.12.01-.05.03-.06-.03-.08.06-.08.18-.1.29-.13.15-.09.4-.28.56-.23.07.07.09-.1.13-.05.14.07.18-.08.24-.16.07,0,.15-.04.2.01.08.01.08-.06.13-.09-.01-.07.15-.07.17-.13.02-.1.12-.13.2-.17.09-.04.15.03.24.04.04-.02.04-.07.04-.12.05-.04.14-.07.13-.13.09-.04.19.03.28,0,.43.03.8-.4,1.15-.46.24.06.4-.21.6-.16.3-.15.59-.33.94-.33.2.02.31-.07.46-.16.07-.05.23-.03.28-.15.25-.04.48-.07.7-.21.06-.07.13-.06.09-.17-.05.01.04-.08-.03-.09,0-.12.16-.08.23-.13.29-.04-.08-.4.07-.52.05.03.08,0,.13,0,.03.06.09.09.17.09.04-.03.01-.06.01-.11.05-.06.13.03.19-.03.1-.07.29-.12.41-.12.03-.14.17-.17.24-.27,1.3-2.13,4.22-4.19,6.04-6.2,3.6-3.54,7.64-7.08,10.88-10.82-.24-.32-.6-.15-.81.12ZM273.97,93.96c.64,2.67,1.75,4.98,3.33,6.94,1.57,1.96,3.58,3.49,6.02,4.58,2.44,1.09,5.27,1.64,8.48,1.64s6.17-.37,8.68-1.11c2.51-.74,4.5-1.49,5.98-2.27l1.54-11.09h-12.24l2.02-13.88h26.7l-5.01,35.67c-4.82,2.31-9.7,3.99-14.65,5.01-4.95,1.03-9.93,1.54-14.94,1.54-5.33,0-10.14-.84-14.41-2.51-4.27-1.67-7.82-4.06-10.65-7.18-2.83-3.12-4.85-6.89-6.07-11.33-1.22-4.43-1.45-9.38-.67-14.84.77-5.46,2.39-10.41,4.87-14.84,2.47-4.43,5.56-8.21,9.25-11.33,3.69-3.12,7.92-5.51,12.68-7.18,4.75-1.67,9.8-2.51,15.13-2.51s10.39.66,14.8,1.98c4.4,1.32,8.11,3.58,11.13,6.8l-12.24,11.57c-1.74-2.12-3.82-3.73-6.27-4.82-2.44-1.09-5.59-1.64-9.45-1.64-3.21,0-6.2.55-8.96,1.64-2.76,1.09-5.21,2.62-7.33,4.58-2.12,1.96-3.87,4.29-5.25,6.99-1.38,2.7-2.3,5.62-2.75,8.77-.45,3.21-.35,6.15.29,8.82Z"/>
        <path class="st0" d="M218.45,104.32c3.08-.71,5.83-1.88,8.24-3.52,2.41-1.64,4.42-3.79,6.02-6.46,1.61-2.67,2.7-5.93,3.28-9.78.45-3.34.24-6.25-.63-8.72-.87-2.47-2.27-4.51-4.19-6.12-1.93-1.61-4.26-2.81-6.99-3.61-2.73-.8-5.67-1.2-8.82-1.2h-8.87l-5.69,40.48h7.81c3.47,0,6.75-.35,9.83-1.06Z"/>
        <path class="st2" d="M208.43,119.26c5.08,0,10.04-.74,14.89-2.22,4.85-1.48,9.24-3.65,13.16-6.51,3.92-2.86,7.21-6.39,9.88-10.6,2.67-4.21,4.39-9.08,5.16-14.6.83-6.23.5-11.53-1.01-15.9-1.51-4.37-3.92-7.92-7.23-10.65-3.31-2.73-7.33-4.71-12.05-5.93-4.72-1.22-9.82-1.83-15.28-1.83h-13.37c-.61,1.26-.29,2.79-.87,4.08-.34.98-.93,1.97-1.66,2.69-.99.63-1.98,1.26-2.96,1.87-.45.1-.92-.24-1.17-.53-.16-.02.03-.18-.03-.27-.1-.12-.25-.18-.32-.3.08.08.07,0,.01-.03-.22-.03-.43-.19-.66-.17-.67.27-1.51.22-2.08.7-.91,1.6-.1,2.22-1.06,3.37l-7.95,56.84h24.58ZM206.5,64.9h8.87c3.15,0,6.09.4,8.82,1.2,2.73.8,5.06,2.01,6.99,3.61,1.93,1.61,3.33,3.65,4.19,6.12.87,2.47,1.08,5.38.63,8.72-.58,3.86-1.67,7.12-3.28,9.78-1.61,2.67-3.61,4.82-6.02,6.46-2.41,1.64-5.16,2.81-8.24,3.52-3.08.71-6.36,1.06-9.83,1.06h-7.81l5.69-40.48Z"/>
        <path class="st2" d="M276.43,76.37c1.38-2.7,3.13-5.03,5.25-6.99,2.12-1.96,4.56-3.49,7.33-4.58,2.76-1.09,5.75-1.64,8.96-1.64,3.86,0,7,.55,9.45,1.64,2.44,1.09,4.53,2.7,6.27,4.82l12.24-11.57c-3.02-3.21-6.73-5.48-11.13-6.8-4.4-1.32-9.34-1.98-14.8-1.98s-10.38.84-15.13,2.51c-4.76,1.67-8.98,4.06-12.68,7.18-3.7,3.12-6.78,6.89-9.25,11.33-2.47,4.43-4.1,9.38-4.87,14.84-.77,5.46-.55,10.41.67,14.84,1.22,4.43,3.24,8.21,6.07,11.33,2.83,3.12,6.38,5.51,10.65,7.18,4.27,1.67,9.08,2.51,14.41,2.51,5.01,0,9.99-.52,14.94-1.54,4.95-1.03,9.83-2.7,14.65-5.01l5.01-35.67h-26.7l-2.02,13.88h12.24l-1.54,11.09c-1.48.77-3.47,1.53-5.98,2.27-2.51.74-5.4,1.11-8.68,1.11s-6.04-.55-8.48-1.64c-2.44-1.09-4.45-2.62-6.02-4.58-1.58-1.96-2.68-4.27-3.33-6.94-.64-2.67-.74-5.61-.29-8.82.45-3.15,1.36-6.07,2.75-8.77Z"/>
        <path class="st2" d="M331.81,119.26h15.04l7.42-53.04c-.07-.07-.13-.14-.21-.18-.48-.63.26-1.01-.69-1.43-.69-1.09-1.41.28-1.35-1.17-.13-.23-.51-.16-.73-.29-.31-.52-.08-1.23-.53-1.74-.09-.51.65-.4.95-.37.42.28.8-.2.81-.61.09-.42.34-.86.38-1.27,0-.39.04-.86-.07-1.21-.66-.16-.82-.95-.56-1.5.12-.64.86.05,1.26-.31.34-.62.58-1.52.16-2.12-.15-.31,0-.72-.28-.95-.1-.51.57-.9.48-1.38-.13-.22-.18-.48-.31-.68h-12.23l-9.54,68.25Z"/>
      </g>
      <g>
        <path class="st1" d="M9.97,167.09c-.13-1.29-.57-2.48-2.04-2.53-.97-.13-1.48-.75-2.49.01-1.49,1.07-.46,3.11.4,4.27.03.94,2.52.58,3.06.7.52-.72,1.12-1.51,1.07-2.45Z"/>
        <path class="st1" d="M386.56,98.78c-.24-.32-.6-.15-.81.12-.51-.11-.35.1-.62.3-.25.04-.08-.18-.16-.31-.21-.12-.21.23-.32.32-.05.11-.09.24-.2.3-.14.08-.25,0-.4,0-.07-.12-.04-.31-.16-.41-.19-.05-.23.11-.36.19-.17.08-.24-.06-.36-.17-.06-.06-.2-.04-.24-.13-.05-.08-.03-.21-.11-.29-.08-.06-.17-.01-.25.03-.15.29.21.58.15.86-.01.13-.04.29-.13.37-.17.06-.22-.17-.17-.29,0-.17-.18-.2-.3-.21-.2-.08-.31.14-.49,0-.17-.09.05-.26,0-.38-.13-.2-.27-.38-.45-.52-.06-.47-.51-.1-.82-.24-.16.07-.37.11-.54.23-.17.05-.41,0-.25-.19.18-.1.05-.36-.12-.23-.21.12-.42-.02-.61.11-.11.11-.11.25-.16.38-.06.13-.29.09-.41.07-.19-.02-.36-.34-.19-.48.04-.35-.41-.28-.58-.44-.03-.54.93-.1.98-.65-.11-.37-.19-1.06-.69-1.09-.32-.19-.41.32-.68.23-.87.09.24-1.57-.77-.99-.2.03-.26-.26-.2-.4.05-.19.37-.35.08-.46-.19-.1-.31.2-.49.24-.07-.07-.15-.16-.24-.2-.36-.37.32-.47.41-.73.01-.22-.46-.43-.24-.7.3-.39-.47-.37-.62-.15-.18.09-.11.29-.01.4.17.1.12.35.17.52.01.12.1.29-.07.36-.23.15-.46-.04-.69-.04-.1.26-.37.15-.62.19-.08-.03-.09-.08-.01-.12-.1-.15-.22-.28-.31-.44.03-.18.33-.48-.01-.56-.44.01-.16-.52-.44-.66-.08-.08-.2-.04-.27-.08-.08-.14-.18-.27-.36-.36-.33.01-.44.38-.73.34-.22.07-.34-.16-.49-.24-.15-.1-.33-.09-.44-.25-.05-.2-.2-.22-.32-.34-.04-.1-.12-.23-.19-.3-.17-.02-.09.18-.15.27-.04.08-.04.17-.11.24-.08-.04-.2-.03-.3-.09-.07-.11-.04-.31-.05-.49-.14-.12-.37.3-.5.11-.03-.28.63-.56.3-.73-.15-.14-.28-.31-.25-.53.11-.12.33-.17.28-.36-.07-.34-.52-.16-.61-.44-.03-.1-.03-.2-.13-.23-.05-.21-.02-.45-.28-.48-.13-.23-.13-.55-.2-.81-.12-.1-.27-.07-.4-.13-.14-.08-.25-.19-.37-.32-.07-.28.38-.54.6-.66-.24-.73.66-.44.42-.82-.32-.23-.5.16-.82.17-.83-.31.18-.41.24-.72-.05-.2-.3-.17-.42-.07-.14.14-.47,0-.41-.23.08-.38-.15-.54-.5-.49-.1-.12-.2-.35-.36-.4-.56.08-.43-.5-.93-.49-.33.06-.16-.32-.31-.48-.06-.19-.28-.34-.38-.52-.2.06-.28.42-.44.58-.41.25-.33-.32-.23-.53.15-.22.03-.53-.03-.74-.14-.14-.34-.23-.48-.38-.18-.35-.11-.59-.58-.58-.08-.19.24-.44.23-.66-.16-.08-.41-.12-.5-.29,0-.39.84-.09.82-.45-.09-.13-.3,0-.44-.08-.3-.21-.06-.68-.23-.95-.11-.14-.32-.15-.48-.2-.28-.14-.26-.53-.46-.73-.16-.08-.4-.12-.52-.25-.11-.25-.35-.26-.58-.27-.11-.1-.1-.42-.33-.33-.3.2.07.76-.24,1.01-.2.01-.31-.26-.17-.42.05-.23-.1-.48-.32-.57-.87-.14-.16-.34-.03-.65-.4-.26-.82.24-1.13-.44-.04-.48.65.05.65-.36-.16-.08-.63-.22-.4-.48.22-.06.48.19.64-.07.21-.26.54-.54.56-.86-.18-.13-.59-.03-.68-.27-.2-.79.64-.34.86-.66.18-.21.23-.69-.17-.7-.27-.15-.51.31-.7.13-.31-.62.14-1.03-.86-.86-.14-.03-.3-.2-.45-.12-.12.17-.42.17-.48-.01.01-.1.26-.19.16-.32-.05-.03-.14,0-.17-.07-.1-.11-.17-.29-.25-.42-.28-.62.1-.63-.61-1.05-.26-.24-.19-.53-.16-.82-.3-.19-.42-.53-.41-.86-.28-.14-.22-.4-.28-.64-.09-.14-.25-.11-.4-.15-.18-.06-.28-.33-.38-.49-.07-.13-.26-.05-.37-.07-.19-.08-.33-.36-.53-.46-.48-.63.26-1.01-.69-1.43-.69-1.09-1.41.28-1.35-1.17-.13-.23-.51-.16-.73-.29-.31-.52-.08-1.23-.53-1.74-.09-.51.65-.4.95-.37.42.28.8-.2.81-.61.09-.42.34-.86.38-1.27,0-.39.04-.86-.07-1.21-.66-.16-.82-.95-.56-1.5.12-.64.86.05,1.26-.31.34-.62.58-1.52.16-2.12-.15-.31,0-.72-.28-.95-.1-.51.57-.9.48-1.38-.21-.35-.22-.8-.65-.98-.2-.24-.26-.55-.62-.57-.22-.41-.17-1.02-.12-1.48.13-.34.3-.71.04-1.03-.08-.17-.24-.31-.24-.5-.05-.21.23-.34.23-.52-.09-.47-.3-.99-.01-1.43-.22-.24-.25-.57-.37-.86-.23-.9-.15-2.07-1.06-2.57-.51-.24-1.07-.4-1.51-.77-.57-.42-.96-1.05-1.46-1.58-.33-.48-.5-1.06-.94-1.43-.44-.46-1.14-.6-1.59-1.05-.62-.08-1.48-.04-2.15-.03-.55.15-1.11.1-1.62-.16-2.5-1.26-2.79-2.27-2.98-4.97-.03-.39-.15-1.36-.54-1.82-.47-.44-.68-.97-.54-1.59.13-1.03.52-2.22-.21-3.1-.06-.2-.29-.05-.4-.21.11-.11-.09-.17-.19-.17-.29-.08-.53.06-.78.15-1.09.29-2.17.86-2.94,1.64-.06.08-.17.11-.24.2-.04-.01.06-.08.01-.09-.2.18-.44.2-.7.17-.52-.18-1.33-.26-1.48-.09-.18.09-.38-.02-.57.12-.31.18-.43.55-.57.86-.15.51-.46,1.07-.89,1.39-.57.64-1.53.79-2.28,1.17-1.11.76-.64,2.38-1.67,3.25-.48.26-.91.42-1.47.38-.58.04-1.23.42-1.82.19-.59-.3-1.63-1.01-2.16-.3-.15.14-.47.05-.6.26-.14.17-.11.37-.28.52-.26.32-.5.66-.8.94-.29.19-.62.05-.9-.09-.84-.47-.62-1.19-.85-1.91-.35-.65-1.21-1.05-1.9-1.46-1.03-.6-2.5-.51-3.31-.72-.77.15-1.37-.28-2.08-.33-.3-.21-.49-.53-.78-.76-1.3-1.24-2.73-.93-4.19-.17-.52.21-1.2.2-1.59.62-.36-.08-.74.04-1.03.27-1.7,1,.46,5.09-3.98,2.72-.29-.01-.52-.16-.73-.37-.45-.15-.99-.02-1.45-.16-1.68.04-1.34-1.82-1.87-2.9-.48-.69-1.43-.46-2.07-.87-1.37-.58-.57-2.14-1.83-2.84-.74-.41-1.56-.46-2.39-.62-.22-.08-.48.03-.69-.09-.07,0-.35-.04-.24-.13.24-.05-.15-.11-.2-.19-.23-.15-.42-.37-.68-.46-.5-.24-1.06-.17-1.59-.17-.72.34-1.49.52-2.21.85-1.94.81-3.83.07-5.46-.7-1.13-.43-2.36-.47-3.53-.73-2.51-1.04-.76-4.29-1.91-6.05-.74-1.39-1.98-2.49-2.73-3.9-.46-1.77-.24-2.98-2.08-4.22-2.91-1.87-5,.76-5.12-3.57.23-1.02-.99-2.43-2.04-1.83-.72.41-.8,1.48-1.67,1.7-.33.1-.71.2-.99-.05-1.59-1.04-1.01,1-3.09,1.19-.53.47-1.25.26-1.84.09-.48-.41-.84-1.04-1.47-1.23-1.66.23-1.95-1.72-3-2.59-1.78-1.37-2.24.38-3.23,1.62-3.37,1.09-2.26,1.97-4.45,2.93-.46.22-1.08.85-.56,1.31.2.59.64.93,1.05,1.29.42.59,1.06,1.16,1.25,1.87.47.45.88,1.06.91,1.72.05.83-.76,1.12-1.13,1.74-.78.84-1.73,1.62-.73,2.7.78.34,1.95.05,2.72.24.71.17,1.77.67,1.46,1.56-.2,1.18-1.64,1.43-2.08,2.45-.17.77.58,1.29.81,1.96.84,2.52-3.2-.28-4.22.65-2.12,1.43-1.95.94-4.16.85-.59.03-.91.57-1.38.88-.63.39-1.39.62-1.9,1.17-.83.32-1.54.87-2.25,1.37-.42.17-.62.78-1.1,1.03-1.38,1.61-4,2.22-5.24.25-.47-.59-.57-1.31-1.39-1.71-1.21-.62-2.93-.3-3.92.16-2.52.98-3.12-.94-4.97.53-.57,1.04-.9,1.27-.94,2.48-.02.6.59.95.77,1.48.4,1.01.04,2.25.16,3.34.07,1.31,1.39,2.28,1.25,3.65.23,1.7-1.57,2.05-2.62,2.82-.6.74-.54,1.86-1.33,2.52-2.74,2.03-5.2-.3-6.39,4.14-.66,1.28-.31,2.84-.9,4.15-.34.98-.93,1.97-1.66,2.69-.99.63-1.98,1.26-2.96,1.87-.45.1-.92-.24-1.17-.53-.16-.02.03-.18-.03-.27-.1-.12-.25-.18-.32-.3.08.08.07,0,.01-.03-.22-.03-.43-.19-.66-.17-.67.27-1.51.22-2.08.7-1.15,2.01.44,2.48-2.21,4.39-2.22,1.99-1.7,4.4-1.44,7.03.05.99-.55,1.43-.57,2.25-.15.97.02,2.14-.76,2.89-.27.19-.45.57-.78.64-.49.02-.96.26-1.45.12-.96.36-2.63.08-2.86,1.31.45,2.95-1.46,1-1.9-.45-.13-.76-1.6-1.7-2.96-1.58-.75-.06-1.37.53-2.12.4-1.01-.48-2.12-.94-2.9-1.75-.3-.35-1.19-.55-1.56-1.03-.83-1.02-.87-2.65-.49-3.87.51-1.2-.32-2.51-1.37-3.13-1.16-.33-1.73-1.59-2.82-2-1.21-.07-1.41,1.96-.38,2.35,1.02.21,2.95.19,1.94,1.72-.77,1.05-2.43-.49-3.09.76-.25.36-.07,1.01-.61,1.13-.58-.37-.93-1.24-1.67-1.41-.97-.33-1.95.8-1.37,1.7.33.68,1.55.39,1.64,1.25-.23,3.18-3.58,1.48-4.53,2.61-.34,1.36-.09,2.85-.15,4.24,0,1.62,2.28,2.43-.29,3.35-1.03.31-2.3-.93-3.09.07-.83.99.27,2.51-.44,3.51-.67.92-3.48,2.23-2.92-.11.06-.89,1.58-2.32.46-3.02-.56-.11-1.14-.41-1.67-.15-.37.33-.75.64-1.14.95-.29.13-.52.49-.85.3-.78-.12-1.13-1.1-1.52-1.7-.33-.53-.66-1.12-.89-1.7-.16-.16-.28-.35-.3-.57,0,0,.12.1.07,0-.39-.61-.55-1.35-.83-2.03-.34-.12-.88-.75-1.34-.62-.56.34-1.29.46-1.83.86-.52.57-1.17,1.07-1.55,1.75-1.03,1.61-2.62,1.52-4.04,1.59-1.14.39-2.35.9-3.23,1.76-.5.42-.55,1.05-.32,1.62.16.65-.34,1.23-.38,1.86-.17.69-.22,1.49-.66,2.05-.15,1.37-1.98,2.64-3.23,1.86-.39-.35-.26-.94-.44-1.41-.2-.51-.48-.98-.77-1.45-.1-.29-.37-.48-.62-.62-.18-.09-.48.1-.66.01-.8-.12-1.66-.19-2.33-.68-1.86-1.07-3.2-3.03-5.34-3.54-.42.11-.78-.37-1.05-.64-.07-.19-.36-.08-.45-.25-.21-.18-.48-.53-.48-.62-1.01-.6-2.21-1.01-3.37-.72-.93.19-1.63.97-2.31,1.58-.41.27-.7.8-1.21.72-.95-.85-2.42-1.04-2.92-2.37-.11-.13-.08-.38-.17-.48-.07-.02-.17-.02-.09-.11.27-.52,0-1.22-.54-1.39-1.33-.15-.43,1.72-1.43,2.15-.09.06-.34.29-.29.29.11-.09.24-.17.19.03-.05.16-.19.28-.2.45,0,.12-.23.27-.27.09.02-.32-.15.17-.05.28.05.32.24.58.3.86.34.52,1,.78,1.43,1.23.1.52.2,1.14.2,1.7-.26.7-.77,1.43-1.35,1.92-.95.31-2.11.63-2.96.03-.54-.76-.39-1.77.19-2.48.74-.71.39-2.16-.7-2.05-.51.21-.98.55-1.54.64-.43.14-.84-.22-1.27-.09-2.6.45-1.19,1.54-4.07,1.1-.32,0-.68-.1-.85-.4.07-.23-.14-.45-.2-.65-.18-.22-.55-.33-.64-.62-.07-.26-.18-.56-.34-.78-.39-.55-1.1-.98-1.78-.74-.72.48-1.06,1.37-1.67,1.96-.69.71-.22,1.77.4,2.39.58.35.82.92.9,1.51.04.54.36,1.18-.04,1.66-.37.33-.99.31-1.34.65-.08.12.07.27-.07.38-.28.27-.28.69-.49,1.01-.62.52-1.17-.55-1.55-.91-.38-.2-.79-.45-1.17-.68-.61-.28-1.5-.29-1.79.45-.32,1.51-.76,3.35-2.43,3.86-.33.19-.66.43-.91.72-.41.22-.94.27-1.18.72-.14.32-.41.6-.46.94-.33.28-.6.57-.82.94-.72,1.01-.5,2.39-.07,3.45.13.46.43.89.52,1.37-.04.57.1,1.12.38,1.62.6.42,1.28.92,1.63,1.59.16.29.32.69.61.89.26.16.69.18.85.5.4.75.6,1.69.16,2.45-.04.14-.16.19-.28.12-.14.08-.08.33-.27.42-.13.29-.45.71-.73.34-.3-.04-.6.04-.9.05-.45.03-.93.11-1.38.05-.56.19-1.15.31-1.75.36-.91.3-2.06.41-3.08.49-1.26-.03-2.61.1-3.71.84-.5.33-1.01.62-1.39,1.07-.5.54-.86,1.31-1.62,1.46-.29,0-.4-.28-.52-.5-.19-.16-.36-.35-.58-.48-.46-.48-1.21-.68-1.76-.24-1.04.15-1.98.87-2.52,1.76-.35.93-.42,1.97-.58,2.92-.31.79-.77,1.55-1.07,2.36-.38.57-.7,1.33-.38,1.83.27.13.11.87.37.82.16.05-.09.12-.12.17-.04-.04-.07.02-.12.01-.04-.03-.07-.11-.13-.11-.01.2.22.2.33.33.24.45.74.63.99,1.07.18.5.31,1.07.73,1.44.32.19.62.35.85.65.52.51.45,1.33.77,1.94.12.34.11.72.24,1.03.14.21.33.37.38.62-.19.56-.38,1.11-.58,1.67-.21.31-.48.86-.34,1.06.17-.2.02.16,0,.23,0,.13-.16.24-.19.34.08.06.05.16.04.24-.12.34-.36.62-.57.9-.04.19-.2.42-.4.48-.41.11-.81.41-1.22.29-.51.02-.93.22-1.46.15-.81-.07-1.62-.4-2.33-.77-.04,0-.11-.03-.15-.04,0,.05.08.08.05.13-.03.08-.17-.07-.2-.11-.42-.24-.15-.79-.6-1.05-.83-.66-1.57-1.62-2.66-1.76-1.03-.22-1.93-.99-2.94-1.33-.19-.02-.36-.12-.53-.11.09.07-.08.09-.13.08-.05-.17-.36.04-.5.03-.28.02-.56-.1-.8-.23-.77-.52-1.52-1.05-2.2-1.67-.53-.5-.98-1.17-1.78-1.27-1.97-.81-3.83-1.85-5.89-2.47-.12,0-.45-.1-.54-.08.1.11.4.1.48.23-.4.08-.84.04-1.23-.05-.27.05-.52-.18-.76-.19-.08-.07.37-.04.3-.11-.16.05-.54-.08-.58.16-.12.12-.56.27-.45.16.16-.01.27-.06.4-.15.05-.05.17-.2.01-.12-.41.05-.79.14-1.15.29-.1.05-.43.24-.27.19.09-.04-.23.2-.32.28-1.29.36-1.99,1.51-3.01,2.35-.76.58-1.19,1.45-1.43,2.36-.34.49-.37,1.09-.85,1.51.05-.09.09-.21.15-.29.07-.04.16-.08.17-.16-.06.03-.1.08-.16.11-.33.4-.67.83-1.14,1.07-.16.18-.16.51-.38.6-.99.36-2.27,2.23-2.07,3.82,0,1.15.83,2.02,1.67,2.7.45.5.7.44,1.27.48,1.68.58,1.03,2.46.62,3.66-.23,1.45-.82,2.83-1.31,4.19-.09.31-.4.85-.81.64-.15,0-.41,0-.45.19-.14.14-.37.07-.56.07-.16.05-.33.17-.41.3-.3.28-.15.98-.21,1.38-.09.73.6,1.63,1.35,1.74.69.02,1.49-.08,1.68.76.13.53,0,1.21-.45,1.58-.06-.03-.53.06-.56-.05-.16-.11-.28-.22-.49-.24-.35.04-.75-.06-1.06-.25-.78.14-1.42.79-1.64,1.54-.29.83.16,1.57.74,2.15.46.41.95.83.77,1.51-.02.1-.17.21-.17.29.11-.02.7.34.57.44-.32.46-.67.9-1.14,1.22-1.18.83-.89,2.51-1.48,3.67-.47,1.21-2.33,1.82-3.24.81-.68-.81-1.34-1.79-1.8-2.74-.3-.53-.64-1.26-1.38-1.1-.79.1-1.71.36-1.99,1.19-.17,1.06-.36,2.13-.94,3.06-.3,1.36-.8,2.7-1.3,4.03,2.41.11,6.04-.61,8.48-.24,16.97.79,34.01.86,50.99,1.31,3.17.06,6.49.16,9.65.29.22-.34.66-.54.77-.95.02-.53.2-1.02.3-1.54-.15-1.75-.41-3.57-.9-5.26-.22-.46-.16-.97-.34-1.43-.45-.97-1.29-2.57.5-2.16,3.01.03,6.55.81,9.54.95,1.7-.04-1.23,2.53,1.43,1.91,11.72-.25,23.75-.34,35.49-.33,8.49-.14,17.05-.36,25.53-.62,2.06-.8,3.32,2.27,3.79.41.46.52,1.88-.65,2.65-.48,13.08.15,26.26,1.68,39.35,1.66,12.81.73,25.56-1.75,38.37-.3,19.64,1.32,39.46.06,59.13.28,1.04.23,4.37-.12,5.34-.17.12-.52.69-.67.69-1.23.1-.12.29-.16.45-.19.14-.08.23-.22.34-.34.11-.12.27-.14.34-.32-.02-.07.09-.06.12-.04,0-.12.04-.17.04-.28.03,0,0-.06,0-.08,0-.12.12.02.13-.08,0-.06.1-.09.12-.03.06-.07.16-.05.24-.03.19.12.41,0,.62-.08.29-.08.47-.34.57-.58.02-.07.08-.07.15-.05.05-.04.07-.12.13-.15.22-.06.34,0,.56-.13.15-.12.46-.16.52-.28.04-.18.11.13.2.08.03.06.09-.03.15-.01.06-.06.2.09.2-.05.13-.16.36-.12.48-.3.19-.07.17-.29.38-.33.34-.12.73-.11.95-.41.2-.02.22-.21.4-.28.03-.12-.07-.16.07-.21.11-.03.27,0,.4-.08.13,0,.23-.19.34-.08.13-.05.17-.17.33-.08.32.04.67-.29.91-.01.58.21,1.19.16,1.78.16.36.02.64-.24.99-.12.74-.06,1.36-.42,2-.74.1-.05-.02-.15.07-.21.05-.03.1-.05.11-.12.02-.04.26-.1.16-.16,0-.11.29-.2.41-.2.08-.14.27-.23.45-.2.19-.11.41-.39.64-.21.55-.46,1.2-.68,1.88-.9.31-.11.6-.34.93-.33.2-.23.57-.06.81-.23,1.47-.63,2.97-1.01,4.41-1.67.33-.14.71-.13,1.06-.12.14-.03.28-.03.44-.09.04-.04.14.03.08.07.05,0,.11-.03.16-.01.12.03.22-.11.33-.13.05-.06.22.04.21-.08.19.01.41.07.58,0,.22-.07.41-.04.41-.29-.05,0-.05-.11-.04-.15-.09-.07.07-.06.09-.08.07.05.12-.02.19-.04,0-.14-.06-.39-.04-.56.07,0,.05-.05.09-.11.09-.02.03-.06-.03-.08-.1-.04-.3-.08-.28-.2.12-.04,0-.17.12-.2.05-.11-.06-.18-.16-.17-.02-.14.17-.11.15-.23.11-.1-.14-.27-.13-.41-.24-.33.31-.25.46-.34.2-.18.32-.49.49-.74.15-.24.51-.31.44-.66-.07-.17.12-.19.2-.27.04-.17-.05-.41-.03-.61.07-.13-.09-.17-.15-.27-.07-.23.19-.36.36-.44.17-.02.26-.18.33-.32.17-.04.33-.11.48-.19.06-.02.18.05.16-.07.07-.31-.25-1.09.37-.65.12.03.24,0,.3-.13.22.05.39.1.61.09.15.05.26-.17.38-.2.24,0,.46.02.7-.07.11.06.1.27.25.33.15-.03.38.09.5.17.08-.1.23.02.31-.07.14-.23.24-.52.49-.61.13-.04.25-.06.36-.13.18,0,.32.04.5-.07.15-.01.3.05.42.12.12-.04.16-.14.29-.19.17-.22.5-.14.65-.38.11-.03.27,0,.4-.05.09.04.17-.1.31-.05.03-.25.34-.19.52-.25.23-.27.63-.19.97-.28.04-.05.01-.1-.01-.15-.1-.21.18-.16.27-.24.2-.11.41-.14.61-.24.08-.29.4-.27.58-.4.07-.14-.1-.4.16-.44.14-.03.38-.13.32-.29-.2-.08-.35-.3-.48-.44.14-.24.3-.44.49-.6.05-.28.31-.45.45-.72-.04-.17-.08-.27-.15-.4.02-.16-.13-.27-.11-.42,0-.15.06-.31.08-.46.06-.07.28-.35.16-.29-.15,0-.21-.21-.33-.25-.11.02-.21-.01-.15-.13-.03-.06-.12-.13-.09-.23-.02-.07-.11-.02-.15-.07,0-.09-.08-.16-.05-.24.2-.04.03-.23.08-.34-.03-.25.18-.27.32-.4.08.08.12.12.23.12.1-.04.05-.12.08-.2-.02-.08.09-.16.13-.25.13.02.17.14.3.07.13.03.18-.05.27-.15.02-.14.22,0,.25-.11.07-.05.05-.17.09-.24.1-.06.25-.12.24-.29.12-.13-.06-.25-.03-.37-.08-.21.27-.44.33-.19.11.1.19-.26.29-.09.02-.01.05-.02.04-.05-.06-.18.15.06.17.07.15-.21.6-.05.78-.29.11.06.08.21.21.24.11-.02.18-.13.25-.21.12-.01.25.1.34,0,.03-.14.16-.27.2-.41-.01-.14.14,0,.23-.05.09.02.05-.11.13-.13.07-.13.13-.26.21-.38.01-.06.09-.08.15-.07.03-.06.06-.12.12-.15.13-.11.41-.02.49.15,0,.1.09,0,.13-.03,0-.06-.03-.15.03-.2.16-.29.08-.62.17-.93.11-.09.33-.14.48-.16.11.09.31.15.45.08.14-.11.05-.3.07-.48-.09-.24.03-.42-.03-.65-.03-.13-.17-.25-.19-.38.08-.16-.16-.36.03-.45.09-.18.3-.05.41-.21.01-.16-.11-.24-.23-.32.05-.08-.03-.12-.08-.15-.05,0-.03-.14-.05-.19-.04-.05,0-.1.03-.13-.01-.07-.18-.08-.11-.17.09-.06.16-.17.09-.27.05-.09.05-.3-.03-.37-.11-.06.05-.11.03-.2-.08-.14-.28-.4-.25-.56.13-.21.27-.56.56-.46.07-.18.28-.19.41-.29.03-.13.23-.11.32-.21.28-.23.69-.34.89-.53.05-.03.11.06.16.11.06.06.14-.05.2-.04.05-.04.08-.12.08-.16.19.04.18-.27.37-.29.09.02.12-.09.17-.12.08.05.18-.07.25-.04.06,0,.06-.07.03-.11.06-.02.05-.09.07-.13-.05-.15.15-.22.25-.23,0,.06.13.16.17.07.04,0,.1-.02.08-.07.1-.19.46-.09.58-.23.19-.22.34-.52.53-.69.42-.32.82-.61,1.3-.87.05-.09.13-.14.09-.25.15-.16.49-.28.7-.44.53-.31.97-.82,1.42-1.05,0,.04.03.12.05.09.05-.06.1-.05.15-.01.1-.1.16-.23.32-.27.04.08.11-.05.12,0,.11.03.23,0,.3-.11-.18-.13-.03-.33.11-.36.08-.01.14-.11.21-.05.06.02.09.22.19.13.03-.08.17-.11.2-.2.07-.12.21-.14.33-.25.05-.14.03-.27.21-.33.15-.07.29-.19.44-.23.07.31.41.05.45-.12.01-.05.03-.06-.03-.08.06-.08.18-.1.29-.13.15-.09.4-.28.56-.23.07.07.09-.1.13-.05.14.07.18-.08.24-.16.07,0,.15-.04.2.01.08.01.08-.06.13-.09-.01-.07.15-.07.17-.13.02-.1.12-.13.2-.17.09-.04.15.03.24.04.04-.02.04-.07.04-.12.05-.04.14-.07.13-.13.09-.04.19.03.28,0,.43.03.8-.4,1.15-.46.24.06.4-.21.6-.16.3-.15.59-.33.94-.33.2.02.31-.07.46-.16.07-.05.23-.03.28-.15.25-.04.48-.07.7-.21.06-.07.13-.06.09-.17-.05.01.04-.08-.03-.09,0-.12.16-.08.23-.13.29-.04-.08-.4.07-.52.05.03.08,0,.13,0,.03.06.09.09.17.09.04-.03.01-.06.01-.11.05-.06.13.03.19-.03.1-.07.29-.12.41-.12.03-.14.17-.17.24-.27,1.3-2.13,4.22-4.19,6.04-6.2,3.6-3.54,7.64-7.08,10.88-10.82Z"/>
      </g>
    </g>
  </g>
</svg>